/* XPM */
static char *result[] = {
/* columns rows colors chars-per-pixel */
"64 64 37 1 ",
"  c black",
". c #010000",
"X c #000100",
"o c #010100",
"O c #000001",
"+ c #010001",
"@ c #000101",
"# c #010101",
"$ c #4682C8",
"% c #4782C8",
"& c #4783C8",
"* c #4682C9",
"= c #4782C9",
"- c #4683C9",
"; c #4783C9",
": c #C286FE",
"> c #C386FE",
", c #C287FE",
"< c #C387FE",
"1 c #C286FF",
"2 c #C386FF",
"3 c #C287FF",
"4 c #C387FF",
"5 c #BDC0C8",
"6 c #BDC1C8",
"7 c #BCC0C9",
"8 c #BDC0C9",
"9 c #BCC1C9",
"0 c #BDC1C9",
"q c #FEFEFE",
"w c #FFFEFE",
"e c #FEFFFE",
"r c #FFFFFE",
"t c #FEFEFF",
"y c #FFFEFF",
"u c #FEFFFF",
"i c white",
/* pixels */
"2222222222222222222222      o X O        22222222222222223222222",
"222222212222222222>422       X  O   X    22222222222222222>22222",
"22222222222222>42   O riiiriiiiiiriyiiiui    1222222222222222222",
"22222>22222222222 OO+ iiiiiiirriiyiiiiiii    2222222212222222222",
"22222222222222222     iiriirriieiiiiiiiiiO . 2222222222222222222",
"222223222222221  iiuiiiiiiiuiiiiuiiuiiiiiiiii  >2222>22222222222",
"222222222224222 .iuriiyiryiiiririiiiiiiriiiir  22222222222222222",
"221222222222222O iiiiiiriiiiiiiiiiiiuuiiiirii. >2222222222222242",
"222<22222222222  riiuiiiriiiriiiiyiiiiiiiiiii  22>2222224:42<2>>",
"2222222222222O iiiiiieyiiiiiiiyiiiiiiyiiiiiiiri  22>222221222222",
"2222222222,22  yuiiiiiyiiiiyriiiirriiiuyiiiiiiu .222222222222222",
":222222222222  yiiiiiy    . iiiriiiiiiiuiiiiiii..222222222222422",
"222242<222222 OiiiyiiiOX  O iiiiiriiuiiiiuiiyii  222222222222242",
"2224222222222  riririy      iiiiiiiiiiiiiiiiuii  222222222222:22",
"222>2>2222222  iiyiiii  O@  yiiiuiiiiiiiiiiiiiy @222222222222222",
"2222222224222 XXOtirri.  .  iiyiiiuiiiiiriiiu   X222<22222222222",
"222222>222222    iiuii   X  iiiiiiiyiiiuuiiir    222222222222422",
"222222224222222  oO iiiiuiiiiiyeii X.X irii. O 2>2222>222>22242>",
"222222222222422.  .Xiiiiiiiyiiiiii OX  iiiioO  22221222222222222",
"222222222242222  OX yiiiiiiiiiryii    Xiiii @  222>2222222222222",
"2222222222222  iiiuiqiiriuuiii  iiiuiii  o ii  22222222222222222",
"2224242222222 Oriiiriiiiiyiiii Xiiiueii  . ir  22222222222222222",
"2222222222222    X       .        riiii  iiii  22212222222222222",
"222212222222<  . .         .      iiiii .iiii  22222222222222232",
"22224>2221222O   iii  ri  ri  iyriiiiri  ii  42222>>222222222222",
"1222222>12222 .O iri  ii .iiO iiiiuiuii  ii  2221222222222222>22",
"222222212222222      @  .   iiiriiiiu O    O 22222222222222222>2",
"222222222222222    X    . X iiuiiiiwi     O. 2222222222222224222",
"2222222>4212222  iiiiiiiiiyiiiiiiiX.   888888  24222222222222222",
"2<2222242222222 Oiiiiiiiiyiiwiiiii     888888  22222222222222422",
"222222222222222 .    o X  .   @  X8858085808878  222222222222>24",
"222222222222222  O    @ .         0088808585888O 222222222422222",
"22222222222212<>2>22O   ii    8888888    +       222222222222122",
"22222223222222222222    yi    8888888    #      .2222222222>2222",
"22222222222222222   89 X .O 8888  +O =;==*=    22222222>22222222",
"242222>21222222>2O  88.     8888   X =*====XX  222122222222>2222",
"2>222222222222222O  58O     0886   O =%===;    222>2222222224222",
"22222222:2422222>+    uuui  88    =%;*=;=====+ 22222222222222222",
"22222222222222222    Oriii  88   O**=*==%*===  22222222222222222",
"24<22222222242422     ii@     ====   %=$==;===-  222222222222222",
"22222222222212212  X  ui      %%=% XO;==;*====&+ 22222222222>222",
"22222222222222222 XX@ riiuii  ==.O===  =;======  222222222222222",
"222222>2222>22222     iiwiii X;=  ===  =====-==. 222222222222>22",
"12222222>22222222       XO X  ==  %==;*;=====*=  222222122222222",
"222:2222222222232    X   O    ==  ;========%==-  222222222222222",
"222222222222:2222 O    Oiiii  =;  ;==*===%===  22222222222222242",
"22222222122222222   X . yyii  ==  ======;===*. 22222222222222222",
"22222222222222222222 O  XX  O ;===           22222212>2222222222",
"22222222221222222222X      @  =;==O.    O  . 2222222222212222222",
"22222242222222222222X O    + .  *==========O 2222222222222222222",
">2222222222422222422     .    X ====*;====%  2222222222222222222",
"22222222222222222222        X  X;===*==&**=  222222,222222222222",
"222222>2222222222<2222 X      X   X       X222222222>22222222222",
"2222222222222222222222XO        ..   OXX   222222222222222222422",
"2222222222222222222224 .      .       O  22222212222222222222222",
"22222222222222>2222242.         X  .     222222222224222:1222222",
"222:22222222222>222221               232222222122222222222222222",
"2222222222424222222222 X      .   O  22222222222222>222222222222",
"22212222222222222222      iiiiiiiiiii  2222222222222222222222222",
"22222242222222222222   X  iiiyiiiyiir  4224222222242222222424222",
"22222222222222222222 .iuiiiiii       XX2222222222222222222222222",
"2222<222222222222222 Oiiqiiiii  O  ..  2222122222222222222222222",
"2222222222222222222222      .   >22:2222222212222422212222221222",
"222222>2222222>2222222X       + 222222222224222422222>2222222222"
};
