/* XPM */
static char *result[] = {
/* columns rows colors chars-per-pixel */
"64 64 30 1 ",
"  c black",
". c #010000",
"X c #000100",
"o c #000001",
"O c #010001",
"+ c #000101",
"@ c #4782C8",
"# c #4682C9",
"$ c #4782C9",
"% c #4783C9",
"& c #C286FE",
"* c #C386FE",
"= c #C387FE",
"- c #C286FF",
"; c #C386FF",
": c #C287FF",
"> c #C387FF",
", c #BCC0C8",
"< c #BDC0C8",
"1 c #BCC0C9",
"2 c #BDC0C9",
"3 c #BCC1C9",
"4 c #BDC1C9",
"5 c #FFFEFE",
"6 c #FEFFFE",
"7 c #FFFFFE",
"8 c #FEFEFF",
"9 c #FFFEFF",
"0 c #FEFFFF",
"q c white",
/* pixels */
";;;;;;*;;;;;;;;;;;;-;;     . X    X      ;-;;>*;;;;*;;;;;;;*;;;>",
"*;;;;;;;;;;;*;;;;;;;;;  X    + o       . ;*;;;;;;;;;;;-*;;;;-;;-",
";;;;;;;;;;;;;;;;;X   .qqq7q7qqqqqqqqqqqqq    ;;;;;;;;;>;;;;;;;;;",
";;;;;;;;;;;;;;;:;    Xqqqqq09qq09qqqq59qq.   -;*;;;;;;;;;;;;;;;;",
";;;>;;;;;;;;;;-;;     0qqqqqqq0qqqqqq7qqq    ;;;;;;>;;;;;;;;;;;;",
";;;;;;;;;;;;;;;  0qq5qqq0qqqqqqqqqq0qqqqqqqqq  ;;;;;;;;*;;;;;;;;",
";;;;;;;;;>;;;;; o0qqqqqqqqqqqqqq7qqqqqqqqq5qq  ;;;*;;;;;;;;;;;;>",
";;;;>;;;;;;;-;; oqqqqqqq7qqqqqqqqq00qqqqqqq0q .;-;;;;;;;;&;;;-;;",
";-;;;;*;;;;;;;-  qq9q7q0qqqqqqqqqqqqqqqqq79q7  ;;;;;;;;;;;;;;;;;",
";*;;;;;;;;;;;X qqqqqqq0qqqq97qqqqqqq0qq0q0qqqq0  ;;;;;;;;;;;;;;;",
";;;;=;;;;;;;;  q7qqqq0qqqqq7qqqq0qq5qq9qqq9qq0q .;;;;;;;;;;;;;;;",
";-;;;;;;;;;;;  qqqqqqq.   . 7qq7qqq097q797q7q9qo ;;;;;;;;;;;;;>;",
";>;;;;;;;;;;;  qqq9qqq     oqqqq9qqqqqqqqqqqqqq  ;;;;;*;;;;;;>;;",
";;;;;;;;;;;;;X qqqqq80  .   q07qqq0qq9qqq9qq790 X;;;;;;;;;;;;;;;",
";*;;;;;;*;;;;  qqq7qqq O.  Xqqqqq7qq0qqqqqqqqqq  ;;;;;;>;;;;;;;;",
";;;;;;;;;;;;;    qqq7q XX  Xqqqq0qqqqqqqqqqqq    ;;;;;;;;;;-;;;;",
";;;-;;;;;;;;;    9qqqq.     qqqqqqqqqqqqqq9qq .  ;;;;;;;;;;;;;;;",
";;;;;;;;;;;;;;;     qqqq9qqqqqqq8q.   oqqqqoX  >;;;;;;;;;;;;;;;;",
";;;>;;;;;;;;;;;  o Xq09q0q8qqqq0qq     q09q    ;;;;;;;*;;;;;;;;;",
"-;;;;;;;;;;;;;;X  o qq7qqq0qqqqq9q.    qq7q  +.;;;;;;;;;;;;;;;;;",
";;;;;;;;;;;;;  qqqqqqqqqqqq7q7  9qqqqqq    0q  ;;;;;;;>;;;;;;;;;",
";;;;;;;;;;;*>  qqq6q9qqqqqqqqq  qqqqqqq    q9  ;;;;;;;;;;;;;;;;;",
";;;-;;;;;;;;;    . .       o      qqqqq  qqq7 .;*;;;;;;;;;;;;;;;",
";;;;;;;*;;;;;  o .    oo   o XX   q7q7q X9qqq  ;;;;;;;;;;;;;;;;;",
";;>:;;;;;;;;; Xo q9q  qqo qqXXq7qqqqqqq  qq  ;;;;;;;;;>;;;;;;;;;",
";;;;;;;;;;;;;   .9qq .qq  qq  qq9qq97qq  qq. ;;;;;;;;;;;;;;;;;;;",
";>;;;;;;;;;;*;;o          X qq0q0q7qq    . o ;;;;;;;;;;;;=;;;;;-",
";;;;;;;;;;;;*;;        .X . 7qqq7qqqqOo.    o;;;;;;;;;;;>;;;;;;*",
";;-;;;;;;;;;;;;  qqq97qqqqqqqq9q5q oo  212222oX;;>;*;;;;;;;;;;;;",
";;;:;;;;;;;;;;; .qqqqqqqqqq0qqqqqq   . 222222 +;;;;;;;;;*;;;;;;;",
"*;;;;;;;;;;;;;&                   <222224222222. ;;;;;;;;*;;;;;;",
";:;;;;;;;;;;;;;          X.      .4212222222232  ;;;;;-;;;;>;;;;",
";;;>;>;>;-;;;;;;*;;; .  qq o  2222222o    X o    ;;:;;;;;;;-;;*;",
";;;>;;;;;;;;;>;;;;;;o   qq  o 2222222          oo;;;;;;;;;;;;;;;",
"*;;;;;;;;;;;;;;;; + 22 o    2<22     $$$$$$ . X;;;;;;;;;;;;;;;;;",
";=;;-;;;;;;;;;;;;X  22      222,  X  @$$%$$ X  ;;&;;;;;;;;;;;;;;",
";;;;;:;-;*;;;;;;; X 22  .   2222   Xo$@$$$$  o ;-;;;;;;;;;;;;;;;",
";;;;;;;;;;;;;>;;;X    qqqq X22  o $$$$$$$$$$$  ;;;;;;;;;;;-;;;;;",
"*;;;;;;;*;;;;>;;;     qq5q  21o   $$$$$$$$$$$  ;>;*;;;;*;;;;;;;;",
";;;;;;;;;;;;;;;;;     qq   o  @$$$   $$$$$$$%@$  ;;;;;;;&;;;;;:;",
";;;;;;>;;;;;;;;;;. .  qq o    $$#$   $$@$$$$$$$ o-;;&;>;;;;;;;;;",
";;;;;;;;;;;;;;;;;  .  9q7qq9  $$o $@$ o$$$$$$@$  ;;;;;;;;;;;;;;;",
";>;;;;;;;;;;;>;;;  .  qqqqqq  $$  $%@X $$$$$$@$  ;;;;;-;;;;;;;;;",
";;;;;;;;;;;;;;;;;X     . X o  #$  %$$$$$$$$%$$$  ;;;;;;;;;;;;;;;",
";;;;=;;>>>;;;;;;;  X X    oo  $$  $$$$$$$$#@$@$+ ;;;;;;;;;;;;;;;",
"-;;;;;;;;;;;;;;;;;;;   X7qqqo #$ o$$%$@$%$@%%  ;;;>;;;;;;;;;;;;;",
";;;>;;;;;;;;;;;*;;;;. . q9qq  %$ .$$$$$$$$$$$X ;;;;;;;*;;;;;>;;;",
";;;;;;;;;;;;;;;;;;;;   .  X   $$$$        o  ;;;;;;;;;;;;;;;;;;;",
";*;;;;;-;;;;;;;;;;;;    o    .$%$@        .  ;;;;;;;;;;;;;;;;;;;",
";;;;;;;;;;;;;;;      o    .     $$$$$$$$$@$  ;;;;;;;;;;;;;;>;;;;",
";;&;*;;;;;;;;;;   .             $$$@$$$#$$$  ;;;*;;;;;;;;;;;;;;;",
";;;;;;;;;*;;;;; .  X   X X X    $$@$$$$$$%$  ;;;;;;;;;;;;;;;;;;;",
";;>;;;;;;;;;;;;  q7qqq  o      o     o      X;;;;;;;;;;;;;;;;;;;",
";;;;;;;;;;;;;;;  777qq           X .    .   .;;;;;;;;;;;;;;;;;;;",
">;;;-;;;;;;;;;;  qqq07q0 o      ..     <22<Xo;&;;;;;;;;-;=;;;;;*",
";;;;;;;;;;-;;;;  qq9qqqq o   .    o    2222X ;;;*;;;;;;;&;;;;;;;",
";;;;;-;;;;;;>;;;;     qqqq    ;;*;   o 2222  ;;;;;;;;;;;;;;;;;;;",
";;;;;;;;;;;;;;;;; X   qq9q.   ;;;;    X12<2 X;;;;;;;;;;;;;;;;;;;",
";;;;;;;;;:;;;;;;;;;;;;  0q9q o;;  21222    ;;;;;;;;;-;;;=;;;;;;;",
";;;;;;;;;;;;;;;;;;;;;:. qq8q+ ;;  22212 oX ;;;;;>;;;;;;;;;;;;;;;",
";;;;;;>;;;;;;;;;;;;;;;;; o. ;;;; X    X  ;;;;;&;;;;;;;;;;;;;;;;;",
";;;;;;;;;;;;;;;;*;;;;;;;    ;;;;        O;;;;*-;;;-;;;;;;;;;;;;;",
";;;;;;;;;;;;;;;;;;;;;;;;;;;;;;;;;;;;;;;;>;;;;;;;;;;;;;>;;;;;;;;;",
";;;;;;;;;;;*;;;;;;;;;;;;;;;*;;;;;;;;;;;;;;;;;-;;;;;;;;;>;;;;;;;;"
};
