/* XPM */
static char *result[] = {
/* columns rows colors chars-per-pixel */
"64 64 34 1 ",
"  c black",
". c #010000",
"X c #000100",
"o c #010100",
"O c #000001",
"+ c #010001",
"@ c #000101",
"# c #4682C8",
"$ c #4782C8",
"% c #4683C8",
"& c #4783C8",
"* c #4682C9",
"= c #4782C9",
"- c #4783C9",
"; c #C286FE",
": c #C386FE",
"> c #C387FE",
", c #C286FF",
"< c #C386FF",
"1 c #C287FF",
"2 c #C387FF",
"3 c #BCC0C8",
"4 c #BDC0C8",
"5 c #BDC1C8",
"6 c #BCC0C9",
"7 c #BDC0C9",
"8 c #BDC1C9",
"9 c #FEFEFE",
"0 c #FFFEFE",
"q c #FEFFFE",
"w c #FFFFFE",
"e c #FFFEFF",
"r c #FEFFFF",
"t c white",
/* pixels */
"<<<<<<<<<<<<<<<<<<<<<<  .  .             <<<<<<<<<<<<<<<<<<<<<<<",
"<<<<<<<<<<<<<<<<<<1<<<       .  O        <<<<<:<<<<<<<<<<<<<<<<<",
"<<<<<<<<<<<<<<<<<    .ttttrttttttttttttte    <<<<<<<<<<<<<2<<<<<",
"<<<<<<<<<<<<<<<<<  .  twettttetttwtttrqtt    <<<<<<<:<<<<<<<<<<<",
"<<<<<<<<<<<<<<<<<    OetrtttttttttrttttttO   <<<<<2<,<<<<<<<,<<<",
":<<<<<<<<<<<<<< Xrttttrtttttttttttettetwtqttt  <<<<<<<<<<<<<<<<<",
"<<<<<<<<<<<<<<<  ttwettttettrwretttttttwttttt .><,<<<<<<<<<<<<<<",
"<<<<1<<<<<<<<<<X ttrttttttttttttttwtttttttttt  <<<<<<<<<<<<<<<<<",
"<<<<<<<<<<<<<<<  tttwttttttwtttwtetttttttrtet .<<<<<<<<<2<<<<<<<",
"<<<<<<<<<<<<<  tttttrtttwttttttttttwettwttwtttto <<<><<<<<<<<,<<",
"2<<<<<,<<<<<<  ttttewwttttetttttretttetttttwttw  <<<<<<<<<<<<<<<",
"<<2<<<<<<<<<< Xttttrtt    . ttettttttttrttttwtt o<<<<<<<<<<<<<<<",
"<<><<<<<<<<<<  tttwttt   .  ttrtttttrtrtwtttrtt O<2<<<<<<<<<<:<<",
"<<<<<<<<<<<<>  tttteer..  . tttwtwttttttttttttr. <<<2<<<<<<::<<<",
"<<<<<;<<<2<<<  ttwttrt   .  wtwtttteettetrttttt. <<<<<<<<<<<2<<<",
"<<<<,<<<<<<<<X   ttttt OX   ttrettetttttttttt.O  <<<<<<<<<<<<2<<",
"<<<<<<<<<<<<<O   wtwtt     .ttttttttttttttrtt O  <<<<<,<<;<<<:<<",
"<<<<<<<<<<<<,,<O.   tttttrttttewtt .   ttet    <<<<<<<<<<<<<<<<<",
"<<<<<<<<<<<<<<<    XtttttteetttettO  . eeww   O,<<<<<<<<<<<<<<<<",
"<<<<,<<<<,<<<,<     trettwttttwtte  O  tttt    :<<<<<<<<<<:<<<<<",
"<<<<<<<<<<<<<.Owttttetttrttett  ttwtttwX  .tt. <<<<<<<<,<<<<:<<<",
"<<<<<<<<<<<<<  ttttttrttttrwrt  ttttttt    tt  <<<<<<<<<<:<<<<<<",
"<<,<:<<<<<<<<       X   X   XOO   ttwtt  ttet  <<:<<<<<<<<<<<<<<",
"<<<<<<<<<<<<<X   .      X  X   O..twttt  ttttXO<<<<<<<<<<<<<<<<<",
"<<<<<<<<<<<<<    twt  wt  ttO ttttttttt Ott  <<<<<<2<<<<,<<<<<<<",
"<<<<<<<<<<<<<.   ttt  tt  ttX trettrttt Xte o,<<<<<<<<<<<<<2<<<<",
"<<<<<<<:<<<<<<<.  X  O  X   qtettettt O      <><<,<<<<<<<<:<<<<<",
"<<<<<,<<<<<<<<<       .O    ttttttttt        <<<<<<<2<<<,<<<<<<<",
"<<<<<<<<<<<<<<<  ttttrtttttttrttttO  X 778747  <<<<<<<<<<<<<<<<<",
"<<<<:<<,<<<<<<<  ttrtwttttttttrttt    O777777. <<,<<<<,<:<<<<<<<",
"<<<<<<<<:<<<<<<           .    .  8778777777777  <<<<<<<<<<2<<<<",
"<<<<<<<<2<<<<<<  X              . 6778777777734  <<<<<<<<<<<<<<<",
"<<<<<<<<<<<<<,<<<<<<    tw    7777487       OXO  <<<<<<<<<<<<<<<",
"<<<<<<<<<<<<<<<<<<<<O   re    7777777X X   OO    <<<<<<<<<<<<<<<",
"<<<<<<<<<<<<<<<<<X  77   X  7587   X =#====    <<<:<<<<<<<<<1<<<",
"<<<<<<<<<<<<<<<:<  X77      7776  O  =-====    <<<<<<<<<<<<<<<<<",
"<<<<<<<<<<<<<<<<<  @77      4877     =$===$    <<<<<<<<,<<<<<<<<",
"<<<,<<<<<<<,<<<<<     tett  78    ====*=*====  <<<<<<<<<<<<<<<<<",
"<<<<<<<<<<<<<<<<<     trrt .77    =**======%= X<<<1<<<<<<<<<<2:2",
"<<<<<<<<>:<<<,<<<O    tt @    -=-=X  -=$=======  <<<,2<<<<<<<<:<",
"<<<<<<<<<<<<<<<<<  .  tt.   XX==*=   =*==*===== .<<<<<<,<<:<<<<<",
"<<<<<<<<<<<<<<<<< . X.ttttwt  ==  $== .===*$=== .<<<<<<<2<<<<<<<",
"<<<<<<<<<<<<<:<<<.  X ttttte  *=  === .========  <<<<,2<<<<<<<<<",
"<:,<<<,<<<<<<<<<< O XOX O .   -=  ==-=&========  <<2<<<<<<<<<<<<",
"<<<<<<<<<<<2<<<<<   o    O   X==  ===$=-$======  <<<<<<<<<<<<<<<",
"<<<:<<<<<<<<<<<2<      .eett @==  *===-====*=  <<<<<<<<<<:2<<<<<",
"<<<<<<<<<<<<<<<<<X      tttt  ==  *=$-===--==  <<<<<<<<<<<<<<<<<",
"<<<<<2:<<<<<<<<<<<<<    .    O-===X O        <<<<<:<<<<1<<<<<<<<",
"<<<<<<<<<<<2<<<<<<<<  OX@.    ====   O     . <<<<<<<<<<<<<<<<<<<",
"<<<<<<<<<<,<<<><;<<<            *=====$$=*=  <<<<<<<<<<<<<<<<<<<",
"<<<<<<<<<<<:<<<<<<<:X      . @ .$*==$$=====  <<<<<<<<<<<<<<<<<<<",
"<<<<<<<<<,<<<<<<<<<< OOOO. .    ====-======..<<<<<<<<<<<<<:<<<<2",
"<<<<<<<<<<<<<<<<<<<1<<        O    .       <<<<<<<<,<<<<<<<<<<<<",
"<<<<<<<<<<<<<:<<<<<<<<O   OOO  .O.     O O <<<<<<<<<<<<<<<<<<<<<",
"<<<<<<<<<<<<<<<<<<<<<<    +O           . <<<:<<<<<<<<<<<<<<<:2<<",
"<<<<,<<<<<<<<<<<<:;<<<     .O  .X  X    .,<<<<<<<2<<<<<<<2<<<<<<",
"<<<<<<<<<<<<<<<<<<<<<<   .          .<<:2<<<<:<<<<<:<<<<<<<<<<<<",
"<<<<<<<<<<<<<<<<<<<<<<  .  O         <<<<<<<<<<<<<<<<<<<<<<<<,<,",
"<<<<<<<<<<<><<,<<<<< OX O twtttttttte  <<<<2<<<<2<<<<<<<<<<<<<<<",
"<<<<<<<<<<<<<<<<<<<2 . O  ttttwttt9tt  <<<<<<<,<<<<<<<<<<<<<1<<<",
"<<<<<<<<<<<<<<<<<:<<XXettetttt         <<<<<,<<<<<<<<<<<<<<<<<,2",
"<<<2<<<<<<2<<<<<<<<<  tttt0ttt O  O    <<:<<<<<2<<<<<<<,<<<<<<;<",
"<<<<<<<<<<<<<<<<<<<<<<OO   O O  <<<<<<<<<<<<2<<<<<<<:<<,<<<<<<<<",
"<<<<<<<<<<<2<<<<<<<<<< X  .     <<<<<<<<<<<<<:<<<<<<<<2<<<<<<<<<"
};
