/* XPM */
static char *result[] = {
/* columns rows colors chars-per-pixel */
"64 64 33 1 ",
"  c black",
". c #010000",
"X c #000100",
"o c #010100",
"O c #000001",
"+ c #010001",
"@ c #000101",
"# c #4782C8",
"$ c #4682C9",
"% c #4782C9",
"& c #4683C9",
"* c #4783C9",
"= c #C286FE",
"- c #C386FE",
"; c #C287FE",
": c #C387FE",
"> c #C286FF",
", c #C386FF",
"< c #C287FF",
"1 c #C387FF",
"2 c #BDC0C8",
"3 c #BDC1C8",
"4 c #BCC0C9",
"5 c #BDC0C9",
"6 c #BCC1C9",
"7 c #BDC1C9",
"8 c #FFFEFE",
"9 c #FEFFFE",
"0 c #FFFFFE",
"q c #FEFEFF",
"w c #FFFEFF",
"e c #FEFFFF",
"r c white",
/* pixels */
",,,,,,,,,,,,,,,,,,,,,,      O   X    O   ,,,,,,,,,,,,,,,,,,,,,,,",
",,,,,,,,,,-,,,,,,,,,,,          o        ,,,,,,,,,,1,,,,,,,,,,,,",
",-,,,,,,,,,,,,,,,     0rrrrrrwrrrerrrrrrr    ,,,,,,,,,,,,,,,,,,,",
",,,,,,,,,,,,,,=,, OXO rrrrrrrr0rrrrrr0qer.   ,,,,,,,,,,,,,,,,,,,",
",-,,,,,,,,,,,,,,,    +rr0r9rrrrrrr0rrr0rrX O ,-,,,,,,,,,,,,,,,,,",
",,,,,,,,,,,,,,,  rwrrrwrrrrrerrrrrrqrr9errrrr  ,,,,,,,,,,,>-,,,,",
",,,-,,,,,,,,,,,  rrr8rrrrrrrrrrrrrrrrrrerrrrr. ,,,,,,,,,,,,,,,,,",
",,,,,,,,,>,,--, .rrrrerrrrwrrre0r0rrre0rrrrrw  ,,,,,,,,,,,,,,,1,",
",,,,-,,,,-,,,,,  0rrrrwrrrrrrrrrrrrererrw00re  ,,,,,,,,,,,,,,,,,",
",,,,,,,,,,,,,  rrrrrrrr0rrrrrwwrrrwrrrrrrrrwrrr.O,,,,,,,,,,,,,,,",
",,,,,,,,,,,,,  rr0rrrrrrrrwrrerr9rrrwr0errrrrrr  ,,,,,,,,,,,,,,,",
",,,,,,,,,,,1,  r00rrrr      rrr0rrrwrrr00wrrrrr  ,,,,>1,,,1,,-,,",
",,,,,,,,,,,,,  rrrer0r      rrwrrrrrrrrrwrrwrr0 O,,,,,,,,,>,,,,,",
",,,,,,,,,,,,, .w9rrwrr O  . rrrrrrr0rrrrrr0rrrr  ,,-,,,,,,,-,1,,",
",,,,,,,1,,,,,  rrrrqrr  X   rrrrrrrrerrrrerr9re  ,,,,,,,,,,,,,,,",
",,,1,,,,,,=,, +  rrrrr   .  rrrrrrwrrrrrrrer0 . .,,,,,:,,,,,,,,,",
",,,,,,,,,,,,,    0ewwr   X.Orrrrrrrr0rrrrrrr8O   ,,,,,,,,,,,,,,,",
"1,,,,-,,,,,>,,,     0rrwrrrrrr8wrr   . rrrr o  ,,,,,,,,,,,,,,,,,",
",,,,,,,,,-<,,,,  X Xewr0rrrrrrrrrr  X Orrrr    ,,,,,-,,,,,,,,,,-",
",,,,:-,,,,,,,,,O   X0rrrrr0rrrrrr8     rrer X. <,,1,,,1,,,,,,,,,",
",,,,,,,<,,,,,  rrr0rrrrrrrerrr .rrqweer    rr  ,,,,,1,,,,,,,>,,,",
",,,,,,,,,,,,, .wrrr8rrrrrrrr0r Orqrrrrr    rr  ,,,,,,,,,,,,,,,,,",
",,,,,,,1,,,,, O .      . O        9rrrr  rrrr  ,,,,,,,,,,,,,,,,,",
",,,,,,,,,,,,, X.. .    .    X     rrrrr  wree  ,,,,,>,,,,,,,,,,,",
",,,,,,,,,,,,,    rre  rr  wr  rrrrrr0rr  r0  ,,,,,,,,,1,,,,,,,,,",
",,,,,,,,,,,,,  OOrrr  r0  rr Xrrrrrrrer OrrO ,-,,,,,,,,,,,,,,,,,",
",,,,,,,,>,,>,,,    O        er0rwrrew        ,,,,,,,,,,,,,,,,,,,",
",,,,,,,,,,,,,,1   X .       rrrrrrrrr X X   O,-,,,,,,,,,,,-,,,,,",
",,,,,,,,,,,,,,,  rrerrrrrrwrrrerrr    O525455X ,,,,,,,,1-,,>,,,,",
",,,,,,,,;,,,,,,. 0rrrrrrqrrr0rrrer.XO  555555. ,,,,,,,,,,,,,<,,,",
",,,,,,,,,,,,,,,     .   X    X    5553555545552. ,,,,,,>,,,,,,,,",
",,,,,,,,,,,,,,,      .X           5555555554525 .,,,,,,,,,,,,,,,",
",,,,,,,,,,,,,,>,,,,,    er    5555255   O        ,,,,,,-,,,,,,,,",
",,,,,,,,,,,,,,,,,,,,   X0e   X5555555  X         ,1-,,,,,,,,,,,-",
",,,,,,,,,,,,,,,,,   55X    .5555    O%%%**%    ,,,1,,,,,,,,,,:-,",
",,,,,,,,,,,<,,,,,  X55  O + 5555    X%%$$%*    ,,,>,,,,,,,,,,,,,",
",,,,-,,,,,,,,,,,,   25 X    5555 OX  %%%%%%O   -,:,,,,,,,,,,,,,,",
",,,,,,,,1,,,,,,,,   O rreq  75    %%%%%%%%#*%  ,,,,,,,,-,,,,,,1,",
",-,,,,,,,,>,,,,,,     rrrr  55 O  $%%%%*%%%*%O ,,,,,,,,,,,,,,,-,",
",,=;,,,1,,,,,,,,,  .  ee@.    %%%#   %%%%%%%%%%X ,,,,,,,,,,,,,,,",
",,,,,,,,,,,,,,,,,     rrX.O   %%#% O *%%%%%%%%%  ,,,,,,,,,,,,,,,",
",,,=-:,,>,--,,,,,  X  rrrrrrX #%  %%*  ##$$%%%% .,,,,,,,,,,,,,,,",
",,,,,,,,,,,,,,,,,XO   rrrwre  %% O%%%  %$$%%%%%  ,,,,,,,,,,,,,,,",
",,,>,,,,,,,,,,,,,         .   #%  *%%%%&%%%%%%%  =,,,,,,,,-,,,,,",
",,,,,,,,,,,,,,-,,O   XO  . O  %% X%*%$%%%%%%%%%  ,>,,,,,,,,,,,,,",
",,,,,,,,,,,,,,,,,,1,    rrrr  $%  %%%%%#%%%%%. ,,,,,,,,,,,,,,,,,",
",,,,,,,,,,,,,,,,,,,,    rrrr .$#  %%*%%%#%%%% .,,,,,,,,,,>,,,,,,",
",,,,,,,,,,,,,,,,,,,,   OO     %%%%  XO  O   .,,,,,,,,,,,>,,,,,,,",
",,,,,,,>,,,,>,,,,,,,          %%%%     X  ..X,,,,,,,,,,,,<,,,,,,",
",,,,,,,,,,,,,,,     .           %%%%%*%%%%%. ,,,,,,,,,,:,-,,,,,,",
",,,,,,,,,,,,,,,     .           %#%%*%#%%%%  ,,,,,,,1,,,,,-,,,,,",
"-,,,,,,,,,:,,,,  O    X     . O %%#&$%%%%$%o ,,,,,,,,,,,,,,,,,,,",
",,,,,,,,,,,,,,,  54555 X     X           O X ,,,,,,,,,,,,,,,,,,,",
",,,,,,,,,,,,,,,  75555 O    . X   X        O ,,,,,,-=,,,,,,,,,,1",
",,,,,,,,,,,,,,,  5555555    X  X    X  erer  ,,,,,,,,,,,,,,,,,,,",
",,,,,,,,,,,,1>,  4555555 O  .    O     rrrr  -,,,,,,,-,,,,,,,,,,",
",,,,,,,,,,,,,,,,,  .  6557  o ,,,,     rrrr @,,,,,,,,-,<,,,,-,,,",
",,,,,,,,,,,,,,,>, X   5555  . ,,1,   X wrrr X,,,->,,,,>,,,,,,,,,",
",,,:,,,,,,,,,,,,,,,=,,  5257X ,,  rrrrr    -,,,,,,,,,,,,,1=,,,,>",
",,,1,=,,,:,,,>,=,,,,,,  5555  ,,  rrrre    ,,,,,,,,,,,,,,,,,,,,,",
",,,,,,,,,,,,,11,,,,,,,,,   .,,,,      O. -,,,,,,,,,,,,,,,,,,,,,,",
",,,,,,,,,,,,,,,,,,,,,,,,    >,,1  .    OX,,,>,,1,,,,,,,,,,,,,,,,",
"-,,,,,,,,,,,,,,,,,,,,,,,,,,,,,,,,,1,,,,,,,,,,,,,,,,,,,,,,,,,,,,,",
"1,,-,,,,,,,,,,,,,>,,,,,1,,,,,,,,,1,,,,,,1,,,,,,:,,,,-,,,,,,,,,,,"
};
