/* XPM */
static char *result[] = {
/* columns rows colors chars-per-pixel */
"64 64 34 1 ",
"  c black",
". c #010000",
"X c #000100",
"o c #010100",
"O c #000001",
"+ c #04244E",
"@ c #04254E",
"# c #05254E",
"$ c #05254F",
"% c #0478AA",
"& c #0578AA",
"* c #0479AA",
"= c #0478AB",
"- c #0578AB",
"; c #0479AB",
": c #0579AB",
"> c #30BAF8",
", c #30BBF8",
"< c #30BAF9",
"1 c #31BAF9",
"2 c #30BBF9",
"3 c #7AFBFE",
"4 c #7BFBFE",
"5 c #7BFBFF",
"6 c #C286FE",
"7 c #C386FE",
"8 c #C387FE",
"9 c #C286FF",
"0 c #C386FF",
"q c #C287FF",
"w c #C387FF",
"e c #FFFFFE",
"r c #FFFEFF",
"t c white",
/* pixels */
"00000000000000000000000900000000000000000000000w0000000000000000",
"0000000000000000000000000000000000000000w00000000000000000000000",
"00000000000000000000700000000w000000w00000000000000000000w000w00",
"0000000000000000000000000w000000000000000w0000000000000000000000",
"0000000000w00000000000900000000000000w00000000000000000000070000",
"000000000w000000700000007000000000000000000000000000000090w00000",
"00000000007000000000000000000000007000w00000000000w0000000000000",
"0000000000000000000000000900000000000700000000000000000000000000",
"000000000w00000000000000000000000000000000007000000090w000000000",
"0000009000000000700000000000000000000000000000000000000700000000",
"00700w0000000000007000000000000w00007000900000000000000000000000",
"000000000000000000090000070000000000000700w000009000w90000000000",
"000000w000000000000000000000000900000000090000000000000000000000",
"000000000000w000000000000000000000900600000000000000000000000000",
"00000000700000000000w0000000000000000700000000000009000000009000",
"0000000000000000000000000008009000000000090000000700000000000000",
"000000000000000000w000000000000000000000090000700000000000070000",
"007000000000000000000000w0900000000070009w0009000000000000000000",
"00000000000w0w000000w000w000000079000000000000000000000000000000",
"0000000000000000900990000000000000000000000000000000000000w00000",
"00009000000900000w000007700000000w900090000000000000000000000007",
"0000000000000000090000000900000070700000070009000000000000070000",
"00000000000000000000000q00000000000000q70000008w0090000000000000",
"00000000000000000ww0070000w0070000000007709000070000000000000000",
"000000000000000000090007000w000990707070009700000000000000009000",
"0000009000000000007000900009000900000000000000700w00000000000000",
"0000000000070000000000000900o       00w0009000000000000000070000",
"00000000w00q00000w0000000000     X  w000000700000000000000000000",
"000000000000000007000w90000O44<><<<3  0w0009000w070000000w000007",
"000000000000000000w07009000 44<>,<<4  00w00909000000000000000000",
"00000000000000w0000000000. 445<<<1<444 0000900700000000000007007",
"0000000000000000000007090 .e44444445tt 7000790000000000009000000",
"00000000000000000w0w70000  t44444444ttO0000000000000700000000000",
"0000000000000000000000000  trttttttttt 000090606000000w000000000",
"0000000000000000097000089 Ot43ttettt44+00000ww000900090000000000",
"0w00090000000000900700000  t44tttttr54@00900000w00w000w000000000",
"0000000000000000070000000%%$@@@<1<<@@#=0000009000000000000000000",
"0090000000w07009009700000==@@@@2<<<@@@=00w00000000009w0000000000",
"0000000000w0000w0000ww0=======@<<<<#===;=70000700000000000000000",
"0000w00000000000090000=====-;=@3444@======;000090000000070000000",
"00000000000000000w0000=-===;-;@4454@===*===007090700000000000000",
"0000000000000000000000=;======@tete@======%90w000000000000000w00",
"000009000000w000000900===--====ettt%====:==0w0000000000000000000",
"00000009000w0000000000====%====tttt%=&=====008000000000700000000",
"0000000000000700909w000===%=-=%====-=====0000q790000000000000000",
"07000000000009000000070======*=-=;==%=-==00009709000000070000000",
"0000000000000000000900900====%=%=======0000009000000070000000000",
"0007000900000w000000000070000w000000060700ww00000000007000000000",
"0000000000000000000000000990000000070000000000w00000007000000000",
"0000090000000000000009w00000000000000000000000000000000000000070",
"00000000000000000000000000000000w0000w90000000000000009000000000",
"000000090000000900000000000000w000w000w00000000w0000000000000000",
"0000000900000070000000000000000000w00000000000900000009000000000",
"0000000000000000000000000000000000000700000700000007000700000000",
"0000000007000000090000900000900070000000000090000000000000000000",
"00w00000000000700000009000000000000700000009000000000000000w0000",
"0000000000000000000000000000000000000000000000000000000000000700",
"0000000000000000000000000000000000000000000000070000000900000000",
"000000007000000000000000000000000000000700000000000000000w000000",
"000000000000000000000070000000000000000w000900000000000000000000",
"0000000000000000000000009000w00000000000000000000009000700000000",
"000900009000000000000000000000000w00000000000w000000000000000000",
"00000000000090070000w0000000000000009000000000009000000000000000",
"0000000700w00000000000000000000000000w00000000000000000000000000"
};
