/* XPM */
static char *result[] = {
/* columns rows colors chars-per-pixel */
"64 64 39 1 ",
"  c black",
". c #010000",
"X c #000100",
"o c #000001",
"O c #000101",
"+ c #04244E",
"@ c #05244E",
"# c #04254E",
"$ c #05254E",
"% c #04244F",
"& c #04254F",
"* c #0478AA",
"= c #0478AB",
"- c #0578AB",
"; c #0479AB",
": c #0579AB",
"> c #30BAF8",
", c #30BAF9",
"< c #31BAF9",
"1 c #30BBF9",
"2 c #31BBF9",
"3 c #7BFAFE",
"4 c #7AFBFE",
"5 c #7BFBFE",
"6 c #7BFAFF",
"7 c #7BFBFF",
"8 c #C286FE",
"9 c #C386FE",
"0 c #C387FE",
"q c #C286FF",
"w c #C386FF",
"e c #C287FF",
"r c #C387FF",
"t c #FFFEFE",
"y c #FEFFFE",
"u c #FFFFFE",
"i c #FFFEFF",
"p c #FEFFFF",
"a c white",
/* pixels */
"wwwwwwwwwwwwwwwwwwwwwwwwwwwwwwwwwwwwwwwwwwwwqwwwwwwwwwwwwwwwwwww",
"wwwwwwwwwwwwwwwwwwwwwwwwwrwqwwwwwwwwwwwwwwwwwwwwwwwwwrwwwwwwwwww",
"wwwwwwwwwwwwwwww9wwwwwwwwwwqww9wwwwwwwwwwwwwwqww9wwqwwqwwwwwwwww",
"wwwwwwwwwwwwwwwwwwwqwwwwwwwwwwwwwwwwwwwwwwwww9wwwwwwwwwwwwwwwwww",
"wwwwwwwwwwwwwwwwwwwwwwwwwwwwwrwwwwwwwwwwwwwwwwwwwwwwwwwewwwwwwww",
"wwwwwwwwwwwwwwwwwwwwwwwwwwwwwrwwwwwwwwqwwwwwwqwwwwwwwqwwwwwwwwww",
"wwwwwwwwwwwwwwwwwwwwwwwwwwwwwwwwwwwwwwwwwwwwrwwwwqwwwwwwwwwwwwww",
"wwwwwwwww9wwwwwwwwwwwwwwwwqwwwwwwwwwww9wwwwwwwrwwwwwwwwwwwwwwwww",
"wwwwwwwwwwwwwwwwwwwwwwwwwwwwwwwwwwwwwwwwwwwwwwwwwwwwwwwwwwrwwwww",
"wwwwww9wwwwwwwwwwwwwwwwwwwwwwwwwwwwwwwwwwwwwwwwrw9qwwwwwwwwwwwww",
"wwwwwwwwwrwwwwwwwwwwwwwwwww9wwwwwwwwwwwwwwwwww9wwwwwwwwrqww9wwww",
"wwwwwwwwwwwwwwwwrwwwwwwwwwwqwwwwwwwwwwwwwwwwwwwwwwwwwwwwwwwwwwqw",
"wwwwwwwwwwwwwwwwwwwwwwwwwwwwwwwwww9wwwwqwwwwwwwwwwwwwwwwwwwwwwww",
"wwrwwwwwwrwwwwwwwwwwwwww0wwwwwwwwwwwwwwwwwwqwwwwwwwwwwwwwwwwwwww",
"wwwwwwwwwwwwwwwwwwwwwwwwwwwwwwwwwwwwwwwwwwwrwwrwwwwwwwwwwwwwwwww",
"wwwwwwwwwwwwwwwwwwwwwwwwwwwwrwwwwwwwwwwwwwwwwwwwwwwwwwwwwwwwwwww",
"wwwwwwwwwwwwwwwwwwwwwwwwwwwwwqwwwwwwwwwwrwwqwwwwwwwwrwwwwwwwwwww",
"wwwwwwwwwwwww9wwwwwwwwwrwwwqwwwwwwwwwo      wwwwwwwwwwwwwwwwwwww",
"wwwwww9wwwwwwwwwwwwwqw9w9wrwwwwwwwww 53,,,,, wrwwwwwwwwwwwwwwwww",
"wwwwwwwww9wwwwwwwwwwwwwwwwqwwwwww99r 45,,,,1 wrwwwwwwwwwwwwwwwww",
"wwwwwwwwwwqwwwwwwwwwwwwwwwwwrrwwwwww aa,,,,,,  9wwwwwwrwwwwwwwww",
"wwwwwwwwwwwwwwwwwwwwwwwwwrwwwwwwwrwwoaa,,,,,1. wwqwwwwrwwwqwwwww",
"wwww9rwwwwwwwwwww9wrwwwq9w8qwwwwww  apa35,,,, owwwwrwwwwwwww9www",
"wwwwwwwrwwqwwwwwwwwwrrwwrwwwwwwwqw  5iaataau5  wwwrwwwwwwwww9www",
"wwwwwwwwwwwwwwwwwwwrw9wrwwwwwwwwww  5aaapaaa5 Xwwwwwwwwwwwwwwwww",
"wwwwwwwwwwwwwwqwwwwwwww       Owwq###aaapaap5  wwwwwwwwwwwww9www",
"wwwwwwwwwwwqwwwwwwwww  <,>,,,55  www9&#,,##+&  qrwwwwwwwwwwwww9w",
"wwwwwwwwwwqw9wwwwwwww  ,,,,,<34  wwwr##><####XXwwwwwwwwwwwwwwwww",
"wwwwwwwwwqwwwwwwwwww ,><,,,,>aa54   9##35#qwww9wwwwwwwwwwwwwwwww",
"wwwwwwwwwwwwwwwwr9wwX,22,,,,1aa55 X w##55#wwqwwwwwwwwwwwwwwwwwww",
"wwwwwqwwwwwwwwwwww oi55,,,1,5ua555#@#     wwwwwwwwwwwwwwwqwwwwww",
"wwwwwwww9wwwwrwwwrX aaaaaaaauaa351paa55,,,   rwwwwwwwwwwwwqwwwww",
"wwwwwwwwwwwwwwwwww .aiuapaaaaaa55,aaa55,,1   qwwwwwwwwwwww9wwwww",
"wwwwwwwwwwwwwqwwww  aaapuyaapaa>,uaaa,,,,,,,, .9wwwwwwwwwwwwwwww",
"wwwwwwwwwwwwww9wqw##aaaua5aiiaa,,aaaa,,,,,1,7  wwwwwwwqwwwqwwwww",
"wwwwwwwwwwwwwwwwww##aaaai5aaaaa,,aaap,,>>,1,5  wwwwrwww9wwwwwwww",
"wwwwwwwqwwwwwrwwww#&5paaa1uaaaa##aaua75,,155a .wwwwwwwwww9wwwwww",
"wwwwwwwwwwwwwwwwww##5aaia,aaaaa##uaaa55,>,55a  rwww9wwwwwwwwwwww",
"wwwwwwwwwwwwwwwwwqrw############+aaaaaaiaiaau  wwwwwwqwwwwwwwwqw",
"wwwwwwwqwwwqwwwwwwwwwrw9w#,,#&#&#5aaiaaaaaaa5##wwwwrwwwwwwwwwwww",
"wwwwwwwwwwwqwwwwwwwwwqwww#,,#####5aaaaauaaaa3##wwwwwrwqwwwwwwwww",
"wwwwwwwwwwwwwwwwwwwqwqw9ww##<$#,,#55uaaaa555#9wwwwwwwwwwwwwwwwww",
"wwwwwwwwwwwwwwwwwqwww=====##5,,55#$#########qwwwwww9wwwwewwww9ww",
"wwqwwwwwwwwwwwwwwwwww==;==&#5,<54$+#########w9wwwwwwwwwwwrwwwwww",
"wwwwwwwww9w9wwwwwwww===*====a,,aa#,,6##=====www9wwwwqqwwwwwwwwqw",
"wwwwwwwwwwwwwwwwqqqw=*======p,,aa#,,5%#:*=;=ww9qwwwwwww9rwwwwwww",
"wwwwwwwwwwwwwwqwww9w*========*==;==*;=======wwwwwwwwwwww9wwwwwww",
"wwwwwwwwwwwwwwwwwwwwwww======*======-*====wwwrewwwwwwwwww9www9ww",
"wwwwwwwwwwwwwwwwwwwwwww=======;;====*=*-==rrw999wwwwwwwwwww9wwww",
"wwwwwwwwwwwwwwwwwrwwwwwwwwwwwwwwwwwwwwwwwwwwwwwwwwwwwwwwwwwwwrww",
"wwwrwwwwwrwwwqwww9rwwwwwwwww9wwqwwwwwwwwwwwwww9wwwwwwwwwwrwwwrww",
"wwwwwwwwrwwwwwwwwwwwwwqwwwqwwwwwwwwwwwwwwwwwwrwwwwwwwwwwwwwwwwww",
"wwwwwqwwwwqwwwwwwwwwwwqwwwrqwwwwwwwwrwwwwwwwww9wwwqwwwwwwwwwwwww",
"wwrwwwwwwwwwwwwwwwwwww9wwwqwwwrwwqwwwwwwwwwwwww9w9wwwwwwwwwwqwww",
"wwwwwwwwrww9wwwwwwwwwqwww9wwwwwqwwwwwwwwqwwwwwwqwwrqwwwwwwwwwwww",
"wwwwwwwwwwwwwwwwwwwwwwwwwwwwrwwww9wwwwwwwwwwwwwwwqwwwwwwwwwwwwww",
"wwwww9wwwwwwwwwwwwwqwwqwwwwwwrwwwwwwwwwwwwwwwwwwwwwwwwwwwwwwww9w",
"wwwwwwqwwrwwwwwrwwwwwwwwwwwwqw9wwwwwwwwwwwwww9wwwwwwww9wwwwwwwww",
"wwwwwwwwwwwwwewwwwwwwwwwwwwwwwwwwwwwwwwwwwwww9wwwwwwwww9wwwwwwww",
"wwww9wwwwwwwwwwwwwwwwwwwwwwwwwwwwqwwwwwwwwwwwwwwwwwwwwwwwwwwwwww",
"wwwwwwwwwwwwwwwwwwwwwwwwwwwwwwwrwwwwqwwwwwwwwwwwwwwwwwrwwwwwwwww",
"wwwwwwwqwwwwwwwwwwwwwww9wwwwwwwwwwqwwwwwwwwwwwwwwwwwwwwwwwwwwwww",
"wwwwwwwwwwwwwwwwrwwwwwwwwwwwwwwwwwwwwwwwwwwwwwwwwwwwwwwwwwwwwwww",
"wwwwwwwwwqwwwwwwwwwwwrwwwwwwwwwwwwwwwwwwwwwwwwwwwwwwwqwwwwwwwwww"
};
