/* XPM */
static char *result[] = {
/* columns rows colors chars-per-pixel */
"64 64 35 1 ",
"  c black",
". c #010000",
"X c #000100",
"o c #000001",
"O c #04244E",
"+ c #04254E",
"@ c #05254E",
"# c #04254F",
"$ c #05254F",
"% c #0478AA",
"& c #0578AA",
"* c #0479AA",
"= c #0478AB",
"- c #0578AB",
"; c #0479AB",
": c #30BAF8",
"> c #31BAF8",
", c #30BAF9",
"< c #31BAF9",
"1 c #30BBF9",
"2 c #7AFBFE",
"3 c #7BFBFE",
"4 c #7BFBFF",
"5 c #C286FE",
"6 c #C386FE",
"7 c #C387FE",
"8 c #C286FF",
"9 c #C386FF",
"0 c #C287FF",
"q c #C387FF",
"w c #FFFFFE",
"e c #FEFEFF",
"r c #FFFEFF",
"t c #FEFFFF",
"y c white",
/* pixels */
"99999999899999999q9999999999999999999999999q999999q9999999999999",
"999999969999999999999969999999999999q999999999999999999999999899",
"9999999q99999996999999999999999999999999999989999999999999999999",
"999999999999q999969999999999999999999999999999999999999999q99999",
"9999999999999999999999999999999699999999999999999999999999999999",
"99999999999999999999989989696999999999999999999999q9999969999999",
"99999999969999999999999998999999999q9999999999999996999999999996",
"99999999999999q9999999989999999999999699999999999969q99999q99999",
"999999999999999q9999999699999999999999999999999699999999999999q9",
"99999q999999999999q99999999999999999999999996999999999999q999999",
"9999996999999999996999999999999999999999996999999999999996999999",
"99999999999999999999999989999999999q86999999989999999q9999999999",
"9999999999999999999999999999999999999999999999996999999999999999",
"99999669999999999999999999q9999999999996999999999999999999999999",
"9899999999999q99999999999999q99999999999999999999899999999999999",
"9999999999999699999999999999999999999q999q9999999999999999999999",
"9999999999999999999999999999999q99999999999999999999999999q69999",
"999999999999999999999989999998q999q999999q999999999999999999q999",
"999q9999999999999q9999989999999968  .99899996998q999999999999999",
"9999999999999999998999999999999999  .9999999q9969999999999999999",
"99999999999989999999999q     999  3,,X q999999999999899999999999",
"999998999999999996999q89    o999  3,,X 99q9999999989999999999999",
"69999999999999q99999999o1,,,,o  ,,,,,:,X999999998999999999999999",
"99999999998899999999999 ,::,,   ,,<,,,, 9998969999999q9999999999",
"98999999999999999998999 ,11,,   ,,1,,,<.989969999999999999999999",
"99699999999999999q9989q ,,<,< X 3432342 q9999999q999999999999999",
"999999999989q9999989996 33333++ yyyywyy+999999999999999999999999",
"99q99999996999999999998 32333++ yyyyyry+899999999999999999999996",
"99699999999999999899999+ryywy++@+@+:1+++959999999999999699999999",
"q9999999999999999999999+yyyyw++++++<,+++899999q89999999999999699",
"9999999999999999999969q+++,O+++999+,1++9999999699999999q99999999",
"999999999996999999969999++,++8q999+33@+999899999999999999999q999",
"99999999999999999999q699++,+Oq9999+32++9699999q99999999999999989",
"99989999999999999999q996++3++96q99+yy#O9909999999999999999999999",
"99999999999999999999999999+ty++9#+y++99999899999999999999q99q999",
"99996999999999998999999999+yy++8+#y++q969999969999q9999998999999",
"99999998999999999998999999+yw++9#+t++699999999999999999999999999",
"999999999999989999qq999969+ry++9O+y++999998999999699999999699999",
"99999999999999999999999599+yy+O9++y$+99999699q999q99999998999999",
"99999999999999996699999yq8+yyO++wy+9qq99998999999999999999999999",
"999q9999999999999999998y99+yr+#+yy+99999999899999699999999999999",
"9999999999679999q999999999@yy+++yr+99yy6899ry9999999998999999999",
"999999999998999999y99-;-==+yy@++yy@=====699999099999999999999999",
"999999969999999999r99=====+yy++Owy+;*==&999988999999999999699999",
"q999999969999999999=;333;=+reO+#,,+%;yy3==,999699999999969999999",
"999999q9999q9999999==433==+ty+O+,,+==yr3==,99989999q999999999999",
"999999999999999q699;=333==+33++%>:===,,t%=9999899999999q99969999",
"999999999999999999899%==;==,,===-=====%=9999899999999999999999q9",
"999999999999999999989==;=;=,,===%-======998099989999q99999999999",
"999999999999999q999996999999999999999999999999969966999999999999",
"99999999999999999999999999999999969999999999q9999999996969999599",
"999q9999999969999999999999999999699q9999969999999999999999999999",
"9699999999999999999998998999999996999899999999999999699999999999",
"9999999999999999999999999999999999999999999999999699999999999899",
"9999999999999699999999999999999999999999999999999999999996q99999",
"9999999999q99999999999999999999999999999999998999999996999999999",
"999999999999999999999699999999999999999999q999999999999699999999",
"999999999999999969909999999qq99999999999999999q99999999999999999",
"999999999999999999q999999989999999999999999989999999999999999999",
"99999999999999999q99999999999q99999999999999999999999999999q9999",
"999999999999999999999q999999999999999999q99999999999999999999999",
"9999999999999999999q99999999999999999999999999699999999q99999999",
"99999q99999999999999999999999999999999q9969999999999999999999999",
"9999999999999999999999999999999998999999999999999999999969999999"
};
