/* XPM */
static char *result[] = {
/* columns rows colors chars-per-pixel */
"64 64 40 1 ",
"  c black",
". c #010000",
"X c #000100",
"o c #000001",
"O c #010001",
"+ c #000101",
"@ c #04244E",
"# c #05244E",
"$ c #04254E",
"% c #05254E",
"& c #04244F",
"* c #04254F",
"= c #0478AA",
"- c #0578AA",
"; c #0479AA",
": c #0478AB",
"> c #0578AB",
", c #0479AB",
"< c #30BAF8",
"1 c #30BAF9",
"2 c #31BAF9",
"3 c #30BBF9",
"4 c #7BFAFE",
"5 c #7AFBFE",
"6 c #7BFBFE",
"7 c #7BFAFF",
"8 c #7BFBFF",
"9 c #C286FE",
"0 c #C386FE",
"q c #C287FE",
"w c #C387FE",
"e c #C286FF",
"r c #C386FF",
"t c #C287FF",
"y c #C387FF",
"u c #FEFFFE",
"i c #FFFFFE",
"p c #FFFEFF",
"a c #FEFFFF",
"s c white",
/* pixels */
"rrrrrrrrrrrrrrrrrrrrrrrrrrrrrrrrrrrrrrrrrrrrrrrrrrrrrrrrrrrrrrrr",
"rrrrrrrrrrrrrrrrrrrrrrrrrrrrrrrrrrrrrrrrrrrrrrrrrrerrrrrrrrrrrrr",
"rrrrrrerrrryrrrrrrrrrrryrrrrrrrrrrrrrrrrrrrrrrrrrrrrrrrrrerrrrrr",
"rrrrrrrrrrrrrrrrerrrrrrrrrrrrrrrrrrrrerrrrrrrrrrrrrrrrrr0rrrrrrr",
"rrrrrrrrrrrrrrrrrrrrrr0rrrrrrrrrrrrrrrrrrrrrrrrrrrrrrrrrrrrrrrrr",
"rrrrrrr0rrrrrrrrrrrrrrrrrrrrrrrerrrrrrrrrrrrrrrrre0rerrrrrrrrrrr",
"rrrrryrrrrrrrrrrrrrrrrr0rrrrr0rrrrr0rrrrrrrrrrrrrrrrrrrr0rrrrrre",
"rrrrrrrrrrr9rrrrrrrrrrrrrrrrrrrrrrrrrrrrrrrrrrrrrrrrrrrrrrrrrrrr",
"rrrrrrrrrrrrrrrrrrerrrrrrrrrrrrrrrrrrrrrrrrrrrrrrrrrerrrrrrrrrrr",
"rrrrrrrrrrrrrrrrrrrerrrrrrrrrrrrrrrrrrerrrrrrrrryrrrrrrrrrrrrrrr",
"rrrrrrrrrrrreeyrrrryrrrrrrrrerrrrrrrrrrerrrrrrrrrrrrrrrrrrrrrrer",
"rrr0rrrrrerrrrrrrrerrrrrrerrrrrrrrrrryyrrrrrr0rrrrrrrrrrrrrrryrr",
"rrrrrrrrerrrrrrrrrrrrrrererrrrrrrrrrrrrrrrrrrrrrrrrrrrryrrerrrrr",
"rryrrrrrryrrrrrrrrrrrrrrrrrrrrrrrrrrrrrrrrrrrrrrrrrrrrrrrrrrryre",
"rrryrrrryrrrrrrrrrrrrrryrrrrrrerrrrrrrrrrrrrrerrrrrrrrrrrrrrrrrr",
"rrrrrrrrrrrrrrrrrrrrrrrr0rrrryrerrrrrrrrrrrrrrrrrrrrrrrrrrrrrrrr",
"rrrrrrrrrrrrrrrrrrrrrrrrrrrrrrrrrrrrrrrryrrrrrrrrrrrrrrrrrrrrryr",
"rrrrrrrrrrrrrrrrryyrrrrrryrrrrrrrerrrrr0rerrrrrerr0rrrrrrrrrrrrr",
"rrrr0rrrrrryrrrrrrrrrrrrrerrrrrrrrrrrrrrrryrrrryrrrrrrrrryrrrrrr",
"rrrrrrrrrrrrrerrrrry0rrrrrrr0rrrrrrrwrrrrrryrrrrrrrrrryerrrrrrrr",
"rrrrrrrrrrrrrrrrrrrryrrrryrerrrrrrrrr9rrr0r0rrrrrrrrrrrrryrrrrrr",
"rrrrrrrrrrrrrrryyrrryrrrrr0ryrrrryrrrr0yrrreerrrrrrrrrrrrrrrrerr",
"rrrrrryrrrrrrrrrrr0rer0rrrrrrerrrrrryrrrrrrtrr9rrrrrrrrrrrrrrrrr",
"rrrrr0ryryr0rrrrrrrrrrrrr .  0ryrrrrr    rryrrrrrrrrrrrrrrrrrrrr",
"rrrrrrrrrryrrrrrerrryrr0y o  rrrrrrrr.   0trrrerrrrrrrr0rrrerrrr",
"rrrrrrrrrryrrrrrrryrrrrr pi64 rrryr  6134  trrerrrrrrrrrrrrrrrrr",
"rrrrr0rrrrrrrrrr00rrr    1111$0rrrr$$usss$*rrrryrrrrrrrrrrrrrrrr",
"rrrrrrrrrrrrrrrrrrrrr    111<$rrrrr@$asss*$r0yeerrrrrrrrrrr0rrry",
"rrrrrrrerrrrrrrryrr  111.  ss$::r00%$#1<&*%rrw0wrrrrrrrerrrrrerr",
"rrrrrerrrrrrrrrrrrr  111 X ss$::rry$$$11$$*rrrrrrrrrrryrrrrrrrrr",
"rrrrrrrrrrrrrrrry  661214  :>:::rrr:=$65$::rrrrrr0rrr0rrrrrrrrrr",
"rrryrrrrrrrerrrrr$@ssssss$@rrrreryr>:::=-::rrrrrrrrrrrrrrryrrrrr",
"rrrrrrrrrrrrrrrrr$$ssssis$$rrrryr0r:,:::=::r0rrrrrrrrrrrrrrrrrrr",
"rrrerrerrrrrrrr0r-;$$111$::rrrrrye00rrrrerrryryyrrrrrrrrrrrryrrr",
"rrrrrrrrrrrrrrrrr-:::::::::rrr      Oyrryr0rrrrrrryrrrrryrrrrrrr",
"rrrrr0rrrrrrrryrr:=::::::-:rrr +     errrrrrrrrrrrrrrrrrrrrrrrrr",
"rrrrrrrrrrrrrrrrrrerryqerrrrr 1111111 rrrerrrer0ryrerrrr0rrrrrrr",
"rrrrrr0rr0rrrr0rrrryrrerrrrry 1113111 yrr0yryryrrr0rrrrrrrrrrrrr",
"rrrrrrrrrrrryrrrerrrrrrrrre. 611111216 .rrrrrr0rrrrrrrrrrrrrrr0r",
"r0rrrrrrrerrrryrr0rrrrrrrrr  s6666666s Xrrrryrr0rrrrrrrrrrrrrrrr",
"rrrrrrrrrrrrrrrrtrrr0rrrrrro s6867666s  0yrrrrrryrrrrrryrerrrrrr",
"rrrrrrrrrrrrtrrrrrrrrrrrerr*$sssssisss$$rrrrrrrrrryrrrrrrrr0rrrr",
"rrrrrrrrrrrrrrrrrrrrrrrrrrr$@$$$111$$$$$0rr0errrerrrrrrrrrrrrrrr",
"rrrrrrrrrrrrrrrrrryrrreyryr*$$%$111*$$$$0rrrrrrerrrrrrrryrrrrrrr",
"rrrrrrrrrrrrrrrrrrrr00rrrrryr>$$sss$$,ryrrrrryrrrrrrrrrrryrrrrrr",
"rrrrrrrryrrrrrrrre0rr0rrrrrrr,$$ssa*$:r0rrrrrrrrrrrrrrrrrrrrrrrr",
"rrrrrrrrrrryerrererrwrr0rrrrr::::;>,::rrrrrrrrrrrrrrrerrrrrrrrrr",
"rrrrrrrrrryrrrrrrrrrryrerrrrrrrrrrryrerrryrrrrrrrrrryrrrrrrrryrr",
"rrrrrrrrrrrrrrrrrrrrrrrrrrrr0rrrrrrrrrr0rrrrrryrr0rrrrrrrrrrrrrr",
"rrerrrrrrrrrrrrrrrrrrrrrrrrr0rrrrrrrryrrrrrrrrr0rrrrrrryrrrrrrrr",
"rrrrrrrrrrrrrrrrryrryrrrrrrrrrrrrrryrrrrrrrrrrrr0rrrrrrrrer0rrrr",
"rrrrrrrrrrrrrrrrrrrrrrrrrrrrrrryrrrrrrr0rrrrrrrrrrrrrrryrrrrrrrr",
"rrrrrrrr0rerrrr0rrrrrrrrrryrrrrrrrrrrryrrrrrryrrrrrrrrrrrrrrrrrr",
"rrrrrrrrrr0rrrrrrrrrrrrrrrrrrrrrrrrrrrrrrrrrrrrrrrrrrrrrrrrrrrrr",
"rrrrrrrrrrrrrrrrrrrrrrrrrrrrerrrrrrrrrrrr0rrrrrrrrrrrrrrrrrrrrrr",
"rrrrrr0rrrrrrrrrr0rrrrrrrrrrrrrrrrrrrrrrryrrryrrrrrrrrr0rerrrrrr",
"rrrrrrrrrrrrrrrrrrr0rrrrrrrrrrrrrrrrrrrrrerrrrryryrrrrrrrrrr0rrr",
"rrrrrrrrrrrrrryrr0rr0rrrrrerrryrrrrrrrrrrrrrrrrrrrrrrrrrrrrerrrr",
"rrrrrrrrrrrrryrrrrrrrrrrrrrrrrrrrrrrrrrrrrrrrrrrrrrrrrrrrrrrrrrr",
"rrrrrrrrrrrrrrrrerrrryrrrrrrrrrrrrrrrrrr0rrrrrrrrrrrrr0ryrrrrrrr",
"rrrrrrrrryrrryrrrrrryrrrrrrrrrrrrrrrrrrrrrer0r0rrrrrrrrrrrrrrrrr",
"rrrrrerrrrrrrrrrrrrrrrrrrrrrrrrrrrryrrrrrrrrrrrrrrrryrrrrrrr0rrr",
"rrrrerrrrrrrrrrrrrrrrrrrrrrrrrrrrreyrrrrrrrrrrrrrrrrerrrrrrrrrer",
"rrrrrrrrrrrrrrrrrrrrrrrrrrrrrrrrrrrrrrrrrrrrrrrrrrrrrrrrrrrrrrrr"
};
