/* XPM */
static char *result[] = {
/* columns rows colors chars-per-pixel */
"64 64 31 1 ",
"  c black",
". c #010000",
"X c #000100",
"o c #010100",
"O c #000001",
"+ c #010001",
"@ c #000101",
"# c #4782C8",
"$ c #4682C9",
"% c #4782C9",
"& c #4683C9",
"* c #4783C9",
"= c #C286FE",
"- c #C386FE",
"; c #C287FE",
": c #C387FE",
"> c #C286FF",
", c #C386FF",
"< c #C287FF",
"1 c #C387FF",
"2 c #BCC0C8",
"3 c #BDC0C8",
"4 c #BCC0C9",
"5 c #BDC0C9",
"6 c #BDC1C9",
"7 c #FEFFFE",
"8 c #FFFFFE",
"9 c #FEFEFF",
"0 c #FFFEFF",
"q c #FEFFFF",
"w c white",
/* pixels */
",,,,,,,11,,,,,1>,,,,,,,,,,,,1,>,,,,,,,,,,,,,,,,,,,,>,,,,-,,,-,,,",
",,,,,,,,,,,,,,,,,,,,,,,,   O           X   ,->,,1,,,,,,,,,,,,,,,",
",,,,,,,,,,1,,-,,,,,,,,,,        O      .   ,,,,,,,,,,,,,-,,,,,1,",
",,,,,,,,,,,,,,,,,,>,    w7wwwwwwwqwwww0wwwwXXX ,,,,,,,,,,,,,,,,,",
"-,,,,,,,,,,,,,,,,,,, O  www0wwwwwwwwwwwwwww    >,,,,,-,-,,,,,,,1",
",,,,,,,,,,,,,,,,,,  wwwwwwwwwwwwwwwwwwwwwww8ww0 X,,,,,,,,,,,1>,,",
",,,,,,,1,,,,,,,,,>  wwwwwwwwwwwwwwww8wwwwwwwwww  ,,,,,,>,,,,,,-,",
",,-,-,,,1,,,,1,,,,  ww8wwwwwwwwwwwww0wwwqwwwwww  ,,,,,>,,,,,,,,,",
",,,,,,,,,,,,,,,,,,  wwwwwwwwwwwwwwwwww8wwww0qww  ,>,,,,,-,,,,>,,",
",,,,-,,,,,,,,>,   w0ww0qw0ww0wwwwwwwwww0wwqwww0ww  ,,,,,,,,1,,,,",
",,,,,,,,,,,,,,,  .wwwwwwwwwwwqwqwwwwwwwwwww8wwwww O,,,,,,-,,,,1,",
",,,,,>,,,>,,,,-   ww8www8wwwwwwwwqww     O wwwwww  ,,,,,,>,,,,,,",
",,,,,,,,,,,,,,-   wwwwww8wwwwwwwwwww  O    qwqwww  ,,,,-,,,,,,-,",
">,,,,,,,,,,,,,,   www0www0www0wqww0w  O  X wwww0w  ,,,,,,,,,>=,-",
",,,,,,,1>,,,,,,   wwwwwwwww9wqwww8ww  X    wwwwwq  >,,,,,,,,-,,,",
",,,,,,,,-,,,,1,     wwwwwwww7wwwwww8O    . 0www    ,,,,,,,,,,,,,",
",,,-,,,,,,,,,>,     w08wwwwwwwwwwwww       wwww    ,,,1,,>,,>,,,",
",,,,,,,,,,1,,1,,,,    wwww    wwwwwwwwwwwwwwq    ->1,,,,,,,,,,,,",
",,,,,,-,,-,,,,,,,,    8wwq .  wwwwqwwwwwwwww0    ,,,,,,,,,,,-,,,",
",,,,,,,,,,,,,,-,>,  ww  . wwwwww  8wwwwwwwwwwww9w  ,,,,>>,1,,>,,",
",,,,,,,,,,,,,,,,,,  ww   Owwwwww  wwwwww8wwwwwwww  ,1,,,,,-,,,>,",
",,,,,,,,,,,,,,,,,,  0w8wO wwww .OO  .O            .,,,,,1,,,,,,,",
",,,,,1,<,,,,,-,,,,X wwww  wwww    .   OO   .      O,,,,,,,,,,1,,",
",,,,,,,,,,-,,,,,,,  wwww  wwww  X     .           O,,1,,,,,,,,,,",
",,,,,,,,,,,,,,,,,,,,  wq  wwq0wwww  ww .www. qw X  ,,,1,,,,,,,,,",
",,,,,,,1,,>,,,,>,,,,  w0  8wwwwwww  wwO www  w0O   ,,,,,,,,>,1,,",
">,,,,,,,,-,,,,1,,,,1  O     wwwwwwww      X      ,,-,,,,,,,-1,,,",
",,-,,,-,,,,,,,,>,,1,        wwwqwwqw       X     ,,,1,,,,-:,,,1,",
",,,,,,,,>,,-,,-,,,. 555555 O  wwwwwq0w0wwwwwwww  ,,,1,11,,,,,,,,",
",,,<,,,,,,,,,,>,,,  555555X   wwwwwwwwqwwwwwwww  ,1,,,,,1,,,-,,,",
"1,,,,,,,,,,,,,, X 555555555355   X       .       ,,,,,,,>-,,,,,,",
",,>,,,1>,,,-,,,   355565555455        X          ,,,,,,,,,,,,,-,",
",,,>-,,-,,,,1,,             555555    ww O   ,,,,,,,,,,,,,,,,,,,",
",,,-,,1,,,,,,,,             535255    ww    X,,,,,,=,,1-,1,,>,,,",
",,,,,,,,,,,1,,,,,,    %%%%%#   .5555     .O54  ,,,,,,1,,,,,,,,,,",
",,,<,,,,,,,>,,,,,,    %&%%%*X   5555  ..X  55  ,,,,,-,,,,,,,,,,,",
">,,>,,,,,,,,,,,,,,  %%%%%#%%*%.   56  qwwww .  ,,,,>,,,,,,,,,,,>",
",,,,-,,,,,,,,,>,,,  %%%%%$%%#%.O  45  www0w    ,,,,,,,,,,-,,,,,,",
",,,,,,,,,-,,,,,   %%%%%%%%%# X%%%%      ww8 .  1,,,,,,,,,=>,,,;,",
",,,,,,-,,,,,,,,   %%*%%%%%%%  %$%%      ww0   +,,,,,>,,,,,,,,,,,",
",,,,,,,,,,,1,,,   %%%%%%%%  *%  %%  w0wwwww    ,,,>,,,,,--,,,,,,",
",,,,,,,,,,,,,,>  O%%%%%%%%  %%  %%  wwwwwww .  ,,,>,,,,>,,,,>,,,",
",,,,,,,,,,,,,,,   *%%%%%%%#%%%  %% .        o  ,1,1,,,,,,,,,-,,,",
",,,,,,1,,,,1,,1  O%%%%%%%%%%%%  %%             --,,,,,,,-,,,,,,1",
",,,>,-,,,,,-,,:1,-  %%$%%%$%%#  %%  0www     X ,,,,1,,,,-,,,,,,,",
",,,,,,,-,,,,,,,>,,  %%%*%%%%%% X%% Xqwww       ,,,,,,,,,,,,,,,,,",
",,,,>-,,,,-,,,,,,,1,      X   %%%#     .     11,,,,,:1,,,,,>,,,,",
"-,,,,,,,,,,,-,,,,,,>X   .     %%%%   O  +  O ,,,,-,,,,,,,,,1,,,,",
",>,,>,1,,,,,,>,,,,,,  O       %%%%       O   ,,:,,,,,,,,,,,:,,,,",
"-,,,,-,,,,,,,,,,,,,,X.%%%%%%%%%%           . ,1,,,,,-,,,,,,,,>,,",
",,,,,,,,,,,,-,1,,,,,O %%%%%%%%%*            X,,,,-,>>,1,,,,,,,>,",
",,,,,,1,,,,,,,,,,,,,-,O.    X Xo        OX ,1,,,,,,,,,,1,,1,,,,,",
">,,,,,-,,-,,,,-1,,--,,   X  @           .  ,,1,,,-,,,,-,,,,11,-,",
",,,,,,,,,,,,,>,,,,,,,,,,            .  OO  ,,,,,,,,,,,,-,>,,,,,>",
",,,>,1,-,,,,,,1,,,1,,,,, OX         X      ,,,,,,:,,,,,,,,1,,,,,",
",,1,,>,,,,,,,1,,-,,,,,,,,,,,          O    ,>,,,,,,,<,,,,>,,,-,,",
",,-,,,,,,,,,,,,,,1>,,>,-,,,, X    X  .    X,,,,,,,,,,,,,,,,,,,>,",
"1,,,,,,,-,,,,,,,,,,,,,,--,  wwwqwww8ww     X ,,,,,,,,,,,,,,,,,,,",
",,,,-,,;,<,,,,,,,,,,,,,--, Xwww0wwwwww.      ,,,,,,,,,,,,,,,,,,,",
",,,,,,,-,,,,-,,,,,,,,,1,-,        wwww8wwww  ,,,,>,,,,,,,,,,1,,,",
",,,,,,,,,-,,,,,,,,,,,-,,,,.    .O wwwwwwwww X,,,,1,,,,,,,,,,,,,,",
",,-,>,,,,,,,,-,,,,-,,,,,,>,,-,,,   O       ,1,-,>,,1,,>,,-,,,,,,",
",,,,,,,,1,,,,-,,,,,,,>1>,,,,,,,,  @        ,1,>,,,,,,,,,,,,,-,,,",
",,,,,,,,,,,,,,,,>,,,,,,,,,,-,,>,,,,,,,,,,,,1,1,,,,,,>,,,,,:,,1,,"
};
