/* XPM */
static char *result[] = {
/* columns rows colors chars-per-pixel */
"64 64 28 1 ",
"  c black",
". c #010000",
"X c #000100",
"o c #010100",
"O c #000001",
"+ c #010001",
"@ c #000101",
"# c #4782C8",
"$ c #4682C9",
"% c #4782C9",
"& c #4783C9",
"* c #C286FE",
"= c #C386FE",
"- c #C387FE",
"; c #C286FF",
": c #C386FF",
"> c #C287FF",
", c #C387FF",
"< c #BDC0C8",
"1 c #BCC0C9",
"2 c #BDC0C9",
"3 c #BDC1C9",
"4 c #FFFEFE",
"5 c #FEFFFE",
"6 c #FFFFFE",
"7 c #FFFEFF",
"8 c #FEFFFF",
"9 c white",
/* pixels */
"::=:::,,::,,:=::::::::::=:;,:::,:=:::::;:>::=:,::::::::::::;::=:",
"::::::::::=::::,:::=,:::  X  O  .      X O ::::::::::=:,::::;:::",
":::,:;:::::::,::::::;:::       . .       + :::::::=,=::;::::::::",
"::::=:::::::::=:::::.   5999999699999999999    *::::::,::,::::::",
"=:::::-;:::;:::::;::    9996989999999999999O   ::::::::::::::,::",
":::;:::::,:::;::,:  969999999999989999999589998 .:::::,:::;:::::",
"::,::,:::=::::::::  999996998999899999999999999  =,;::::::::::::",
"::::::::,::::=::::  996999999699979999999979999 .::::::::::,;:::",
">::::;:,::::;::,::  999999999999996999999799999  :::::,:::::::::",
"::::::::::::::: . 9689969999999969999999999999999 X:::::::::::::",
":::::::,:::::::   7999999899999697999999999999999  :::::::::::::",
":-=,:::::::::::   999869999969999999       989999  :::::::::::::",
"::::::::=::=::: . 999999999999999999 .     999999  :,::::=:::=,:",
",:::::::,::::;:   999999999999999999       999999  :::::::::::::",
"::::::::::::,::   999999698999999999      @999999  :::::::;,:;:=",
":::::::::::::::   O 9989999799999999 O     9999    :::,;:,::::;;",
":;:=:::::=:;:::     9699899799696999   .   9999    ;::,=::::::::",
":::::,::::::::::::    9999    979899999999999    :::::::::=::;:,",
"::::::=:::=:::::::X  .6999   .998999999979999 X X:::;:::::::::::",
"-::::::::::::::;::  99    999799  999999999999799 .:::::::::::,,",
";,::::::::::,:=:::  99    999989  999999999969999  ;:::::::::;::",
"::,::::>:=::::::::  9999  9999.   X         OX O   :=:::::::::::",
";:;::,::::::::::;:  9999  9999      O     O  X     ::::::=:::=::",
"*:::::=:::::=:::::  9999X 9999                     ,::::::::::=:",
":::::::::=:,::,=:=::X 99  99998899  99  999  99    ::::::=::::,:",
"::::::::::=:::::::::  99  99799999  99XO989  79  X =::::::;:,:::",
"*:::::;:::::::::,:=:  X X.  99999999             :::::::::::::::",
":=::=::=:;::::=:::::        99989979    . X   X X::::=:::;::::::",
":;::::::::::::::::  22<122    69999999999999999 X:::=:::::::::::",
"::,:;:::::::;:::;:  122222    99999999999999999  :::=;::::,:::::",
"::;:::,::::::::   222222222222  O        O. O    ::::::;,::=::::",
",::::::::,:,:::   222222222<22      X            :,::::::;::=;;:",
"::::=-,::::=,::      X.     222222    99     ,::;:::::=::::::::=",
"::::::=:::::::: X         .X222222    99     ::=:::::::=::::::::",
",::=::::::::::::::    $%%%%%    2222  .   X22  :::::::::,,::::::",
"::=:::::::::::::::    %%%$%%    2222       22  :;:::::::::::::=;",
"::;;:,:::::::,:::;  %%%%%%&%%% X  22O 99849 . .:::::::::::::::::",
":::::::::::::::::;  %%%%%%%%%%  . 22  99979    :=::;:::::::;::::",
":::::::::::::::   $%%%%%%%&%  %&%#     X999    :::::::::::::::::",
"::::::,::::::::   %%%%%%%%%%  %%%%      699.   :,:::::::::::,::;",
":::,:::::::::::   %&%%%%%%O %%  $$  9999999    :::::::::::::::::",
"=::::::::::,:::   %%%%%%&%  %%  %%  9994999    ::::::::=::::::::",
";:::,::::::::::.  $%%%%%%%%%%%  %&    .    O @X:::::::=:::;:::::",
"::::::::::::;::   %%%%%%%%&%%%  %% X     O     :::::::::::::::::",
"::::=::::::::::,=:  %%#%%%%%%%  %%  9997     :=:::::::::;:::::::",
":::::::::;:==:::::  %%%%%%&%%%  #%  9999     ::,:::::;::::,:::=:",
">::::::::::,::::=:::      .   %%%&      .    :::*,::::::::::::::",
",::::::::::::::::::: X       X%%%%           ::::,,::::::::::,::",
"::>::;::::,:::::::::  O   X   %%%%      @    ::::::::::::::::::,",
"=::::::;:::;,:::::::  %%%%%%#%%% o               :;::::::::::::,",
":*::::::,::::::;::::. %%%#%%%%%%          .  .   :::::::::::::::",
"::=::::::::::=;=:::;                O     .9999  :::::::::::::::",
"::::::::==:::;::::::X           XO         9999  :::::::::::::::",
"::::::::::::::::;=::  2<22            O 9999999  :::::::::::::::",
":::=:::::::,:::;::::  2223  .X   .      9999999  :::::::;:::::::",
"::::::::::::::::=;::  2222 O O::::    99996    :::::::::::::::,:",
"::=::,::::::::=:::::  2222    ::::    99996    :>:::,:::::::::::",
":::::::,:::,=::::::::=    22<2  :;  9998   ::::::::::=::::::::::",
"=:::::=:;:::::::::::::   X<222  ::  6999. +:::::::::::::::::::::",
"::::::::::::::::=:::::::   X..X ::::    ::::::,::::::::::::::::=",
"::::::::::::::::::::::::        :::;  . :::::::,::::::::::,:::::",
",:::::::::::::::::;:,;:::::::::::::::::::::::::,::::::::::::::=:",
"::::::::::;:::::::,::::::::::::::::::::::::::::::;:::::>::;:::::",
":::::==:,:::::=:::::::::,::>::::::::-:::::::=::::::;::;=:=:::;::"
};
