/* XPM */
static char *result[] = {
/* columns rows colors chars-per-pixel */
"64 64 27 1 ",
"  c black",
". c #010000",
"X c #000100",
"o c #010100",
"O c #000001",
"+ c #000101",
"@ c #010101",
"# c #4782C8",
"$ c #4682C9",
"% c #4782C9",
"& c #4783C9",
"* c #C286FE",
"= c #C386FE",
"- c #C387FE",
"; c #C286FF",
": c #C386FF",
"> c #C287FF",
", c #C387FF",
"< c #BDC0C8",
"1 c #BCC0C9",
"2 c #BDC0C9",
"3 c #BDC1C9",
"4 c #FEFFFE",
"5 c #FFFFFE",
"6 c #FFFEFF",
"7 c #FEFFFF",
"8 c white",
/* pixels */
":::::::::::::::::::;::::=,:::::::::::::;:::::::::::::::,::::::::",
":=:::,:::::::::::::::,::O  O   O           ::::::::::::=::::::::",
"::;::=::::::::::::::,:::          O        :;:::,:::::::::::::::",
":::::::::::::::::;::    8878888888888888888    :::=:,::::=::::::",
"::,;=::::::,::::::::OO  8886888888888868888    ::::::::::,::::::",
"::::=-=::,:::=::;:  888878888888878888888888888 X::::::;:=::::::",
"::::::::::::::,:::  888888866888868888888888888  ::::::::=::::::",
"::::,:::::,::::::*  888888886888888788668888868  ::,,:;:=::::=::",
":::::::,::::::::::  678788888888868868877888888  ::::::;::::::::",
":::::;:::::::::   8888788888888888888788888888888  =::::::::::::",
":::::::=::;::::   8888888886888888888788878768887 .::::::::::;::",
"::=:::=:::::::=   688878758888888888  O    688888 .:::,:::,:::,:",
"::::,::=::::::,   888888888888855888 X     868888  ::::,:;::::::",
"::::::::::::::;   588888888888888887       888888  :;::,::::::::",
":::::::::::=::: O 888588888888888888       888788  :=:::::::::::",
":::::::::::::-:O    8888888888888888    O  8888 OO :::::::;:::::",
":::::::::=;::::.    8868888888888888  O O  8887    :::,:::::::=:",
":,:::::::::>,:=::: OO 8888  X 888885888887785 .  ::::::::,::::::",
"::::::=::::::,::::    8888    888888888888788 X  :::::::;::::;::",
":::::::::::=:::::: X88    888888  888868688888888  ;::::::::::::",
"::::::::=::::::=::  87    878888  886888888565888  ::::;::::,:::",
"::,:::::::==::::::O 8878  8888  X   O ..         O ::;::::::::::",
":::::::::::::;::::. 8788  5888X                    ,::::::::::::",
":::::::=:::::,:=::X 7888  8887               O     ::::;,:::::::",
";:::::::::,:::::::::O 88  88888887  88  886  88.   :::::::::::::",
":;:::::::::=:=:::::: X88  88888888 O88  888  88   O;::::=:::::::",
":::::::::,::::::::::   .    58886878             ::,::=::,::::::",
":::::::-,::;:::,:::: O X    88888588  O  X       :,:::::;:::::::",
":::::::::::::::,::  222222    87688866888588888  ::::::=:::::=::",
"::::,::::;:::=::::  222222 O  86888888888888888  :=::::::::::::,",
"::::,:::::;::=:   22<21<222223.O     .   .       :::,::*::::::::",
":::::::::::::::. O222<12222122   O X  O          :::::=::::;:,::",
"::::::::::::;::      .      22<322O   88    X:::::::=::::::::::=",
"::,::::::::::::  .  O       <22222    88   O ::::::::::::::,:,::",
":::::=::::::::::::    %&%$%%.   2332       2<  :::=,:::::::,=:::",
":,:::::::::::::::: .  %%&#%%O.  2222 X     22  :::=*::::::::::::",
":=::::::::,::,::::  %%%#%%%%%%   .23  88888  O ;::;::::::,::::::",
"::::::;::=::::::::. %%%%%&%%%%  ..22 O88868 .  ::,:::::::::=:,::",
":::=:::::::::::   #%%%$%%%%$X %%%%   O .888O   ::::::::::::;::,;",
":::::,::,,;:,::   %%%%%%#%$%  %%#% O   +588  X :::::::::::::::::",
":::::::::::::::   %%#%%%%%  %%  $%  8566468    ::>:::=;:::::::::",
":::::,::=::;::=   %%%#%%%%  %%  %%  8888588    ::;::::::::::::::",
"::::,:::;::::::   %%%%&%%#%%%%X %%          O  ::::;::::::;;::,:",
":;::::;::::::::O  %%%%%%%%$%%%  %%     O X   ..:::::::::::::::::",
":::::,::;:;=::=:::  %%&&%%#%%&  %%O 8888  O   O::,::::::::,:>:::",
"::::::::::::::=:::  %%%$&%$%%%  %%  8888   .   :=::::::::,;:::::",
":::::::;:::::::=::::     X @  %%%%  X X  X   ::::::,::::,::;:::;",
"::::::::::;:::::::::X         %%$%    O   .  :::::,,::::::::::=:",
"::::::=::::::;:::::: O    o   %%%%      X    :::::::::::::,:::::",
"::::::,:::::::::::::  %%%$%%%#%%.       ..   ::::::::::::;::::::",
"::=:::::::::::::==::  &%%%%%%%%%   .   X     ::::::;;::::::::::,",
":::::::::::::;,:::,:,:       .      O      ,::::,:::::::::;:::::",
"::::::::::;::::;::,:::  .         O   X    :::::::::=:::,::=::::",
"::::;;:::::==::*::::::::  .    O   .       ::=:::::::,::::::::::",
":::::::::::=:::=:::::::;    O O     O.  O  :::=::::::::::::::=::",
"::::::;;:::::::::,:::::,::*,   X         O :::::;::,:::::=::::::",
":::,::;::::::=::::::::::::::       O       :::,:;:::::::::::::::",
":;::::::::::::::::::::=:::  8885888788.      :::::::::,:,::,:=::",
"::,::::,::=::::,::::;:::::. 8888888878       ::::::,::::::=::::;",
":::::;::::::::::::::=:::::        888888788  =::::::::::::::::::",
":=::::,::::::::::,::::::::        888888688  ;:=:::::;::::::=:::",
":::::::::::;:::::;:::=:::::;::::         . ::::=::::;:::::::::::",
"::::::=:::::::::::::::::;,::::;:   X       =:;::::::::::::=::,::",
":::,::::::::::::::::::::::,::,::::::::::=:::::=:::::,:::::::::::"
};
