/* XPM */
static char *result[] = {
/* columns rows colors chars-per-pixel */
"64 64 34 1 ",
"  c black",
". c #010000",
"X c #000100",
"o c #010100",
"O c #000001",
"+ c #000101",
"@ c #4682C8",
"# c #4782C8",
"$ c #4783C8",
"% c #4682C9",
"& c #4782C9",
"* c #4683C9",
"= c #4783C9",
"- c #C286FE",
"; c #C386FE",
": c #C387FE",
"> c #C286FF",
", c #C386FF",
"< c #C287FF",
"1 c #C387FF",
"2 c #BCC0C8",
"3 c #BDC0C8",
"4 c #BDC1C8",
"5 c #BCC0C9",
"6 c #BDC0C9",
"7 c #BCC1C9",
"8 c #BDC1C9",
"9 c #FFFEFE",
"0 c #FEFFFE",
"q c #FFFFFE",
"w c #FEFEFF",
"e c #FFFEFF",
"r c #FEFFFF",
"t c white",
/* pixels */
",,,,,,,,,,,,,,,,,,,,,1,;,,,,,,,,,,,,,,,,,,,,,,,;,,,,,,,,>,,,,;,<",
",>,,,,,,;,,,,,,,,,,1:,,,  O                ,,,,,>,,,,,,,,,>,,,;,",
",,;>,,,,;,,,,,,11,,,,,,,   O          O    ,,,,,,,,,,1,;,,>,,,,;",
",,,;,,,,,,1,1,,,,,;,    rtqtttttrtttttttttt    1,,,,,>,,,,,>,>,,",
",,,1>>;1,,,,>,,,1;,,    ttttttttttttttttttt    ,,>,,,,,,,,,,1,,,",
",,,,,,,,,>,;,1,,,, .rtttttttttttrttttttttterttt  ,,,,,,;,,,,,,,;",
",,>,,,1,,,,,,,,,,,O tqtqettttttetttttttrttttttt  >,,,1,,,,,,,,,,",
",:,,,,,,,,,,,,,,,,  tttttttttt9etttttttttttttttX ,,,,,,1,,,,,,,,",
",,,,,,,>,,;-,,,,,,. tttttwttttttttttttttttttttt  ,,,,,,,,,,,,,,,",
",,;,,,,,,,,1,>,   ttqttttttttttttqqtttttteqtetttt  ,,,,,,,,,,,,,",
",,,,,,,,,,,,,,,   9ttttqtrttttttettqrtttqttttettt  ,;,;,,,,,,,,,",
",,,,,,,,,,,,,,, O ttettetttttteqtttt    X  ttt0ttO ,,,,,,,,,,;,;",
",,,,;,,,>,,1,>,X  tteqtttttttttttttt.  O   tttttq  ,,,>,,,,,,,,,",
",,,>,,,,,,,,,,,X  trttttttttttttqtt9      Xrttttt  ,,,,,,,,,,,,,",
",,,;,,,,,,,,1,,   ttttttqtttrttttttt       tttttqO ,,,,,,,,,>,;,",
",,,1,,,,,,,,,>;     tttttttqrtttttrt       tttt   X,,,,,,,,,;,,,",
",,,,,1,,,,,,,,,X  XXt9wtttt9ttrtettt       tttt . O,,,,,,,,,,,,,",
",,,,,,,,,,,,,,,,,, O  tttt    ttttttttrtttttw    1,,,,,;,,,,,,,,",
"1,,,,11,,,,,,,,,>1    qttt    ttttttrtttettttOO  1,,,,,,,,,,,,;,",
",,,1,:,,,,,,,,,,,, Ott  O tttttt  ttttetttttttttt  >>,;,>,,,;,,>",
",,,,,,,,>,,,,,,,;, .tt    tttett Xtttettttttttett  ,,,,,,,,,,>,,",
";,,,1,,1,,,,,,,>,1  tttt  tttt           O   X     ,,,,1,,,1,,,1",
",,,,,,,,,,,,,,,,,,  tttt  tttt   O  X. O      O    ,,,,;,,,>,;,,",
",,,,,,,,,,,;,,,,;,  tttt  rtqt                     ,,,,,,,,,,,,,",
",,,,,,,,,,1;,,,,,1,,  qt  tttrtrtt  tt Otr0. tt   +,,,>,,,,,,,,,",
",,,,,,,,,1,,,,,;,,,, .tt  trtttttr  tt  tet Ott    ,,,,,,,,,,,,,",
",,,,,,,1,,,,,,,,,,;, .     Xttertttt   X   O     ,,,,,,,,,,,,,,,",
",,,,>,;;,,,,,,,,,,,, O      tttttttt        .    ,,,,,;>,,,,1,,,",
",;,,,,1,,,,,,,,,,, .866665    tttttttttttttttqt X>,,,,,,>,,,,,,,",
",,,,,,;,,,,,,,,,,,  666666    ttttrqtttttttttttO ,,,;,;,,<,,>;;,",
",,,,,,,,,,;>,,,   666686666666                O  ,,,,,,;,,,,,,,,",
",,,,,,,,,,,,,,,   666666666666  O   X O          ,,,,,,,,,,,,,,,",
",,,,,,,,,,,;,,,            .566766    tt O   ,,,,,,,,,,,,,,,,,,,",
",,,,1,,,,,,,,,,             636668    tt    .,,;1,,,,,,1,,,,,,,,",
",,,1,,;,,,,,,,,,,,    &&=&&&  X 6656 XX .  66  >,,,1,,,,,,,;,,,,",
",,,,,,,,,>,;,,,,,,    &&$&&& .  6666   X   68  ,,,,,,,,,,,,,,,,,",
",,,,,,1,,,,;,,,,,,  &&&&&&&&&&    66 Ottttr    ,,,,,>,,,,,,,1,,,",
",,,,,,,,,,,>,,,,;1O %&&&&&&=%&    66  ttett    ;,,,,,,,>;,,,,,,,",
",,;,>,>,,,,,,,,   &#&&&&&&&&  &&&&      ttt    ,1-,,;,,,,,,,,,,,",
",,,,,,1,,,,;,,,   &&&&&&&&&& O&&&&    .Xttt  X ,,,,,,,,,,,,,,,,,",
",,;,,,,,,;,,,,, OX&&&#&&%& O=& X&&  ttrtttt  X ,,,,,,,1,,,,,,,,,",
",,,,,,,,,,>,,,,   &&%&&=&&  &&  &&  ttttttt    ,,,,,,,,,,,,1,,,,",
",,,,,>,;,,,1,,; . &&&&&&&&&&&&  &&oO O         ,,,,,,,,,,,,>,,,,",
",,,,,,,,,,,,,,,   %&&&&&&&&#&&  &&X            <,,,,,,,,,,,,,,,,",
",,,,;,,,,,,,,,,,,, O&&&&&*&%=&  &&  tttt     ,,,,,,,,,,,,,,,,,,,",
",,,,,>,,,,,,,,,,,, .&&&&&&&&&&  =&  ttrt     ,,,,,,,,,;,,>,1,,1,",
",,,,,,,,,>,,,,,,,,,,     .X   &&&@ X         ,,,,1,,,,,;1,,,,,,,",
",,,,,,,,,,,,,,,,,,,,       O  &&&&           1,,1,1,,,;,,,,,1,,,",
",,,,,>,,,,,,,,;;,,,,          &&&&           ,,,,,,,,,;,,,,>,,>,",
",;,,,,,,;,,,,,;;,;1, .&&&&&&&&&&O           O    ,,>,,,,,,,,,,,,",
",,,,,,,,,,;,,,,,,,,,  &&*&&&&&&&       O  XX     ,,,,,,,,,,,,,,,",
",>,>,,,,,1,,,,,,,;,,    O          O X     6664  ,,,,,,1,,,,,,,,",
",1,,;,,,1,,,>,,>,,,,.                      5666  ,>,,,,,,,,,,;>,",
",>,,,,,,,,,,,,,>,,,,  tttt              3666666  1,,1,,,,,,,,,,,",
",,;,,,,,,1>,,,1,,,,,  ttttO      O      6668666  ,,>,,,,,>,1,;,;",
",,,,,,,,,,,,,,,,,,,,  ttrt    ,,,,    54666  X ,1,,,1,,,;>,,,,,,",
",,,,,,,;,,,,,;,,,,,,  tttt .  ,1;,    68266    ,1,,,,,,,,,,,,,,,",
",,,,,,,,,,,,;>,,,,,,,1    tttt  1>+ 6666   ,1,,,,,;,,,>;,,,,,,,,",
",,>,,,,,,,,,,1,,,,,,,,    tttt  ,,  6666   ,,,,,,,,,,,,,,,,,,,,,",
",>,,,-,,,,>,,,,,,,,,,,,,        ,,,1  X ,,,,,1,;,,,>,,,,,,,1>,,,",
",>,>,,,,,,,,,,,,,,1,,,,,        ,,,,    ,,,,,,,,;>,,,11,,>,;,,,,",
">,,,,,,,,,,,,,,,,,,,,,,,,,,,>,,,,,,,,,,,,,,,,,,,,,,;,,,;,,,,,,,,",
",,,,,,,,,,,,,,,,,,,1,,,,,,,;,>,,-,,,,,,,,,,,,,,,,,,,,,1,,,,;>,,,",
",,,,,,,,,>,,;,>,,,,,,,,,>,,,,,,,,,,,,>-,,,,,,,,,,,,>,,,,,,,,,,,,"
};
