/* XPM */
static char *result[] = {
/* columns rows colors chars-per-pixel */
"64 64 28 1 ",
"  c #223832",
". c #233832",
"X c #233932",
"o c #223833",
"O c #233833",
"+ c #233933",
"@ c #426276",
"# c #426376",
"$ c #436376",
"% c #426277",
"& c #436277",
"* c #426377",
"= c #436377",
"- c #C286FE",
"; c #C386FE",
": c #C287FE",
"> c #C387FE",
", c #C286FF",
"< c #C386FF",
"1 c #C287FF",
"2 c #C387FF",
"3 c #CFDAFE",
"4 c #CEDBFE",
"5 c #CFDBFE",
"6 c #CEDAFF",
"7 c #CFDAFF",
"8 c #CEDBFF",
"9 c #CFDBFF",
/* pixels */
"<<<<<<<<<<<<<<<<<<<<<<;<<<<;<<<<<<,<<<<<<<<<,;<<<<<<<<<<<<;<<<<<",
"<<<2<<<<<<<<<<<<<2<<<<<<<<<<<<<<<<2<<<<<<<<<<;<<<<<<,<,<<<<<<<<<",
"<<<<<<;<<<;<<2<<<<<<<<<<<<<<<<<<<<2<<<<2<<<<<<<<<2<<2<<,<<<<<<<<",
"<<<<<<<<<<<;<<<;<<<,<<<<<<<<<<<<<<<<<<<<<2<<;<<<<<<;<2<<<<<<<<<<",
"<;<<<<<<<<<<<2<<<<<<<<<<<<<<<<<2<<<<<<<<<<<<<2<<<<<<2<<<<<<<<<<<",
"<<<<<<<<<<<<2<<<2<<<<<<<;<<<2<<<<<2<<<<<;<<<<<<<<;<<<<<<<<<<<<<<",
"<<<<<<<<<<<2<<<<<<<<<<<;<<<<<<<;<<<<<<<<<<;<<<<<<<<<<,<<<<<<<<<<",
"<<<<<<<<<<<<<<<,<<<<<<<<2<<<<<<<<<<<<<<<<<<<<<<<<<<<<<<<<<<<<<<<",
"<<<2<<<<<<<<<<<<<<<<<<<<<<2<<<;<<<<<<<<<<<<<<<<<<<<<<;<<<<<<<<<,",
"<<<<<<<<<<<<<<<<<<<<<<<<<<<<<<<;<<<<<<<<<,<<<<<<<<<<<;<<<<,<<<<<",
"<<<<<<<<;<<<<<<<<<<<<<<<<<<<,<<<;<<<<<<<<<<<<<<<<<<<<<<<;<<<<<<<",
"<<<<2;<<,<<<<<<<<<<<<,<<<<<,2<;....X...X . ...<<2<<<<;<<<<<<<22<",
"<1;<<<<<<<<<<<<<<<X..****.X.. .999699979999799XO.<<<<2,<<<<<<<2,",
"<<<<<<<<<<1;<<< O=9989*959**.99979979998999898989..<<<<<<<<<<<<<",
"<<<2<<<<<<<<<<.#99999999999*99989988999999597999989..<<<<<<<<<<<",
"<<;<<2<<<<<;X 99999995*9*%899998989989959979999999999.<<,<,<,2<<",
"<<<<<<;<;<<.99899399999*999999999959999998999599999999%<<<<<<<<<",
"2<<<<<<<<<*9%979959579339999999975998999998999979999999.<<<<2,<,",
"<<<<<<<<<.9899998599995999999599995999999999999999999995..<<2<<<",
"<<;<<,<..97*9898997999999599989999999999999597997998989#99.<<<<<",
"<,<<<<.***#*9999799568999989999999999959795999999998999999*<<2<<",
";;<<,.**9**995959899999999979959999999997999999775997999*.*<<<<<",
"<<<<<.8997989999999999899999999999979979989999978599998*#. <,2<<",
"<<<<.=9999999999997899999999999999999997599799999999999999X<<;<<",
"<<2<.799999**999999999*=8599959999899999875959699998999999* <<<<",
";;<.9O*999999**999999999**9999978999995999995999999799999**.<<,<",
"<<;..*999979***7999999959***9=9799#9999495999999999*****=9#.<<<<",
"<<2< *999998998*999859=%*3*%**=***999999999999989%**9***98..<<<<",
"<<<,.9*9999999999999*=*99*%***%99*99999999999**9**9999**#**.<<<<",
",<<.*999999%999*9***=%99988**799795899999999939#99999959***=.<<<",
"<<,.**999995***9*****999599997799599999999799999999999989***.<2<",
"<<< .#*99995%%*#%*9#999999859988959999998999999989999998=**#.<2<",
"<<<<.*%*99979=**#59999999995995999969997999999999995999***O .<<<",
"<<<.*.****9999**5599999999999999979555999999799999999999.X..<<<<",
"<,<X**#********9759999999999599999699899599979799999999#*.+..<<<",
"<<<X************9899599999999959999599979999599999999999*&#..<<2",
"<<,.******=****999999899997899899997799999*9999599998*99****.;<<",
"<<<.*=*99*****99999959798999999999*9999%**9*999***9999*95**O<<<;",
",<<. **9**5******995999999999**%**9995%**%**%****599***%***.<<<<",
"<;<,...**899**&%*999989999*#****99*99*=***********##%*%***#.,<<<",
"<<<<X..%8999****=*9*9*59*******99999*99=@%*%**************.<<<;<",
"<<<<<.***************3*****#*97998999987****=*****%#*****=.><<,<",
"<<2<<.*******#******##***#*999396#999979999**#*%*****##**.<<<2<<",
"<;<<<;.******=**#***=***$999*59857****999999*@*#****%***.<<<<<<<",
"<<<2<<;.****#*%**#%****#799****999#************=*=*%=**.<<<<2<<<",
"<1<<<<<2..***=*********9**#**%*=**#**********#**%**** .<<><;1<<<",
"<<,<<<<<<<O.*%**.********************#*%**#**#**#*%..<2<;<<<<<<<",
"<;<<<<<<<<;<...o*#*******************%*#****.****..<<<2<<<<2,<<<",
"<<<;<2<<;<<-<<<XO.. %***=%*#**********##*****... <:<<<2<<<<<<<<<",
"<<<<<,<<;<<<<<<<<<<O........X**..**..*.... ...<<<<<<<<<<<,<<<<<<",
"<>,<<<<<<2<<<<<,<<2<<<<<;.<<..X, . <...<<<<<<<<<<<;,<<,<<,<<<<;<",
"2<<<<<<<<<<<<<<<<<<<<<2<<<<<<<<<;<<<<<<<<<<<<<<<<<<<<<<<<,2<;<<<",
"<<<<<<<<<<2<<<<<<<<<<2<<<<<<<<<<<<<<<<<<<<<<<<<<<<<<<<<<<2<<<<<,",
"<<<<<<<<<<<<<<<<<<<<<<<,<<<<<<<<<<<<<<;<<<<<<<<<<<<<,<<<<<<<<<<<",
"<<<<<<<<<<<;<<<<<<<<<<<<<<<<<<<<<<<<<<<<<<<<<<<<<<<<<<<<<<<<<<<<",
"2<<<<<<<<<<<<<<<<<<<<<<<<2<<<<<2<<<<<<<<<<<<<<<<<<<<<<<<<<<<<<,<",
"<<<<<<<<<,<<,<<<<<<2<<<<<<<<<<<<<<<<<<<<<<<<<<<<<<<<<;<<<,<<<<<<",
"<<<2<<<<<<<<<<<;<<<<<<<<<<<<<<;<<<<<<<<<<<<<<<<<<<<<<<<<<<<<<2<<",
"<<<<<<<<<<;<<<<<<<<<<<<<<,<<<<<<<<<<<<<<,<<2<<<<<<<2<<<<<<<<<<<<",
"<<<<<<<<;<<<;<<<<<<<<<<<<<<<<<<<<<<<<<<<<<<<<<<<<<<<<<<<<<<<<<<<",
"<<<<<<<<<;<<<<<<<<<<<<<<<<<<2<<<<<<<<<<;<<<<<<<<2<<<<<<<<<<;<<<<",
"<<;<<<<<<<<<<<<<<<<<<;<<<;<<<<<<<<<<<<<<<<<<<<<<<<<<<<<<<<<<<<<<",
"<<2<;<<<<<<<<<2<;<<<<<<<<<<<<<<<<<<<<<<<<<<<<<<<<<<<<<<<<<<<<<<<",
"<<,;<<<;2<<<<<<<<<<<<<,<<<<<<<<<<2<<<<<<<<<<<<<<<2,<<<<<<<<<<<<<"
};
