/* XPM */
static char *result[] = {
/* columns rows colors chars-per-pixel */
"64 64 37 1 ",
"  c black",
". c #010000",
"X c #000100",
"o c #010100",
"O c #000001",
"+ c #010001",
"@ c #2C2E3E",
"# c #2C2E3F",
"$ c #2D2E3F",
"% c #2C2F3F",
"& c #2D2F3F",
"* c #7280B0",
"= c #7281B0",
"- c #7381B0",
"; c #7280B1",
": c #7380B1",
"> c #7281B1",
", c #7381B1",
"< c #A0B6E0",
"1 c #A0B7E0",
"2 c #A1B7E0",
"3 c #A0B7E1",
"4 c #C286FE",
"5 c #C386FE",
"6 c #C287FE",
"7 c #C387FE",
"8 c #C286FF",
"9 c #C386FF",
"0 c #C287FF",
"q c #C387FF",
"w c #BACAEA",
"e c #BBCAEA",
"r c #BACBEA",
"t c #BBCBEA",
"y c #BBCAEB",
"u c #BACBEB",
"i c #BBCBEB",
/* pixels */
"9999999999999999999999999999999999999999999999999999999999999999",
"99999q99999999999999999999999995999q9999999999999999999999999999",
"9999999999999999999999999999999999994999999999q99999999999899999",
"999999959999999q99999999999999999999999q9999999q999999999q999999",
"99999999998999999999999999999999999q99999899999q9999999999999999",
"999999998q99999595999999999995999999999999999999999999999q99q999",
"99999999999999qq99999999999999999999999999999999999999999999q999",
"999995999999995999999999999999999999q9999999899999999999q9999999",
"99999999q99999999999799999999599999999999999q9999999959999998999",
"9999999899999999999899999999995999599999999899999999999999599999",
"999989999995999988999999898999q59997999999999q99999q999999899999",
"999999999995999999998999   O    X     999999999999q5999999999949",
"99999999999999998799    >tttttittttit>    9995999959999999999999",
"9999q9999999999999  ;ttt>>>,wtettt>>>>ttt>O 99899999999995q99999",
"9999q599998q99958 *>ttt>tttt>>>>>>rtit>tte>t.99995q9999999999999",
"999999595959995 .tr>ti;trtrttrttrttettr>tt;rt X95909959999999999",
"99998999999999 ttrtt>,tuttttettttetttttt>>rtttt 58999999999q0979",
"9999999999q99 1tttttt>>>ittrttrtttttte:>>tttttt1 999999999999989",
"999999959q99 ;1ttetteet>>>,>>>>>>>>>>>>ettttttt1> 99994999999999",
"9q988998999 tt;<titett>tt##@#####%##$tt>tttttt2>tt 99q9999999999",
"9899999999 tttt>3ttttt###eritetettyet###ttttt1>ttttOq89999999999",
"9999995995 ttt>t>>1t##ttrtttttrttetttttr#$t3,>t>ttt 599995999999",
"999999899Xtie>tett>$tetitrtttrrttttrtttttt#>ettt>ttt 9999q999989",
"978999999 ett,ttit#itettittttttrtttrtttieet@ttte>ttr 9999995q999",
"98999999 >tt>tttt#ttttr;>>>>>>>=;,;>>=>tittt#ttte>tt> 99999q9q99",
"97999qq9 >31>titt#titr==%######$####$#>>tttt@yttt>11> 9999q59999",
"99999999Ot>>teit#tttt>##         X    ##>tttt#etit>>t 9999599899",
"9959999 e>e>1ett#ytt,# O     .XO     X  #>ttt#tte1>t>t 989999999",
"9989989 i>rt>13#tttt>  .      X       O  >ttti#11>tt,t 999999998",
"9999989 >tttt>>#ttet#    X  .       X    #tttw#>>tttt> 989999999",
"999995 t>titr>i%tttt#  .     O     . O   %tttt$i>tttt>t 959q9999",
"999999 t>ttt-te$ttrt%  . X       O       #tttt#tt=rtt>t 99999999",
"999999 ;tttt>tt#ttti#.   . O             #tttt&tt>tttt> 99999999",
"999599 >1rtt>tt#trtt#           X  O  O. #tttt#tt>irt1> 85999999",
"999995 r=trr>tt#ttit%  .X        .  .  OO#tttt#te>ttt>tX589q9999",
"9999q9 t>1tt>ut#tttt#.        X    O. O  #tttt#tt>et1>t.99598999",
"999999 tt><t>tt#ttwt# X X..       OO     #etty#tr>t1>rt 99999999",
"999999 tt>>1>it#tttt#  XO    O           #tttt#ee>1>>ti 9q999959",
"99q9q9 eu>t>>tt%rttt#    .            O  #ttir@tt>=t;tt.99999999",
"999899 rt>rtt>t$titt$ O             X    #titt%t>ttt>ii 99999999",
"995999 tt>tttt>#tttt#   X .      O       #tttt#>tttt>tt 99q99999",
"9995994 e>ttttt#tttt#      .     . X  X O#trtt%ttitr>tO958599599",
"9999999 e>ttryi#ttrt#    OX         O    #tett#trttt>tO599999999",
"99959qq9 >tttti#trtt>#      o         .O%;tttt#ttttt= 8999999999",
"999999999 1ttte#,tttt#  O  # # #O#O# X  #ttti>#ettt1 96999989999",
"9999999q99 1tttt#ttit#O # # # $ #.#.#X@ #ttte#trtt1 998959999999",
"99859999995Xtttt%tttt# # # # @ # # # #X #tett#ttrto9999999999999",
"9995995q999q  et#>ttr>#+#@####$#%#@### %>itt>#tt  99999999999999",
"999899999q99q8  .>ttte# 5999999q999999.#tttt>   999q999998999979",
"99q89899959q5999q  O   99999q9599999999    o 99999559999999qq859",
"99q9999q9995959999599q999999998999999995999899q9999999989999999q",
"99q99999899999999q99999q95q5999999999999595q899999999q9999999999",
"99999q9999995999q9q999999995999999999999q999999999999999q9999999",
"9995599959995qq995999999995q999999999999959999998994859999889999",
"99999999q9999999q999898999989999999799999q99999899999q99999qq899",
"999999995999999999999999999999999q999999999999999999999999999999",
"9999999999599999999959998999q999999999999q99999q9999959999999999",
"995999999999999999999999q99999999999999999999999q999989999999989",
"995999q99959999999999999999599999999q9959999999999q9999999999999",
"9999q999989899999999999q9999999999999999999999999999989999999999",
"9999999999999999999999999999999998999999999959999999999999999899",
"9999999999899999999999999999999999q99489999899999999999999899999",
"99999959999999999999998999999999999999999999999999q9999999999599",
"999999999999999999999999999999q999999999999999999999999999999999"
};
