/* XPM */
static char *result[] = {
/* columns rows colors chars-per-pixel */
"64 64 20 1 ",
"  c black",
". c #010000",
"X c #000100",
"o c #000001",
"O c #010001",
"+ c #000101",
"@ c #C286FE",
"# c #C386FE",
"$ c #C387FE",
"% c #C286FF",
"& c #C386FF",
"* c #C287FF",
"= c #C387FF",
"- c #FFFEFE",
"; c #FEFFFE",
": c #FFFFFE",
"> c #FEFEFF",
", c #FFFEFF",
"< c #FEFFFF",
"1 c white",
/* pixels */
"&&&=#&&%&#&&&&&&&&&&=&&&&&&=&&&&&&&&&%&&&&&&&&&&&&&&&&&&&#&&=&&&",
"&&&&#&&&&&&&&&&&=&&&&&&#&&&&&&&&&&&&&&&&&&&&&&=&&&&=&&&&#&&&&&&#",
"=&&&&&&&&&&&&&&&&&&&&#&&&&#& .      &&&&&&&&&&&&&&&&&&&&&&&&&&&&",
"&&&&&&&&&&&&%&%&&&&&&&=&&  .&&&%&&&&   &&%&&%&&&&&&&&&&&&&&&&&&#",
"#&&#&&&&&&&&&&&&&@&&&&%&&   &=&&%&&&   &=&=&&&&&&&&&&&&&&&&&&&&&",
"&&&&&&&&&&&&&&&&&&&#&&&  &&#=&#&&&&&&&& o&=&&=&&&&&&&&&&&&=&&&&&",
"#&&&&&&&&&&&&&&&#&&&@& ##=&=&&&&&&&&&&&&&  &&@&&&&&&&&&&&&&&&&&&",
"&&&&&=&%&&&&%&&#&&&&&&O%&=&&&&&&&&&&=&&&&  &&&&&&&=&&&&&&&&&&&&#",
"=&&&&&&#&&&&&&&&&&&&  &%&&&&&&&&&&%&&&&&&&& #&&&&&&&&&&&&&&&&&&&",
"&=&&&&&&&%&&&&&&&%&&X #&&&&&&&=&&&&#&&&&&&& %&&&&#&&&=&&&=&&&&&&",
"&&&=&#&&&&&&&&&&&&&&  &=#&&&   . . &#&&#&&&X&&&&&&&&&&&#&&&&&&&&",
"&&&&&&&&&=&&&&&&&#& &&&&&  o111111<   %&&&%&  &&&&&&&&&=&&%&&&&&",
"&&&&=&&&&&&&&%&&&&& &&&&&   ,1111:1   &&%&&&  &&&&&&&&#&=&&&&&&&",
"&&&%&&&&&&&&&&&&&&& &&&  1;1111,1,1111 &&&&& .&&&#&&&&&&&&&&&#&&",
"&&&&&&&=&&=&&&%&&  &&& 1<1111111111111<  #&&&=.&&&&#&&&&&&&&&&&&",
"#&#&&&&&#&&&&&&&&  ==& 11111111111,11:1  &&&&& &&&&&#&#&&&&&&&&#",
"&&&&&&&&&&&&&&&#&  &&& 1111:1:11111111111 o&&& =&&%&&&&&&&&&&&#&",
"&&&#&&&=&&%&&&&&&  &#& 11::,,111111111,11  %&& &&&&&&#&&&&&&&&&&",
"&&&#&&&&&=&&&&&&& X%  111111111<<11<1111:11 %& %&&&&&&&&&&&&&&&%",
"&&&%&&&&&&&&&&&&=  & o11<11111111<11111111, =& &&&*&&&&=%&&%&&&&",
"%&&&&&#&&&&&&&&&&  & o,111111,111111111<111 && &=&&&&&&&#&&#&&%&",
"&&&&&&&&&&&&&&=%   .11:11111111111,111111111     &&%&&&&%&=&&&&&",
"&&&&&&&&&&&==&&&    1111111111    .-<1     1     &&&&&=&&&&&&&&&",
"&&&&&&&&&&&&&&&&    :111111111.    :11  o .1     &&&#&&&&&#&&&#&",
"&&&&&&&&#&&&&&&&    11111:1<11    X111     1 X oX&&&&&&&&&&&&&&&",
"&&%&&&&&&&&&&&==   o1:11111111     111     1.    %&&&#&&&&&&&&&&",
"&&&&%&%&&&&@&&&&    1111111111 11  1<1 11  1.    &&&@&&&&&&&&&&&",
"&&&&&&&&&%&&&&&&    11111,,<<1 11 .111 11  1     &&&&&&&=&%&%&&&",
"&&&&&&&#&&&&&&#&o   11111>1111 11  111 11  1    .%&&&&&&&%=%&&&&",
"&&&&&&&&&&&&#&&& .  1111111111 1:  111X11  1   X &&=&&&&&&&&&&&&",
"=&&%&=&&&&&&&&&& o X111<111111 11. 111 1,  1     &&&&&&&&#&&&&&&",
"&&&&=&%&&&&&#&&&    1111111,11 11 X111 11+X1 X   &&&&&&&&&&&&&&#",
"&#%&&&=&&&&&&&&&    1111111111X    111     :     &&&&&&&&&&&&&&&",
"&&&&&&&&&&=&&%&&    <1111<1111     111 .   1 .   &&#&&&&&&&&%&&&",
"&=&&##&&#&&%&&#&%&& 1111111111     111 X   1 X&&&&&&=&#&&&&&&&=&",
"&&&&&&&&&&&&=&&&&&& 11111111111111111111111,  &&&&&&&&&&&&&&&&&&",
"&&&&&&&#&&&&&&&&&&= 11111,1111111111,11,111<  &#&=&&&&&&&&&&&%#&",
"&&&&&&&&&&&%=&&&=&& :1:1<1111111111111111111  &&&#&&&&&&=&&&&&&&",
"&&&&&&&&&&&&&&=&&&& <1111<11111111111111111,  &&%&&&&&&&&&&&%&&&",
"&&&&&=&&&&=&&&&&&&& 1111:111:111111111111111  #&&=&%&&&&&&&&&&&&",
"&&&&&&&&&&&&&&&&&&&o111111:1111,<,1111111<<1 o=&&&&#&%&&&&=&&&&&",
"&&&&&&&&&%&&&&&=&&& 11111111111,111111111111  &&&&&&&&&%&&&&&&&&",
"&&&&&&&&&&=#&&&&&&=X111,1,11,1111111111,1111 X&&&=&&&&&&&&&&&&&&",
"&&&&&#=&&&&&&&&&&@& 11111111111111:111111111  &&&=&&&#&=&&&&&&&&",
"&&&&&%&&&&&&&&&&&&& 11:1111111111111111;11,1  &&&&&&&&&&&&&&&&&&",
"&&#&&%&&&&&&&&&&&&& 111111111111111111111111 +#&&=&&&&&&&&&&&&&&",
"&&&&&&&&&&&%&&&&&&& 1111,1111,1:111111111111  &&&&&&&&&&&&&&#&&&",
"&&&&&&&#&&&&&&&&&&& :11111111111111<11111:11 o&&&&&&&=&&&&&&%&&&",
"&#&&&&&&&&&&&&&&&#& 1,111111111:111111<11111X &&&&&&&&%&&=&&%&&&",
"&&%&&&&&&&&&&&&&&&& 1111111111<::1111:11111<  &&&%&&&&&&&&&&&&&&",
"&&&&#&&&&&&&&&&&&&& 11111111,111111111,<1:<1  &&&&&&&&&&&&&&&&&&",
"&&&&&=&&&&&&&&&&&&& 1111111111:111:1111111<,  &&&&&&#&&&&&&&&#&&",
"&&&&&&&&&=&&&&&&%&& 11<:111:111111111:11<111  &&&&&&&&&&&&&&&&&&",
"&&&&&&&&&=&&&&&&&&& 1111<11111:1111111111<11  &&&%&&&&&&&&&&&&&&",
"&&&&=&&&&&&&&&&&&&# 1111111,11111<1111111111  &&&&=&&&#&&&&&&&&&",
"&=&&&%&&&&&&&&&&&&& 1111111,11111111,1111111  &&&&&&&&&&&&&&&&&&",
"&&&&&&&&&&&&&&##&&& 11,11111<1:11,11<1111111  &%&&$&&%&&=&&&&&&#",
"&&&&&&&&&&&&&&&%&&&X11111111  111111  111111  &&&&&&&&&=&&&&&&=&",
"&&&&&&&&%&=&&&&&&&& 11111:11  1111:1  111111  &&&&&&&&&&&&&&&&&&",
"&&&&&&&&&&&&&&&&=&&&  11111 && <<11 &% <111 &&&&&&&&&&&&&&&&&&&&",
"&%&&&&&=&&&#&&&&&&&& .11111 && 1111 && ,1:1 &&%&&%&&&&&&&&&&&&&#",
"&&&%%=&&&&&&&&=&&%&&&%     &&&&    &#&& o  &&&&&%&&#&&=&&&&&&&&&",
"&&&&&&&&&&%&#&&&&&&&&&&&&&&&&&&&&&&&#&&#&&%&&&&&&&%&&&&&&$&&&&&&",
"&&&&&#&&&&&&&&&&&%&&&&&&&&&&&&&&&&&&&&&#=&&&&&&&&&&&&&&&&&%&&#=&"
};
