/* XPM */
static char *result[] = {
/* columns rows colors chars-per-pixel */
"64 64 17 1 ",
"  c black",
". c #010000",
"X c #000100",
"o c #000001",
"O c #C286FE",
"+ c #C386FE",
"@ c #C387FE",
"# c #C286FF",
"$ c #C386FF",
"% c #C287FF",
"& c #C387FF",
"* c #FEFFFE",
"= c #FFFFFE",
"- c #FEFEFF",
"; c #FFFEFF",
": c #FEFFFF",
"> c white",
/* pixels */
"$$$$+$$$&$$$@$$$++$$$$$$&%$$$$$$&$#$$$$$#$&$$$$$+$$O$$$$$$#$+$$$",
"$#$$+$$$$$$$$$$+$$$$&$$$$$&$$$$$$+$$$$&@$$$$$$$$$$$$$#$$$+$$$$&$",
"$$+$$$$$$$$$$$$$$$$$$$$$$$$$   o  X $$$$+$&$$$$$$$$$+$$$$$$$$$$$",
"$$$$$$$$$$$$$+$#&$$$+$$$+   $$$$$&$$   $$$$$$$$$$$$$$$$&$$$$@$$$",
"#$$$O&$$+$$$$$$$$%+$#$$$+   $%$#$$@$   $$#$$$$$$$$&$$$$$$$$$$$$$",
"$$$$$$$$$$$$$$$$&$$$$+#$ $$$$$$$$$$$$$$  +$$$$$$$#$$&$$$$$$$$$$$",
"+$$$$$+$$$$$+&$$#$$$$$  $$$$$$&+$$$$$$$#$  $$$$$&$$$$$$$$$$&$$$$",
"$$$+$$$$$$$$$$$$&$&$#$o $$$#&$$$$$$+$$$#$  $$$$$$$&$$$$$$#$$$$$$",
"$$&$$$$&&&$+$$$$$$$$  #$$#$$$$$$#$$%$&$$$$$ $$$$&$$$$$$$$$@#$$$&",
"$$$$#$$$$$$$$$$$$$$$  $$$$$$$$$$$$$$$+$$$$$ #$$$$+$$$$+$$$$&$$$$",
"$+$$&$$$$$$$$$$$$$$+X +$$$+$$$      $$$$$$$ $#$$$$$$$$$$$$$$$$$$",
"$$$$$$$$$$$$$$$#$$$X$$$$$$$   >>>==>   $$$$$  $$$$$$$$$+$$$$$$$$",
"$+$$$$$$$$$$$$$$$$+X$$$$$$$   ;>*>>>   $$$$$  $$$$+$$$$$$$$$$O$+",
"$$$#$$$&$$$$$$$$$$$ $$$$$  >>>>>=>>>>>>  $$$X $$$$+$$$$$$+$$$$$$",
"$$$$$$$+$$$$$$$$$  $$$$$ >>>>;>>>:>>>>>>>  $$$ $$$$$$$$&+$$$$&$$",
"$$$$$$&$$$$$$$#$$  +$$$$ >>>>:>;>>>>>>>>:  #$$ $+$+#$$$$$$$+#$&$",
"$$$+$$$$$$$$$$$$$. +$$X >>>>>>>>>:>>>>>>>  $$$ $$$$+$$$$#$$+$#$$",
"#$$$$$$$$$$$$$$$$  $$$  >>>>=>>>>>>>>>>>>  $$$ $$$$$#$#$$$$$#$$#",
"$$$$$$$$#$$$$$$$$  $  >>>>>>;>;>>>>>>>=>>>> $$ $$$$$$$$$$$$$$$$$",
"$$$$$$$++$#$$$$$$  $  >>>>>>>>>>>>:>>>>>>>> $$ &$$$$$$$$$$O$$$$$",
"$$$@$$$$$$$$$$$$$  $  >:>>>>>:>>>>>>>>>>>:> $& $$$$$$&$$$$$$$$$$",
"#$$$$$$#$$$$$$$$    >>>=>>=>>>>=;>>>>>>>>:>>     $$$$$$$$$$$$$$+",
"$$$$$$$$$$##$$$$   X>>   o >>> X   >>>:>>>:: X   $$$$$$$$$$$$$$$",
"$$$$$$$$&$$$$$$$    =>     >>>  X  >>>>>>>>>     $$$$$$$$$$$$$$$",
"$$$&$$+$$$$$$$$$    >>    X>>>     >>>=>>>>:  o  $$$$$$$$$$$$$$$",
"#$$+$$$$$$$$$&&$o   >>     >>>     >>>>>>>>> X   $$$$$$$$$+&$$$&",
"+$$$$$$$$$$$+$$$    >>  :  >>> >>  >>>>>:>=:.  . $$$$+$$$+$$$$$$",
"&$$$$$$$#$$$&$$$    >=  >. >>> >:  >>;>>>>>> X   $$$$$$$$$$$$$$$",
"$$$$&$$$$$$$#$$$ X. >>  >  >>> >>  >>>=>>>>>     $$$$$$$$$$$$$$$",
"$$$#$$$$$$$&$$$$    >> X= X>>> >>  >>>>>>>>>  o  $$$$$$$$$&$$$#$",
"$$$#$$$$$$$$&$$$    >>  >  >=> :>  >>>>>>>>>     $$$$$$$$$$#$&$$",
"$$$$$$$$+$$$$$$$    >>. >  >>> >>oo>:>>;;>>>     $$$+$$$$$$$$$+$",
"$$#$$$%$$$$$$$$$    >>     >>=.oX o>>>>=:>=> X   $$$$$$$$$$$$$$$",
"$$$#$$$$$$$$$$$$    >>   o >>>     >>>;==>>>     $$$$$$$#$$#$$$+",
"#$$$&$$$$#$$$$+$$&$ >>     >>>     >>=>>>>>:o $$$$$$$$$$$$$$$$$$",
"$$$$+$$$$$$$$$$$$$$ >>>>>>>>>>>>>>>>>>>>>>>> .$$$$$$$$$$$&$$$$$&",
"$&$#$$$$$$$#$$$$$+$ >>>>>>>>>->>>>>>:>>>>>>>  $$$$$$$$&$$$$&$$$$",
"$$$$$$$$$$&$$%$$$$$ >>>>>>>>>>>>>>>>>>>>>>>>  $$+$$$$$$$$$$$$$$$",
"$$$$$$$$$#$$$$$+&$$o=>>>>>>>>>>>>>>>>>>>>>>>  $$$$++$$$$$#$$+$$$",
"$$$$+$$$$+$$$$$$$$$ >>>>>>;>*>=>>>>>>>>>>;>>  #$#$$$$#$$$#$$$$$$",
"$#$$$$++$$O$$$$$$$$ >>>>>>>>:>:>>>>>>>>>>>>>  #$$$$$$$$$$$+$$$$$",
"$$$$$$$$$$$$$+&$$$+X>>>>>>>>>>>>>>>>>;>>>>>>  $$$$$$$$$$$$$$$#$$",
"$@$$$$$$$$$$$$#$$$$ >>>>>>>>>>>>:>>>>>>>>>>>  $$$$$$$$#$$$$$$$$+",
"$&$$$$$$$$$$$$$$$$$.>==>>>>>>>>>>>>>>>>>>>:>  $$$$$$$$$$$$$$$$$$",
"&$$&$$$$$$$$$$$$$$$ >:>>>>>>>>>>>;>>>>=>>>>>  $$$$$&$$$$$$$$$$$#",
"&$$$$$$$$&$$&$$$$$$ >:>>>>;>>>>>>>>>>>>>>>;>  $$$$$$$$$$$$$$$$$#",
"+$&$$$+$$$$$$$$$$$$ >>>>>>>>>>>>>>>>:>>>>>>>  $$$$$$$$$$$$$$$$$#",
"$$$$$$$$$$$$$$$$$$$ >>=>>>>>>>;>>>>>>>>>>>>>  $$$#$$+$$$+$$$$#$$",
"$+$$$$$$$$$$#$&$++$ >>=>>>>>>>>;>>>>>>>>>>>>  $$$$$$&$$$$$$$#+$+",
"$$&$$$&$&$$$#$$$$$$ >>:>>>>>>;>>>>:->>>>>>>>  &$$$$$&$$$$$$$$$$$",
"$#$$$#$$$$&$$$#$$$$ >>>>>>>=>=>>;>>>>>>>>>>>  $$$#$#$$$$$$$$$&$$",
"&$$$$$$$$&$$$+$$$$$ >>>>>>>=>>>>>>>>=>>>>>>>  $$$$$$#$$##$$$$$$$",
"$$$$$+$$$$$$$$$$$$$ >>>>>>>>>>>>>>>>>>;=>=>>  $$$$+$$$$$$$$$$$$$",
"+$$$$$$$$$$$$+$$$$$ >>:>>>>>>;:>>>->>>>>>>:;  $$$&#$$$$$$$$$$$&$",
"$$$$$$$$$$$$$$$$#$$ >>>>>*>>>>>>>>>>:>>>>>:>  $$$$$#$$$$$$$$$$$$",
"$&$$$$$$&$&$$$$$$$$ >:>>>>>>>;>;>>>>>>>>>=>> X$$$$$$$$$$&$$$&$#$",
"$$$$$$$++$$&$$$$$$$ >>>>>>>>>>>>>;>==>>>>>>>  $$$+$$$$$$$$$$$$$$",
"$$$$$$$$$$$$#$$$$$+ >>>>>>> >>>>>>> >>>>>>>>  $$$$#$$$$$$$$$#$$$",
"$$$$$$+$$$$$$$$$$$$ >>>:>>> >>>:>>> >>>>>>>>  $$$$&$$$$$$$$$$$$+",
"$$$$$$$$$$$$$$$$$$+$  =:>  $  >>=  $  >>:>:o$$$$$$$$$$$$$$$$+$$#",
"$$$$+$$&$$$$$$$+$$$$  >>>  $  >>>  &  >=>>> $$$$$$$$$$$$$$$$$$+$",
"$&$&$$$$$$$$#$$$$$$$$$   &$$#$   $$$$$     $$$$&$$$$$$$&$$$$$$$+",
"$&#$$$$O$$$$$$$$$$$+$$$$$$$$$$$&#+$$$$+$$$$$$#$$$$$$$$$#$$$$$$$$",
"$+$+$$$$$&$$$$$#+$$&$$$$$$$&$%$$O&$$$$$$$$$$$$$$#$$$$$$%#$$$#$$$"
};
