/* XPM */
static char *result[] = {
/* columns rows colors chars-per-pixel */
"64 64 18 1 ",
"  c black",
". c #010000",
"X c #000100",
"o c #000001",
"O c #C286FE",
"+ c #C386FE",
"@ c #C387FE",
"# c #C286FF",
"$ c #C386FF",
"% c #C287FF",
"& c #C387FF",
"* c #FFFEFE",
"= c #FEFFFE",
"- c #FFFFFE",
"; c #FEFEFF",
": c #FFFEFF",
"> c #FEFFFF",
", c white",
/* pixels */
"$$$$$$$$$$$$$$$$$#$$$$$$$$$$$&$$$+$$$$&$$$$$$$$$+&+$$$&$#$$+$$$$",
"$&$%$$$&+$$$$$$$$$$$$$#$$$$$+$$$$$$$%$$$$&$$&$$$#$$$$$&$$$$$$+$$",
"$$++$$$&$$$$$$+$$$$$$$+$+$$$       X$$$$$$$&$#$$$$$$$$$$&$+$$$$$",
"$&#$#$$+$&$$$&$&$$$+$$$$+   $$$$#$$$X  $$$$$$$$$$$$#$$$$$$#&$$$#",
"#$$$$&$$$$$+#$$$&$$$$##$$   #$$$$$$$   $$$&$$&$&$+$$$$$$$$$$$$$$",
"$$$$$$$#$$$$&$$$$#$$$$@& $$#$$$$%$$$$$$  $$$$$$$$#$$$&$$$$$$$+$$",
"$$$$$$$$#$#$$$&$$$&$$$  $$$+$$&#$$$$$$$$$X $$$$$$$$$$$$$$$$$$$$$",
"$$$#$$$$$$$$#$$$$$$$$$  +$#$$$$$$$$$$$$$$  $#$$$$$$$#$+$$$$$$+$$",
"$$#$$$#$$$$+$$$$$$$$ .$$$+$$$$$&$#$$$$$$$$$ #$$$$$$$$$$$$&$$$$$$",
"$$$#$$$$$$$$$$$$$$$$ o$$$$$$$$$$$$$&$$$#$$$ $$$$$$$$$$$$$$$$$$#$",
"$$$$$$$$$$$$$$$$$$$$  $$$$$$    X   &$$$&+$ $$$$$$$$$$$$$$$$$$$$",
"##$$$$$$#$$$&$$$$$$X$$$+$   ,,,,,,-,   $$$&$  $$$$$$$$$$$$$&$$$$",
"&$$$&$$$$$+$$$$$$$$ +$$$$   ,,,,,,,, o $#$$$  $$$$$$$$$$$$O$$$$&",
"$$$$$$$$$$$$$$$$$$& $$$$ ,,>,,,,,,,,,,,  $$$  $$$$$$$$$#$$$$$$$&",
"$$&$$$$$#$$$$$$$$  $$$  ,:,,,,,->,,,,,,,,  $$$ $$+$$$#$$$$$&$$$$",
"$$$$$$$$$$$$$$$$$  $+$  ,,,,,,,,,,,,,,,,> o$$$.&$$$$$$$$%&$$$$$$",
"$$$++$$$&$$$#$$+$  $#$X ,::,,,,,,,,,,-,,,  $$$ +$&$+$$$$$$$$#$$$",
"$$$#$#$$$$$$$$$$$  $#$  :,,,,,,,,,,,,,,,,  $$$ $$$$+$$&$$$$$$$$+",
"$$$$$$#%$$$$$$$$$  $  ,,,,,,,,,,,-,,,,,,-,> $$ $$$++$$$$$$$$$$$&",
"&$$$$$&$$$$$%$#$$  $  ,,,,,,,,,:,,-,,,,,,,, $$ $$$$$$$$$$$$$$$+$",
"$$&$$$$$$$$$$$$$$  $  ,,,,,,,:,,,>,,,,,,,,, &$ $$$$$$$$$%$$$$$$#",
"@$$$$$$&$$$$#$#$o  X,,,,,>:,,,>,,,,,,,,,,,,,     $$$$$$$$$$$$$$$",
"$&$$$$$#$$$$$$$&    ,,,,,     ,,,,,    >,,,,   o $$$$$$$$$$$+$$$",
"$$$$#$$$$$$$$$$$    :,,,,     ,,,,,    ,,,,,     $$$$$$#$$$+$$$$",
"$$##$$$$+$&$$$$$    ,:,,,     -,,=,  . :,:,,     $$#$$$++$$$$$$$",
"$$&$$$$$$$$$$$$$    ,,,,,     ,,,,,    ,,,,,  X  $$$+$$+$$#$$$$$",
"&$$$$$$$$$$$$$$$    ,,,,,  >  -,,,- ,, ,,>:, o   $$$$$$$$$$$$$$+",
"$$$$$#$$$$$$$$$$    ,,,,,  ,  ,,-,, ,, ,,-,,   X #$$$$$$$$$$$$$$",
"$$$#$$$$$$$$+$$+    ,,,,,  ,  ,,,,, ,, ,,,,,     $$+$$$$$$$$$$$#",
"$&$&$$$$$$$$$$$$  o -,,,,  ,  ,,,,> ,, ,,,,,     $$#$$$##$$$$$$#",
"$$$O$$$$$$$$$$$$X   ,,,,,o ,  ,,,,, ,, ,,,,,     $$$$$$$$$$$$$$$",
"$$$$$$&$$$$$#$$$ X  ,:,,>  ,  ,>,,, ,, ,,,,>     $$$$$$#$$$$$$$$",
"$$$$$$$+&&$$$$$$   o,,,>:  o  ,,,>,    ,-,,> o   $$$##$$$$$$&$$$",
"$$$$$&$$$$$$$$$$    ,,>,,     ,-,,-   o-,,,,     $$$$$$$$&$$$+$&",
"#$$$O$#$+$#&$$$$$$$ ,:,,,     ,:,-,   X,,,,=  $$#$$$$$$$$$$$$$$$",
"$$$$$$$$$$$$$$$#$$$ ,,,,,,,,,,,,,>,,,,,-,,,,  $$$$$$$$$$$$$$$$$&",
"$+$$$$$$$$$$+$$$$$$ ,,,,,,,,,,,,,,-,,,,,:,,,  $$$$$&&$$$$$$$$$$$",
"#$$$$$$$$$$$$$$$&$$ -,,,,,,,,,,,,,,,>,:-,,,,  $$$$$$$$$$$$$$$$$$",
"$$$$$$$$&$$$&$$$$$$ ,,,,-,,,,=,,,,,,,,>,,,,,  $$$$$$$$$$$$#$$$$$",
"$$$+#$$$$$$$$$$$#$$ ,,,,,,,,,,,,,,,,,,,,,,,,  $$&$$$$$$$$$$$O$$$",
"$$+$$+$+$$#$$$$$$$$ ,,,,>,,,,,-,,,:,,,,,,,,,  $$$$$$$$$$$$$+$$$@",
"$$$&$$$$&$$$$$$$$$$ ,,,,,>-,,,,,-,,-,,:,,,,,  $#$#$$$$$$$$&$$$$$",
"$O$#$$$$#$$$$$+$&$$X,,:,,:,,,,,,,,,,,,-;,-,,  $$$$$$$$$$$$$$$$$$",
"+$$$$$$#$$$$$$$$$$$ ,,,,,,,,,,,,,,,,,,,,,,,,  &$$$$$$$$$$$$$$+$$",
"$#$+$$$$$$$$$$$$$$# >,,,,,,,,-,,,:,,,,,,,,,,  $$&$$$$$$$$$$+$$$$",
"+$$$$$$$$$$$$$$&$#$ ,,,,,,,,,,,-,,,,,,,,,,,,  $$$$$$$$$$&$$$$$$$",
"$#$&$$$$#$$$$$$$$$$ ,,,,,,,,,,,:,,,,,>,,,>>,X $$$$$$$$$$$$$$#$$&",
"$%$$$&$$$$$$$$$$$$$ ,,,,,,,,,,,,,,,,,,,,,,,,  #$$$$$$$$$$$$$$$$$",
"$$$#+$$$$$$$&$$$&$$ ,,,,,,>,,,:,,,,,,,,,,,:,  $$$$$&$$$$$$$$$$$$",
"#$O$&$$$$$$$$$$$+$$ -,,,,,,,,,,,,,,,,,,,,,,,  $$&$$$$$$$$$$$$#$$",
"+##$$$$$$$$$$$$$$$$ -,,,,,:,,,,,,,,,,,,,,,,,  $$$$$$$$$$$$$$$$$$",
"$$$$$+$$$$+$$$$+$$$ ,,,,,,,,,,,,,,,,,,,,;,,,  $$$$$$$$$$$$$&$+O$",
"$$$$$+$$$$$$$$$&$+$ ,,,,,,,,,,,,,-,,,,,,,,,, .$$$$$$$$$&$$$$$&$$",
"+$$$$$$$$$$@$$$$+$$ *,,,,,,,,,,,:,,:,,,,,,,,  $$$$$$$$$+$$$$$$&$",
"$$$$$$$$++$$$$$$$$$ ,,,,,,,,,,,,,,,,,,,,,,:,  $$$$$$$$$$$$$$$$$$",
"&$$$$$$$$$$$$$$#$$# ,-:,,,,,,,-,,,,,,,,,,,,,  $$$$$&$$$$#$$$$$#$",
"$$$$$$+$$$$$#+$+$$$ ,,,,,-,,,,,,,>:,,,,,,,,,  $$$$$$$$$$$$$$$$$$",
"&$$$$$$$$$$$$&$$$$$ ,,,,,,, ,,,,,,, ,>,-,,,,  $$$$$$$$$$$$$$$+$&",
"$$&$$$$$$$$$$$$$$$$.,,>,,,, ,,,,,,, ,,-,:,>,  $$$+$$$$$$$$$+$$$$",
"$$$$+$$$$$$$$$$$$$$$  ,,,  $  ,,-  $  ,,,,, $$$$$$$$$$$$$$$$#$$$",
"$$$$$$$$$$$&$$$$$$$$  ,,,  $  ,,-  $  -,,,, $$$$$$$$$$$$$$$$$$$$",
"#$$$$$$$$$$$$$$$+$$$$$   $$$$&   $&$$$     $$$$$&$$$$$$$$$$$+$+$",
"$$$+$$$$$$$$$$$$$$$$$$$$$$$$$$$$$$&$&$$$$$$$$$+$$$$$$$$$$$+$$$#$",
"+&&$$$$$$+$$$$$$#$&$+$$&#$$$$$$$&$&$$#$$$&$$$$$$#$$$#+$$$$+$$$$$"
};
