/* XPM */
static char *e5bc1353101a45849eb5a7e3c876f416IC3yycxVtbv1UyLr[] = {
/* columns rows colors chars-per-pixel */
"64 64 12 1 ",
"  c #000100",
". c #010001",
"X c #4782C8",
"o c #4782C9",
"O c #4683C9",
"+ c #C286FE",
"@ c #C386FE",
"# c #C387FE",
"$ c #C386FF",
"% c #C287FF",
"& c #BDC0C9",
"* c #FFFEFF",
/* pixels */
"$$$$#$$$$$$$$$$$$$$$$$$$$$$$$$$$$$$$$$$$$$$$$$$$$$$$$$$$$$+++###",
"$$$$##$$$$$$$$$$$$$$$$$                   $$$$$$$$$$$$$$$$++%%##",
"$$$$####$$$$$$$$$$$$$$$                   $$$$$$$$$$$$$$$$$$$$##",
"$$$$####$$$$$$$$$$$    *******************    $$$$$$$$$$$$$$$$$$",
"$$$$$$##$$$$$$$$$$$    *******************    $$$$$$$$$$$$$$$$$$",
"$$$$$$%%$$$$$$$$$  ***************************  $$$$$$$$$$$$$$$$",
"$$$$$$$%$$$$$$$$$  ***************************  $$$$$$$$$$$$$$$$",
"$$$$$$$$$$$$$$$$$  ***************************  $$$$$$$$$$$$$$$$",
"$$$$$$$$@@$$$$$$$  ***************************  ##$$$$$$@$$$$$@@",
"$$$$$$$$$@$$$$$  *******************************  $$$$$$$$##$$@@",
"$$$$$$$$$$$$$$$  *******************************  $$$$$$$###$$@$",
"$$$$$$$$$$$$$$$  ****      ***********      ****  $$$$$$$+##$$$$",
"$$$$$$$$$$$$$$$  ****      ***********      ****  ##$$$$$$$$$$$$",
"$$$$$$$$$$$$$$$  ****      ***********      ****  $#$$$$$$$$$$$$",
"$$$$$$$$$$$$$$$  ****      ***********      ****  $$$$$$$$$$$$$$",
"$$$$$$$$$$$$$$$  ****      *****  ****      ****  $$$$$$$$$$$$$$",
"$$$$$$$$$$$$$$$  ****      *****  ****      ****  ##$$$$$$$$$$$$",
"$$$$$$$$$$$%$$$$$  **********       **********  #####$$$$$#$$$$$",
"$$$$$$$$%%$$$$$$$  **********       **********  ###$$$$$$$$$$$$$",
"$$$$$$$$%$$$$%$    **  *******************  **    $$$##$$$#$$$$$",
"$$$$$$$$$$$$$$$    **  *******************  **    #$$$$$@@@@$$$$",
"$$$$$$$$$$$$$$$  ****                       ****  ##$$$$@@@@$$#$",
"$$$$$$$$$$$$$$$  ****                       ****  ##$$$#@@@@$$$$",
"$$$$$$$$$$$$$$$  ******  **  ***  **  **  ******  ##$$$$@@@@$$$$",
"$$$$$$$$$$$$$$$  ******  **  ***  **  **  ******  $$$@@@@@$$$$$$",
"$$$$$$$$$%$$$$$$$    ****               ****    $$$$$@@$@@$$$$$$",
"$$$$$$$%$$$$$$$$%    ****               ****    $$$$$$$$@$$$$$$$",
"$$$$$$$$$$$$$$$$#    ****               ****    $$$$$$$$$$$$$$$$",
"$$$$$$$$$$$$$$$          ***************          $$$$$$$$$$$$$$",
"$$$$$$++$$$$$$$          ***************          $$$$$$$$$$$$$$",
"$$$$$$$$$$$$$  oo                               oo  $$$$$$$$$$$$",
"$$$$$$+$$$$$$  oo                               oo  $$$$$$$$$$$$",
"$$$$$$$$$$#    oo  &&&&  *******  ******  &&&&  oo    $###$$$$$$",
"$$$$$$$$$##    oo  &&&&  *******  ******  &&&&  oo    $%##$$$$$$",
"$$$$$$$$$$#  oooooo  &&&&       **      &&&&  oooooo  $$#$$$$$$$",
"$$$$$$$$$$#  oooooo  &&&&       **      &&&&  oooooo  $$##$$$$$$",
"$$$$$$$$$  oooo    oo      *****  ****      oo    oooo   $$$$$$$",
"$$@$$$$$$  oooo    oo      *****  ****      oo    oooo   $$$$$$$",
"@@@@$$$$#  oooooooo  oooo  ***********  oooo  Xooooooo   #$$$$$$",
"@@@@$$$##  oooooooo  oooo  ***********  oooo  oXoooooo   #$$$$$$",
"@@@@@@@@#  oooooooooo  oo    *******    oo  oooooooooo   #$$$$$$",
"@@@@@@@@#  oooooooooo  oo    *******    oo  oooooooooo   #$$$$$$",
"@@@@@@@@###  oooooo  oooo  ***********  oooo  oooooo  @@##$$$$$$",
"@@@@@@@@###  oooooo  oooo  ***********  oooo  oooooo  @@##$$$$$$",
"@@@@@@@@$$$$%    oo  oooo               oooo  oo    @@@@@@$$$$$$",
"@@@@@@@@$$#$#    oo  oooo               oooo  oo    @@@@@$$$$$$$",
"@@@@@@@@#$####$      oooo               oooo      $$@@@@@@$$$$$$",
"@@@@@@@@$$####$      oooo  .            oooo      $$@@@@@@$$$$$$",
"@@@@$$+$$$$$$$+$%                               %###$$$$$$$$$$$$",
"@@@@$$$$$$$$$$$$$                    .          ####$$$$$$$$$$$$",
"@@@@$$$$$$$$$$$                   .               ##$$@@$$$$$$$$",
"@@@@$$$$$$$$$$$                                   $$$$$@$$$$$$$$",
"@@$$$$$$$$$$$$$                                   $$$$@@$$$$$$$$",
"$@$$$$$+$$$$$$$                 ##                ##$$@@$$$$$$$$",
"$$$$$$$$$$$$$$$                 ##                ##$$$@$$$$$$$$",
"$$$$$$$$$$$$$$$$$            #######            ####$$$$$$$$$$$$",
"$$$$$$$$$$$$$$$$$            $$$##$#            $$$$@@@@$$@@@@@@",
"$$$$$$$$$$$$$      ********  $$$$#$$  ********      @@@@$$@@@@@@",
"$$$$$$$$$$$$$      ********  $$$$$$$  ********      +@@@$$$@@@@@",
"$$$$$$$$$$$$$  **********    $$$$$$$    **********  @@@@$$$$@@@@",
"$$$$$$$$$$$$$  **********    $$$$$$$    **********  @@@@@@@@@@@@",
"$$$$$$$$$$$$$$$          $$$$$$$$$$$$$$$          $$@@@@@@@@@@@@",
"$$$$$$$$$$$$$$$          #$%$$$$$$$$$$$$          $$@@@@@@@@@@@@",
"$$$$$$$$$$$$$$$$$$$$$$######$$$$$$$$$$$$##%$$$$$$$$$@@@@@@@@@@@@"
};
