/* XPM */
static char *_e93df641f964bda9b7581fb7e72fc70Y6E4Jz8s1YN3gdaJ[] = {
/* columns rows colors chars-per-pixel */
"64 64 15 1 ",
"  c black",
". c #010001",
"X c #4782C8",
"o c #4782C9",
"O c #4683C9",
"+ c #4783C9",
"@ c #C286FE",
"# c #C386FE",
"$ c #C387FE",
"% c #C386FF",
"& c #C387FF",
"* c #BDC0C9",
"= c #BDC1C9",
"- c #FFFEFE",
"; c white",
/* pixels */
"%%%%%%@@@@&&&%%%%%%%%%%%%%@$%%%%@@%%%%%%%%@$$$%%%%%%%%%@@@%%%%%%",
"%%%%%%@@$@&&&%%%%%%%%%%                   @$&$%&%%%%%%%@$$%%%%%%",
"%%%%%%%%$$$&%%%%%%%%%%%                   %%&&&&%%%%####&&&%%%%%",
"%%%%%%%%$$$$%%%%%%%    ;;;;;;;;;;;;;;;;;;;    &&%%%%####&&&&%%%%",
"%%%%%%%%%%%%%%%%%%%    ;;;;;;;;;;;;;;;;;;;    %%%%%%%%######%%%%",
"%%%%%%%%%%%%%%%%%  ;;;;;;;;;;;;;;;;;;;;;;;;;;;  %%%%%%######%%%%",
"%%%%%%%%%%%%%%%%%  ;;;;;;;;;;;;;;;;;;;;;;;;;;;  %%%%%%%#######%%",
"%%%%%%%%%%%%%%%%%  ;;;;;;;;;;;;;;;;;;;;;;;;;;;  %%%%%%%#########",
"%%%%%%%%%%%%%%%%%  ;;;;;;;;;;;;;;;;;;;;;;;;;;;  &&%%%%%%########",
"%%%%%%%%%%%%%%&  ;;;;;;;;;;;;;;;;;;;;;;;;;;;;;;;  %%%%&%########",
"%%%%%%%%%%%%&&&  ;;;;;;;;;;;;;;;;;;;;;;;;;;;;;;;  %%%%%%########",
"%%%%%%%%%%%%%&&  ;;;;      ;;;;;;;;;;;      ;;;;  &%%%%%########",
"%%%%%%%%%%%%%%%  ;;;;      ;;;;;;;;;;;      ;;;;  &&%%%%@@@%####",
"%%%%%$%%%%%%%%&  ;;;;      ;;;;;;;;;;;      ;;;;  &&%%%%@@@%####",
"%%%%$$@@%%%%%&&  ;;;;      ;;;;;;;;;;;      ;;;;  &%%%&&$&%%@@##",
"%%%%$$$%%%%%%&&  ;;;;      ;;;;;  ;;;;      ;;;;  %%%%&&&&%%@@@#",
"%%%%%%%%%%%%%%%  ;;;;      ;;;;;  ;;;;      ;;;;  &&%%%%%%%%%%%%",
"%%%%%%%%%%%%%%%%%  ;;;;;;;;;;       ;;;;;;;;;;  &&%&%%%%%%%%%%%%",
"%%%%%%%%%%%%%##%%  ;;;;;;;;;;       ;;;;;;;;;;  %%%%%%%&%%%%%%%%",
"%%%%%%%@%%%%###    ;;  ;;;;;;;;;;;;;;;;;;;  ;;    %%%%%&%%%%%%%%",
"%%%%%&&&%%%%&&&    ;;  ;;;;;;;;;;;;;;;;;;;  ;;    &&&&&&%%%%%%%%",
"%%%%@&&&%%%%%&&  ;;;;                       ;;;;  $@%%&&%%%%%%%%",
"%%%%%%&%%%%%%%&  ;;;;                       ;;;;  %@%$$&%%%%%%%%",
"%%%%%%%%%%%%%%&  ;;;;;;  ;;  ;;;  ;;  ;;  ;;;;;;  %%%@$$%%%%%%%%",
"%%%%########&&&  ;;;;;;  ;;  ;;;  ;;  ;;  ;;;;;;  ######%%%%%%%%",
"%%%%########$$&&%    ;;;;               ;;;;    %#######%%%%%%%%",
"%%%%########$$%%%    ;;;;               ;;;;    %%####%%%%%%%%%%",
"%%%%########@@@%%    ;;;;               ;;;;    %%####%%%%%%%%%%",
"%%%%%%########%          ;;;;;;;;;;;;;;;          %%%%%%%%%%%%%%",
"%%%%%%########%          ;;;;;;;;;;;;;;;          %%%%%%%%%%%%%%",
"%%%%%%#######  ++                               X+  %%%%%%%%%%%%",
"%%%%%%#######  ++                               X+  %%%%%%%%%%%%",
"%%%%%%%%&&&    ++  ***=  ;;;;;;;  ;;;;;;  =***  oo    %%%%&&&%%%",
"%%%%$%%%&&&    ++  =**=  ;;;;;;;  ;;;;;;  =***  oo    %%%%&&&&%%",
"%%%%%%%%&&&  ++++++  ==*=       ;;      *===  oooooo  %%%@@$%%%%",
"%%$%%%%%&&&  +ooX++  ====       ;;      **==  oooooo  %%%%$$%%%%",
"%%%%&&%%%  oooo    o+      ;;;;;  ;;;;      oo    XXoo   %%%%%%%",
"%%%%&$%%%  Xooo    ++      ;;;;;  ;;;;      oo    X+oo.  %%%%%%%",
"$%%%&$&&&  ooo+o+++  +XX+  ;;;;;;;;;;;  ++oo  ooo+++oo   &%%%%%%",
"%%%%&$$&&  XoXXX+++  XX++  ;;;;;;;;;;;  +++o  ooo+++oo   &%%%%%%",
"%%%%%%%%&  +XXXXXXooo  o+    ;;;;;;;    +X  ooooXX++++   &%%%%%%",
"%%%%%%%%&  +XXXXXXooo  o+    ;;;;;;;    +X  ooooX+X+++   &%%%%%%",
"%%%%%%%%%%&  ++Xooo  ooo+  ;;;;;;;;;;;  +++X  oXXXXX  %%&&%%%%%%",
"%%%%%%%%&&&  +++ooo  ooo+  ;;;;;;;;;;;  X++X  o+oXX+  %%&&%#%%%%",
"%%%%%%%%%%%%$    ++  +ooo     .         XXoo  ++    %%%%%%%%%%%%",
"%%%%%%%%%%%%$    ++  ooo+               XXoo  ++    %%%%%%%%%%%%",
"%%%%%%%%%%&&$$@      +o++               Xooo      %@%%%%%%&%&&%@",
"%%%%%%%%&&&&&$%      +++o               oooo      $$%%%%%%&&&$$@",
"%%%%############&                  .            $$$&############",
"%%%%############&                               $$&&############",
"%%%%############&                 .             %%&&############",
"#%%%############&                               %%&&############",
"#############@##&                ..             %%##############",
"################&&&                           $$%%##############",
"################&&%                           $$%%%#############",
"################$$@                 ========  $$%%%#############",
"%&&&@@%%####@###%%%                 ====****  %@@%%%%%%%##%%%@%%",
"%&&&@%%%########%%%  ;;;;;;;;   &&    **==**==  %%%%%%%%##%@%%%%",
"%%&&@@@%########%%%  ;;;;;;;;   &%    **====*=  %%%%%%%%##@#%%%%",
"%%$$$@@@########%  ;;;;;;;;;;   &&&&            %%%%%%%%####%%%%",
"%%%%#@@@#######@%  ;;;;;;;;;;   %%%%            %%%@%@%%%%%%%%%%",
"%%%%##@@########%               %%%%&&&&%%%%%%%%%%@%%%%%%%%%%%%%",
"%%%%############%               %%%%&&&&%%%%%%%%%%%@%%%%%%%%%%%%",
"%%%%############%%%%%%%%%%%%&&&%%%%&&&$&%%%%%%%%%%@%%%%%%%%%%%%%"
};
