/* XPM */
static char *_d937f8bf854444ff9853311911d62b34PzAlZD00Q8WWoHc[] = {
/* columns rows colors chars-per-pixel */
"64 64 10 1 ",
"  c #000100",
". c #010001",
"X c #4782C8",
"o c #4782C9",
"O c #C286FE",
"+ c #C387FE",
"@ c #C386FF",
"# c #C287FF",
"$ c #BDC0C9",
"% c white",
/* pixels */
"@@@@@@@@@@+@@@@@@@@@@@@@@@@@@@@@@@@@@@@@@@@@@@@@@@@@@@@@@@@@@@@@",
"@@@@@@@@@+@+@@+@@@@@@@@                   @@@@@@@@@@@@@@@@@@@@@@",
"@@@@@@@@@@@@@@@@@@@@@@@                   @@@@@@@@@@@@@@@@@@@@@@",
"@@@@@@@@@@@@@@@@@@@    %%%%%%%%%%%%%%%%%%%    @@@@@@@@@@@@@@@@@@",
"@@@@@@@@@@@@@@@@@@@    %%%%%%%%%%%%%%%%%%%    @@@@@@@@@@@@@@@@@@",
"@@@@@@@@++@@@@@@@  %%%%%%%%%%%%%%%%%%%%%%%%%%%  @@@@@@@@@@@@@@@@",
"@@@@@@@@@@@+@@@@@  %%%%%%%%%%%%%%%%%%%%%%%%%%%  @@@@@@@@@O@@@@@@",
"@@@@@@@@@@@@@@@@@  %%%%%%%%%%%%%%%%%%%%%%%%%%%  @@@@@@@@@@@@@@@@",
"@@@@@@@@@@@@@@@@@  %%%%%%%%%%%%%%%%%%%%%%%%%%%  @@@@@@@@@@@@@@@@",
"@@@@@@@@@@@@@@@  %%%%%%%%%%%%%%%%%%%%%%%%%%%%%%%  @@@@@@@@@@@@O@",
"@@@@@@@@@@@@@@@  %%%%%%%%%%%%%%%%%%%%%%%%%%%%%%%  O+@@@@@@@@@@@@",
"@@@@@@@@@@+@@@@  %%%%      %%%%%%%%%%%      %%%%  @@@@@@@@@@@@@@",
"@@@@@@@@@@@@@@@  %%%%      %%%%%%%%%%%      %%%%  @@@@@@@@@@@@O@",
"@@@@@@@@@@@@@@@  %%%%      %%%%%%%%%%%      %%%%  @@@+@@@@@@@@@@",
"@@@@@@@@@@@@@@@  %%%%      %%%%%%%%%%%      %%%%  @@O+O@@@@@@@@@",
"@@@@@@@@@@@@@@@  %%%%      %%%%%  %%%%      %%%%  @@@@@@@@O@@@@@",
"@@@@@@@@@@@@@@@  %%%%      %%%%%  %%%%      %%%%  @@@@@@@@@@@@+@",
"@@@@@@@@@@@+@@@@@  %%%%%%%%%%       %%%%%%%%%%  @@@@@@@@@@@@@@@@",
"@@@@@@@@@@@@@@@@@  %%%%%%%%%%       %%%%%%%%%%  @@@@@@@@@@@@@@@@",
"@@@@@@@@@@@@@@@    %%  %%%%%%%%%%%%%%%%%%%  %%    @@@@@@@@@@@@@@",
"@@@@@@+@@@@@@@@    %%  %%%%%%%%%%%%%%%%%%%  %%    @@@@@@@+@@@@@@",
"@@@@@@@@@@@@@@@  %%%%                       %%%%  @@@@@@@@+@@@@@",
"@@@@@@@@@@@@@@@  %%%%                       %%%%  @@@@@@@@@@@@@@",
"@@@@@@+@@@@@@@@  %%%%%%  %%  %%%  %%  %%  %%%%%%  @@@@@@+@@@@@@@",
"@@@@@@@@@@@@@@@  %%%%%%  %%  %%%  %%  %%  %%%%%%  @@@@@@@@@@@@@@",
"@@@@@@@@@@@@@@@@@    %%%%               %%%%    @@@@@@@@@@@@+@@@",
"@@@@@+@@@+@@@@@@@    %%%%               %%%%    @@@@@@@@@@@@@@+@",
"@@@@+@@@@@@@@@@@@    %%%%               %%%%    @@@@@@@@@@@+@@@@",
"@@@@@@@@@@@@@@@          %%%%%%%%%%%%%%%          @@@@@@@@@@@@@@",
"@@@@@@@@@@@@@@@          %%%%%%%%%%%%%%%          @@@@@@@@@@@@@@",
"@@@@@@@@@@@@@  oo                               oo  +@@@@@+@@@@@",
"@@@@@@@@@@@@@  oo                               oo  @@@@@@@@@@@@",
"@@@@@@@@@@@    oo  $$$$  %%%%%%%  %%%%%%  $$$$  oo    @@@@@@@@@@",
"@@@@@@@@@@@    oo  $$$$  %%%%%%%  %%%%%%  $$$$  oo    @@@@@@@@@@",
"@@@@@@@@@@@  oooooo  $$$$       %%      $$$$  oooooo  @@@@@@@@@@",
"@@@@@@@@@@@  oooooo  $$$$       %%      $$$$  oooooo  @@@@@@@@@@",
"@@@@@@@@@  oooo    oo      %%%%%  %%%%      oo    oooo   @@@@@@@",
"@@@@@@@@@  oooo    oo      %%%%%  %%%%      oo    oooo   @@@@@@@",
"@@@@@@@@@  oooooooo  oooo  %%%%%%%%%%%  oooo  oooooooo   @@@@@@@",
"@@@@@@@@@  oooooooo  oooo  %%%%%%%%%%%  oooo  oooooooo   @@@@@@@",
"@@@@@@@@@  oooooooooo  oo    %%%%%%%    oo  oooooooooo   @@@@@@@",
"@@@@@@@@@  oooooooooo  oo    %%%%%%%    oo  oooooooooo   @@@@@@@",
"@@@@@@@@@@@  oooooo  oooo  %%%%%%%%%%%  oooo  oooooo  +@@@@@@@@@",
"@@@@@@@@@@@  oooooo  oooo  %%%%%%%%%%%  oooo  oooooo  @@@@@@@@@@",
"@@@@@@@@@@@@@    oo  oooo               oooo  oo    @@@@@@@@@@@@",
"@@@@@@@@@@@@@    oo  oooo      .        oooo  oo    +@@@@@@@@@@@",
"@@@@@@@@@@@@@@@      oooo    .          oooo      @@@@@@@@@@@@@@",
"@@@@@@@@@@@@@@@      oooo               oooo      @@@@@@@@@@@@@@",
"@@@@@@@@@O@@@@@@@                               @@@@@@@@@@@@@@@@",
"@@@@@@@O@+@@@@@@@                               @@@@@@@@@@@@@@@@",
"@@@@@@O@+@@@@@@                                   @@@@@@@@@@@@@@",
"@@@@@@@@@@@@@@@                                   @@@@@@@@@@@@@@",
"@@@@@@@@@@@@@@@                                   @@@@@@@@+@@@@@",
"@@@@@@@@@@@@@@@                 @@                @@@@@@@@+@+@@@",
"@@@@@@@@@@@@@@@                 @@                @@@@@@@@+@@@@@",
"@@@@@+@@@@@@@@@@@            @@@@@@@            @@@@@@@@@@@@@@@@",
"@@@@@@@@@@@@@@@@@            @@@@@@@            @@@@O@@@@@@@@@@@",
"@@@@@@@@@@@@@      %%%%%%%%  @@@@@@@  %%%%%%%%      O@@@@@@@@@@@",
"@@@+@@@@@@@@@      %%%%%%%%  @@@@@@@  %%%%%%%%      +@@@@O@@@@@@",
"@@@@@@+@@@@@@  %%%%%%%%%%    @@@@@@@    %%%%%%%%%%  @@@@@@@@@@@@",
"@@@@@@@@@@@@@  %%%%%%%%%%    @@@@@@@    %%%%%%%%%%  @@O@@+@@@@@@",
"@@@@@@@@@@@@@@@          @@@@@@@@@@@@@@@          @@@@@@+O@@@@@@",
"@@@@@@@@@@@@@@@          @@@@@@@@@@@@@@@          @@O@@@@@@@@@@@",
"@@@@@@@@@@@@@@@@@@@@@@@@@@@@@@@@@@@@@@@@@@@@@@@@@@@@@@@@@@@@@@@@"
};
