/* XPM */
static char *_13473118cc74d3499d0c01ce9622b93pxmq2R14lXFCnb0G[] = {
/* columns rows colors chars-per-pixel */
"64 64 11 1 ",
"  c #000100",
". c #010001",
"X c #4782C8",
"o c #4782C9",
"O c #C286FE",
"+ c #C387FE",
"@ c #C386FF",
"# c #BDC0C8",
"$ c #BDC0C9",
"% c #FFFEFE",
"& c white",
/* pixels */
"@@@@@@@@@@@@@@@@@@@@@@@@@@@@@@@@@@@@@@@@@@@@@@@@@@@@@@@@@@@@@@@@",
"@@@@@@@@@@@@@@@@@@@@@@@                   @@@@@@@@@@@@@@@@O@@@@@",
"@@@@@@@@@@@@@@@@@@@@@@@                   @@@@@@@@@@@@@@@@@@@@@@",
"@@@@@@@@@@@@+@@@@@@    &&&&&&&&&&&&&&&&&&&    @@@@@@@@@@@@@@@@@@",
"@@@@@@@@@++@@@+@@@@    &&&&&&&&&&&&&&&&&&&    @@@@@@@@@@+@+@@@@@",
"@@@@@@@@@@@@@@+@@  &&&&&&&&&&&&&&&&&&&&&&&&&&&  @@@@@@@@@@@@@@@@",
"@@@@@@@@@@@@@@@@@  &&&&&&&&&&&&&&&&&&&&&&&&&&&  @@@@@@@@@@O+@@@@",
"@@@@@@@@@@@@@@@@@  &&&&&&&&&&&&&&&&&&&&&&&&&&&  @@@@@@@@@@@@@@@@",
"@@@@@@@@@@@+@@@@@  &&&&&&&&&&&&&&&&&&&&&&&&&&&  @@@@@@@+@@+@@@@+",
"@@@@@@@@@@@@@@@  &&&&&&&&&&&&&&&&&&&&&&&&&&&&&&&  @@+@@@@@@@@@@@",
"@@@@@@@@@@@@@@@  &&&&&&&&&&&&&&&&&&&&&&&&&&&&&&&  @@@@@@@@@+@+@@",
"@@@@@@@@@@@@@@@  &&&&      &&&&&&&&&&&      &&&&  @@@@@@@@@@@@@@",
"@@@@@@@@@@@@@@@  &&&&      &&&&&&&&&&&      &&&&  @@@@@@@@++@@@@",
"@@@@@@@@@@@@@@@  &&&&      &&&&&&&&&&&      &&&&  @@@@@@++@@@@@@",
"@@@@@@@@@@@@@@@  &&&&      &&&&&&&&&&&      &&&&  @@@@@@@@@@@@@@",
"@@@@@@@@@@@@@@@  &&&&      &&&&&  &&&&      &&&&  @@@@@@@@@@+@@@",
"@@@@++@@@@@@@@@  &&&&      &&&&&  &&&&      &&&&  @@@@@@@@@@@@@@",
"@@@@@@@@@@@@@@@@@  &&&&&&&&&&       &&&&&&&&&&  @@@@@@@@@@@@@@@@",
"@@@@@@@@@@@@@@@@@  &&&&&&&&&&       &&&&&&&&&&  @@@@@@@@@@@@@@@@",
"@@@@@@@@@@@@@@@    &&  &&&&&&&&&&&&&&&&&&&  &&    @@@@@@@+@@@@@@",
"@@@@@@@@@@@@@@@    &&  &&&&&&&&&&&&&&&&&&&  &&    @@@@@@@@+@@@@@",
"@@@@@@@@@@@@@@@  &&&&                       &&&&  @@@@@@@@+@@@@@",
"@@@@@@@@@@@@@@@  &&&&                       &&&&  @@@@@@@@@@@@@@",
"@@@@@@@@@@@@@@@  &&&&&&  &&  &&&  &&  &&  &&&&&&  @@@@@@@@@@@@@@",
"@@@+@@@@@@@@@@@  &&&&&&  &&  &&&  &&  &&  &&&&&&  @@@+@@@@@@@@@@",
"@@@@@@@@@@@@@@@@@    &&&&               &&&&    @+O@@@@@@@@@@@@@",
"@@@@@@@@O@@@@@@@@    &&&&               &&&&    @@@@@@@@@@@@@@@@",
"@@@@@@@@@@@@@@@@@    &&&&               &&&&    @@@@@@@@@@@@@@@@",
"@@@@@@+@@@@@OO@          &&&&&&&&&&&&&&&          @@@@@@@@@@@@@@",
"@@@@@@@@O@@@O@@          &&&&&&&&&&&&&&&          @@@@@@@@@+@@@@",
"@@@@@@@+@@@@+  oo                               oo  @@@@@@@@@@@@",
"@@@@@@@@@@@@+  oo                               oo  @@@@@@+@@@@@",
"@@@@@@@@@@@    oo  $##$  &&&&&&&  &&&&&&  $$$$  oo    @@@@@@@@@@",
"@@@@@@@@@@@    oo  $##$  &&&&&&&  &&&&&&  $$$$  oo    @@@@@@@@@@",
"@@@@@@@@@@@  oooooo  $$$$       &&      $$$$  oooooo  @@@@@@@@@@",
"++@@@@@@@@@  oooooo  $$$$       &&      $$$$  oooooo  @@@@@@@@@@",
"@@@@@@@@@  oooo    oo      &&&&&  &&&&      oo    oooo   @@@@@@@",
"++@@@@@@@  oooo    oo      &&&&&  &&&&      oo    oooo   @@@@@@@",
"@@@@@@@@@  oooooooo  oooo  &&&&&&&&&&&  oooo  oooooooo   @@@@@@@",
"@@@@@@@@@  oooooooo  oooo  &&&&&&&&&&&  oooo  oooooooo   @@@@@@@",
"@@@+@@@@@  oooooooooo  oo    &&&&&&&    oo  oooooooooo   @@@@@@@",
"@@@@@@@@@  oooooooooo  oo    &&&&&&&    oo  oooooooooo   @@@@@@@",
"@@@@@@@@@@@  oooooo  oooo  &&&&&&&&&&&  oooo  oooooo  @@@@@@@@@@",
"@@@@@@@@@@@  oooooo  oooo  &&&&&&&&&&&  oooo  oooooo  @@@@@@@@@@",
"@@@@@@@@@@@@@    oo  oooo               oooo  oo    @@@@@@@@@@@@",
"@@@@@@@@@@@@@    oo  oooo               oooo  oo    @@@@@@@@@@@@",
"@@@@O@O@@@@@@@@      oooo               oooo      @@@@@@@@@@@@@@",
"@@@@@@@@@@@@@@@      oooo               oooo      @@@@@@@@@@@@@@",
"@@@@@@@@@@@@@@@@@                               @@@@@@@@@@@@@@@@",
"@@@@@@@@@@+O@@O@@                               @@@@@@@@@@@@@@@@",
"@@@O@@@@@@@@@@+@@                               @@@@@@@@@@@@@@@@",
"@@@+@@@@@@@@@@@@@                               @@@@@@@@@@@@@@@@",
"@@@@@@@@@@@@@@@O@                               @@@@@@@@@@@@@@@@",
"@@@@@@@@O@@OO@@+@@@                           @@@@@@@@@@@@@@@@@@",
"@@@@@@@@+@@@@O+@@@@            .              @@@@@@@@@@@@@@@@@@",
"@@@@@@O@@@@@@@+@@@@  $$$$$$$$                 @@@@@@@@@@@@@@@@@@",
"@@@@@@@@@@@@@@@@@@@  $$$$$$$$                 @@@@@@@O@@@@@@@@@@",
"@@@+@@@@@@@@@@@@@  $##$$$$$     @@  &&&&&&&&  @@@@@@@@@@@@@@@@@@",
"+@@@@O@@@@@@+@@@@  $#$#$$#$     @@  &&&&&&&&  @@@@O@@@@@@@@@@@@@",
"@@@@++@+@@@@@@@@@            @@@@@  &&&&&&&&&&  +O@@@@@@@@@@@@@@",
"@@@@O+@+@O@@+@@@@            @@@@@  &&&&&&&&&&  @@@@@@@@@@@@@@@@",
"@@@@@@@@@@@@@+@@@@@@@@@@@@@@@@@@@@              @@@@@@@@@@@@@@@@",
"@@@@@@@@@@@@@O@@@@@@@@@@@@@@@@@@@@              +O@@@@@@@@@@@@@@",
"@@@@@@@@@@@@@@@@@@@@@@@@@@@@@@@@@@@@@@@@@@@@@@@@@@@O@@@@@@@@@@@@"
};
