/* XPM */
static char *_b241b690b0d46c5caee1770c9aa6f73wrBXYqj3xASG2EWs[] = {
/* columns rows colors chars-per-pixel */
"64 64 4 1 ",
"  c #C386FE",
". c #C286FF",
"X c #C386FF",
"o c #C387FF",
/* pixels */
"XXXXXXXXXXXXXXXX                                                ",
"XXXXXXXXXXXXXXXX                                                ",
"XXXXXXXXXXXXXXXX                                         .      ",
"XXXXXXXXXXXXXXXX    .      .                                    ",
"XXXXXXXXXXXXXXXX                                o          o    ",
"XXXXXXXXXXXXXXXX                                   .     .      ",
"XXXXXXXXXXXXXXXX                                                ",
"XXXXXXXXXXXXXXXX                                                ",
"        XXXXXXXX                 .                              ",
"        XXXXXXXX          .                                     ",
"        XXXXXXXX                                       .  o     ",
"        XXXXXXXX          .                                o    ",
"          XXXXXX .                    .                      .  ",
"           XXXXXX                        o      .          o    ",
"          XXXXXX     X                                        o ",
"          XXXXXX                                         .      ",
"           .                        o                           ",
"                                                       .        ",
"                              .                                 ",
"   X           .                             o   .              ",
"                                o                             . ",
"                                              .                 ",
"            .                                        o          ",
"                                    .             .             ",
"                                   .       .            o       ",
"             .                                                  ",
"       X X                          .      .       o            ",
" X               .                    .                         ",
"                                                    . .         ",
"                          .                          o          ",
"   X                             .        .                     ",
"                                                                ",
"                      .                       o                 ",
"            o                                .    .             ",
"    .                                          .                ",
"                        o          .                            ",
"     o                                 o               o   o    ",
"            o  o                        o                       ",
"                   .                              o .           ",
"                             .                   .          o   ",
"     .                              .                           ",
" .                                                              ",
"            o o   o                                  o          ",
"                             .            .          o   o      ",
"                        .                         o             ",
"   o.        o           .     o        o o   .    .            ",
"         .                                  o                   ",
"  o      o                                  .o                  ",
"                             o                       ..         ",
"       o               o  .                                     ",
"                                                                ",
"                                                    .  .      o ",
"                                                                ",
"                                   o       .                .   ",
"                         o    o                    o       .    ",
"                      o          o    o        o                ",
"                          .          o       o                  ",
"         .            o                    .                    ",
"    .                                   .            .          ",
"   .                       oo     o                 o           ",
"          .                    o    o o              .          ",
"          .                                                     ",
"               .                                                ",
"                                                                "
};
