/* XPM */
static char *result[] = {
/* columns rows colors chars-per-pixel */
"64 64 51 1 ",
"  c black",
". c #010000",
"X c #000100",
"o c #000001",
"O c #010001",
"+ c #000101",
"@ c #223832",
"# c #233832",
"$ c #223932",
"% c #233932",
"& c #223833",
"* c #233833",
"= c #233933",
"- c #386456",
"; c #396456",
": c #386556",
"> c #396556",
", c #396457",
"< c #386557",
"1 c #396557",
"2 c #385464",
"3 c #385564",
"4 c #385465",
"5 c #395465",
"6 c #426276",
"7 c #426376",
"8 c #436376",
"9 c #426277",
"0 c #436277",
"q c #426377",
"w c #436377",
"e c #84A2D8",
"r c #85A2D8",
"t c #84A3D8",
"y c #85A3D8",
"u c #85A2D9",
"i c #84A3D9",
"p c #85A3D9",
"a c #C286FE",
"s c #C386FE",
"d c #C287FE",
"f c #C387FE",
"g c #C286FF",
"h c #C386FF",
"j c #C287FF",
"k c #C387FF",
"l c #CFDAFE",
"z c #CFDBFE",
"x c #CFDAFF",
"c c #CEDBFF",
"v c #CFDBFF",
/* pixels */
"hhhhhhhhhhhhhhhhkhhhhhhhhhhhhhhhhghhhhhhhshhhhhshshhhhhhhhhhhhhh",
"hhhghhhhhhhhhhhhhhhhhhhhhhhhhhkhhhghhhhhhhhhhhhhhkhhhghhhhskhhhh",
"hkhshhghhhhhhhhhhhhahhhhhhkhhk hhhhhhhhhhhhhhhhhhhhhhhhhhhhhhhhh",
"hhsshghhhhhhhhhkhkjhhhhkhkh  #z hhkhahhhshhhhhhhhhhhhhhhhhhhhssh",
"hhfhhhhkhhkhhghhhhhhhhhhhhovovv hhhhhhshhhskghhhhhhhkhhshkkhkhhh",
"hhhhkhhhhhhhhhghhhhhhhhkhhh.vvv# hhkhhhshhhkhhhhhhhshhhhhshhsshh",
"hhkgshhhhhhshhhhhhhhhhhhhh vvv#v.hkhkahhhhhhhhhhhhhhhhhhhhkhhhhh",
"hhhhkfhhhshhshhhhshhhhhkh vvvv#vv.hhhhhhhshhhhhkhhhhhhshhhahhhhh",
"hhhkhfhskhhhhhhsghhkhh  .vzzvvvvvc   hshhhhhhhhshghhhhhhhhhkhhhh",
"hhhhhhhhhhhhhkhhhh .  ppyvvvzvyycvp## X o  ohhhhkhhhhshkshhhhhhh",
"hhshhhksshhhhhhhh vvp4yyvvvtxvyrxvvy#r244yvv hhhhhhhhhhhshhhhhhh",
"hhhhkhhkhhhhhhhhhhXyqy4tvvyyvvyyyvyyy#3y45y hhhkhfhhhhhhshskhhhh",
"hhjhhhhhhhhhhhho  #qqyruryyryxyy>yypyy444y hshhhhhhhhhhhhhhhhhhh",
"hhhhkhhhshshh  vy1yqyqy>irypyyyyy#ytyyto .ohhhhhhhhhhfjkhhhhhghh",
"hhhhshhhhhhh #vvvyqqq9q#>tyyyyyyy>>y6yqqr4y hhhghkshhhhhhhhhhhhh",
"hhhhshhhhhhhh   ty9q#*#qyqyyyqpyty#qqqq9qyyvXXhhhjhhhgkhhkkkhhgh",
"hhdhhhskhhgshhkho  $#7qqqqpqq9qry7q#qqqqy4ccv hhhhhhhhkkhhhhhhhh",
"hgshhhhhhhhhhkhhhhh r#yyqqqqqqq7wpqq#@qyyvvo hhhhhhhkhhhhhhhhhhh",
"hhhhhhhhhhhhhhhhhho##vytqq7=9q#qqqqy#y@##  hahhhhhkhhshhhkhhhhgh",
"hhhhhkhhhhhhhhhhk.###vryqq##y#qqqqwy##x@#%#hhhhhshhhhhhhhhhshhhh",
"ghkhhhhhkhhhhsk  *####v>y*##t##qyyy#####@#q Xhhhhhhhhhhkhhshhhhh",
"hhkhhhhhhksh   qq########%######>vx#@###qq7y>   khhhhhhhhskhhhhh",
"hhhhhhhkhh.oyqq0qq#*#####&%#*#%###v#%##qq6qqyycv  hhhhhhkhhhhhhh",
"hhkkhhhhh vvypqyq##qq###%##q*########97qwwqq#>yvx.hhghhhkhhhhhhh",
"hhhshhhhhk vvyywwqqqqq*q##*qq###q###q9qqqqqy>##Ooshhkhhhhhhshhhh",
"hhhkhhhhsfh  v>#q7qqq##qq*qqqq#q9q##7qqqqqy>y# hshhhhhshhhhshhhh",
"hhhhhhhhhkhsh  qqwqww#q9#qqqqq#7wqq##qqwqqwyyv>o. hkshhhfkhhhhhh",
"hhhhhhhhhhhh >*yqq9qq9wqqqqqqqqqqqqqq@qqqqq9rvvxv hhhshhhhshhhhh",
"hhhhkhshh  +>lypyq7qqqw9qq7qqqqqqq7qqwq7qqy7qqv>okahhhshhhhhhhhh",
"hhhhshhhs >vvvyyqqwqq7qqqq9qqqqq9qq7qqqqqy>##q# hhhhhhhhhkhshhhh",
"hhhhhhhhshX#>vqqw#qqq7qq9qqqqqqqq9q797qqyyv$*##  hhhshhkghhhghhh",
"ghhhhhhhhhhX ##y#;yq@7qqy7q7qqwqqqqwyq#qqqzz#*Xhhhhhhhhhkhhhshhh",
"hhhhhjhhhhhh #*@#y>@wq7p>y7yqqqqqqyyyt>*#yv>###  hfhhhhhhhhhhghg",
"hhhhh# ghg  q%#>v###pt$>tyyqqy9yqqyyvvv>#;>t;#### .hh  #hhhhhhkk",
"hhhhgXv   #yq@#####vy%#yyyypyyyy#qyvv>vv@@*#yy##1#q  yv hkhhhhhh",
"hghhkh vzypqqq####vv##vvvyyy>yyv#y;vv>>v>*###**##qqyyy khhhhhhhh",
"hhhso v>yyqqw9##6####v##cvvv>#vv#y>>>##*v#####%##@qqyX ohhhhhhhh",
"hhh #vtyyrqqq#qqw#######vzv>##*v#vv#%#%##%#####qqqq7qy>v hhhhhhh",
"hhh vvyypqqqq7qq*#####@z##v>###c*v*v#@######w7wqqqq7yyv> hsahhgh",
"hhah ##>1vq#6qqq##%#*###@##v##########@#######qqqqqqqyx hhhhhkhh",
"hkhhkh  v  qq77q***############%**#@#*############wqy#> hhhhhhhh",
"hhhkkhsh  q9qq9q####q####@#####%#########*>*###q97qytv hkhhhhhhh",
"ghhhhhh  y9qqqq##79qq#%######@###########q#qqqqqq9p>y hhshhhhhhh",
"hhhhhh xy9qqq9qqqqqq8##%##8#####%#@qq####q7qqqqqyyyr>v.X hhhhhhh",
"hhhs. vvyyyqywqwqqqq7###qq9###@=@q#q7q%###qqq7qy,tvcv1vv hhhhhhh",
"hghh vvvxyttqqqqqyq9#7qqqqq#*###qwq#q9qq###wyqy>y>vvv#> hhshhhhh",
"hhkhho;*zvvty9 yyqqqqqqqwqqq###qqqqqqqqqq9qyyyyy>><#>> hhhhhhhhh",
"hhhhkho z#;## yy1yyqqqwqqqww##qqqqqqwqqqwqpyyyyyzx>>  hshhhhhhhh",
"hhhhhhhh .vX yyyryypqqqqqqqq@qqq9qqqqqqq#qqytyyzv   hhhhhhhhhhsg",
"hhsshhhhh *# >yypyyyrqqq7qqqq7qqqqqq9qyq*qyyyycvv>ohhhkhhhshhhhh",
"hhkhhhhh ### vvvyyyy>#qyqywqqqqqw7qqqyyt>#>>zzvvvv>Xhhhkhhhhkhhh",
"hgshhhg X#Xovvvcvyy>y#pyyqqqqqqqq7yqy>yyy >#>vvvv#> hhhhhhhhhhhk",
"hhkhskhhh   vxv>x:ty#>yyyqyqyqqq7yyeyy:pvvzv>#>    hkhhhhhhhhhhh",
"ghhhhhhhhh >vv:vvc #.cvvvt>#yyyyy>ytyyvvvv vv ##ohhshhhhkhhghhhh",
"hhhhhhhhhh >#;1>  ## vvvvv>#yyyvv#vvvcvvvz; o#  hhhhhhhhhhhhhhhh",
"hhhhhhhhhho     #####+*>#vv#vvvcvvvvvv>vv:c:  hhhhshhkhhhhhhhhhh",
"hhhhkhhhhkhhhhhhh  ###Oo.># xvvx*cv #-#>#>  hhkhhhhhhhhhhhhhhhhh",
"hhshhkhshhhhhhhhsgh   @@# o v>#vX#v*#$#.  hhhhhhhhhhhshhhhhhhhhh",
"hhhhhhhhfhhhhhkhkkhhhh .        g   X  hhhhkkhhjhhhhhhhhhhhhhhhh",
"hhhhhhhhhhhhhhhhhhhhhhhhhhhhhhhhhhhhhhhhhhhhhhhhhhhhhhhhhhshhhhh",
"hhhhhhhhhhhhhhhhhhhhhkhhhkhhhhhhhhhhhhhhkhhghhhhhhhkhhhhhhkhhhhh",
"hhhhhhhhhhhkhhhhhhhhshhhhhghhhhhhhhhhhhhhhhhhhhhghhhhhhhhkhhhhhh",
"ghshhhhhhhhhhhhhhhhhshhhhhhhhhhhhhhhhhhhghhshshhhhhhhhhhhhhhhhhh",
"hhhhhhhhhhghhhhhhhhhhkhhhhhhhhhhhhhhhshhhghhhhhhhhhhhhhhkhhhhhhh"
};
