/* XPM */
static char *_920763cfd9c4115bb8471fcd55262ddgVNzaZX4LaDrD4YM[] = {
/* columns rows colors chars-per-pixel */
"64 64 13 1 ",
"  c #000100",
". c #010001",
"X c #4782C8",
"o c #4683C8",
"O c #4782C9",
"+ c #C286FE",
"@ c #C386FE",
"# c #C386FF",
"$ c #C387FF",
"% c #BDC0C9",
"& c #FEFFFE",
"* c #FFFEFF",
"= c #FEFFFF",
/* pixels */
"#######################################################++$######",
"#######################                   ############++$$$$####",
"#######################                   ##############$$$$####",
"###################    *******************    ##########$$$$####",
"###################    *******************    ##################",
"#################  ***************************  ################",
"#################  ***************************  ################",
"#################  ***************************  ################",
"#################  ***************************  $$##############",
"###############  *******************************  ##############",
"###############  *******************************  ##########@###",
"###############  *******************************  ####@@####@###",
"###############  *******************************  $$###@++##@@@@",
"###############  *******************************  #$###@+###@@@@",
"###############  *******************************  ##$#$$++##@@@@",
"###############  *******************************  ##$$$$$$@@@@@@",
"++$$$##########  *******************************  $$############",
"++$$$$###########  ***************************  $$##############",
"+$$$##$##########  ***************************  $$##############",
"+$$$###########    ***************************    ##############",
"@@@@###$#######    ***************************    ######@@@@#@@@",
"@@@@###########  ********               ********  ######@@@@@@@@",
"@@#############  ********               ********  $#####@@@@@@@@",
"@@#############  ********               ********  $$####@@@@@@@@",
"@@@@@@@@@@@@###  ******      *******      ******  ##++++@@@@@@@@",
"@@@@@@@@@@@@###  ******      *******      ******  ###+++@@@@@@@@",
"@@@@#@##@@@@#####    ******    **     ******    ######@@@@@@@@@@",
"@@@@####@@@@#####    ******    **     ******    ######@@@@@@@@@@",
"@@@@@@##@@@@@@#                                   ##@@@@@@@@@@@@",
"@@@@@@##@@@@@@#                                   ##@@@@@@@@@@@@",
"@@@@@@@@@@@@@  OOOO    %%%%%%%%%%%%%%%%%%%    OOOO  @+@@@@@@@@@@",
"@@@@@@@@@@@@@  OOOO    %%%%%%%%%%%%%%%%%%%    OOOO  @@@@@@@@@@@@",
"########$$     OOOOOOOO    %%%%%%%%%%%    OOOOOOOO    ##########",
"########$$     OOOOOOOO    %%%%%%%%%%%    OOOOOOOO    ##########",
"########$$   OOOOOO  OOOOOO           OOOOOO  OOOOOO  ##########",
"##########   OOOOOO  OOOOOO           OOOOOO  OOOOOO  ##########",
"########  OOOOOOO      OOOOOOOOOOOOOOOOOOO      OOOOOO  ########",
"########  OOOOOOO      OOOOOOOOOOOOOOOOOOO      OOOOOO  ########",
"@@##$#$$  OOOOOOOOO  OOOOOOOOOOOOOOOOOOOOOOO  OOOOOOOO  ########",
"@@@#$$$$  OOOOOOOOO  OOOOOOOOOOOOOOOOOOOOOOO  OOOOOOOO  ########",
"@@@@@@@@  OOOOOOOOO  OOOOOOOOOOOOOOOOOOOOOOO  OOOOOOOO  ########",
"@@@@@@@@  OOOOOOOOO  OOOOOOOOOOOOOOOOOOOOOOO  OOOOOOOO  ########",
"@@@@@@@@$$   OOOO  OOOOOOOOOOOOOOOOOOOOOOOOOOO  OOOO  ##########",
"@@@@@@@@$$   OOOO  OOOOOOOOOOOOOOOoOOOOOOOOOOO  OOOO  ##########",
"####@@@@####$      OOOOOOOOOOOOOOOOOOOOOOOOOOO      $$$#########",
"####@@#@####$      OOOOOOOOOOOOOOOOOOOOOOOOOOO      $$@$########",
"#########$#$$$$      OOOO               OOOO      $$$$$$########",
"#########$#$$$$      OOOO               OOOO      #$$$$+++######",
"###############      OOOO               OOOO      $$############",
"##############$$$                               $$##############",
"################$                .              $$##@@@#########",
"#############$$                                   ##@@@#########",
"###############                                   ###$##########",
"##############$                $$                 #$############",
"##############$                $$                 $$$###########",
"##############$$+            $$$$$$$            $$$$$###########",
"#############$$#+            ###$$##            ####@@@@##@@@@@@",
"#############      ********  ###$$##  ********      @@@@####@@@@",
"############$      ********  #######  ********      @@@@####@@@@",
"############$      ********  #######  ********      @@@@####@@@@",
"############$      ********  #######  ********      @@@@@@@@@@@@",
"##############$$###          #######          ######@@@@@@@@@@@@",
"##############$####          #######          ######@@@@@@@@@@@@",
"######################$$+###########################@@@@@@@@@@@@"
};
