/* XPM */
static char *bff3431d47a9470bc1564dbf0cad84bcAdXZi1ldNqOSy1Ui[] = {
/* columns rows colors chars-per-pixel */
"64 64 13 1 ",
"  c #000100",
". c #4782C8",
"X c #4782C9",
"o c #4683C9",
"O c #4783C9",
"+ c #C386FE",
"@ c #C387FE",
"# c #C386FF",
"$ c #C287FF",
"% c #BDC1C8",
"& c #BDC0C9",
"* c #FEFFFE",
"= c #FFFEFF",
/* pixels */
"################################################################",
"###########@###########                   ######################",
"#######################                   ######################",
"###################    ===================    #############@####",
"############@######    ===================    ##################",
"#################  ===========================  ###############@",
"#################  ===========================  ############@###",
"#################  ===========================  ################",
"#################  ===========================  ################",
"###############  ===============================  ##############",
"###############  ===============================  #$$###########",
"#@#############  ===============================  #####@########",
"###############  ===============================  ##############",
"###############  ===============================  ##############",
"###############  ===============================  ##############",
"###############  ===============================  ######@#######",
"###############  ===============================  ##############",
"#################  ===========================  ################",
"#################  ===========================  ################",
"###############    ===========================    ##############",
"###############    ===========================    ##############",
"##@############  ========               ========  ##############",
"###############  ========               ========  ##############",
"###############  ========               ========  ##############",
"###############  ======      =======      ======  ##############",
"###############  ======      =======      ======  #############@",
"#################    ======    ==     ======    ################",
"#################    ======    ==     ======    #############@##",
"############@##                                   ##############",
"##@############                                   ##############",
"#######@#####  OOOX    &&&&&&&&&&&&&&&&&&&    OXOO  ############",
"#############  OOOX    &&&&&&&&&&&&&&&&&&&    OOOO  ############",
"##########     XXXXOXXO    &&&&&&&&&&&    OXXXXXXX    ##########",
"##########     XXXXOXOO    &&&&&&&&&&&    OOXXXXXX    ##########",
"##########   OXXXXO  OXXOOO           OOXXOO  OXXXOO  ##########",
"##########   OXXXXO  OXOXOO           XOXXXO  OOXXXO  ##########",
"########  OOXXXXX      OXXXXXXXXXXXXOXXXXX      XXXXXX  ########",
"########  XOXXXXX      OXXXXXXXXXXXXOOXXXX      XXXXXX  ########",
"########  XXXXXXXOO  OXXXXXXOXXXXXXXXXXXXXOO  XXXXXXXX  ########",
"########  XXXXXXXOO  XXXXXXXXXXXXXXXXXXXXXXO  XXXXXXXX  ########",
"########  OXXXXXXXO  OOXXXXXXXXXXXXXXXXXXXXX  OXXXXXOO  ########",
"########  OOXXXXXXO  OXXXXXXXXXXXXXXXXXXXXXX  OOXXXXOO  ########",
"##########   OOXX  OXXXXXXXXXXXXXOXXXXXXXXXXOX  XXOX  ##########",
"##########   OXXX  OXXXXXXXXXXXXXXXXXXXXXX.XOO  XXOO  ##########",
"#############      OXXXXXXXXXXOOXXOXXXOXXXXXXX      ############",
"#############      OXXXXOOXXXXXOXXOOXXOOXXXXXX      ############",
"###############      XXXO               XX.X      ##############",
"###############      XXXO               XXXX      ##############",
"###############      OOOO               OOOO      ##############",
"###############                                 ################",
"###############                                 ################",
"#################                               ################",
"#################                               ################",
"#################              ##             ##################",
"#################              ##             ##################",
"###############      &&&&&&&&  ##   ========  ##################",
"###############      &&&&&&&&  ##   ========  ####@@############",
"#################    &&&&&&&&  ##       ====      ##############",
"#################    &&&&&&&&  ##       ====      ##############",
"###################          ####         ====    ##############",
"###################          ####         ====    ###@##########",
"#################################             ##################",
"#################################             ###########@@#####",
"####################################################@###########"
};
