/* XPM */
static char *_77441e3aecf4b0dff3784cbbffa84e7ZTGbXaaCaNZlHXeM[] = {
/* columns rows colors chars-per-pixel */
"64 64 13 1 ",
"  c #010000",
". c #000100",
"X c #010001",
"o c #4782C8",
"O c #4783C8",
"+ c #4782C9",
"@ c #4783C9",
"# c #C286FE",
"$ c #C386FF",
"% c #C387FF",
"& c #BDC0C9",
"* c #FFFFFE",
"= c #FFFEFF",
/* pixels */
"$$$$$$$$$$$$$$$$$$$$$$$$$$$$$$$$$$$$$$$$$$$$$$$$$$$$$$$$$$$$$$$$",
"$$$$$$$$$$$$$$$$$$$$$$$...................$$$$$$$$$$$$$$$$$$$$$$",
"$$$$$$$$$$$$$$$$$$$$$$$...................$$$$$$$$$$$$$$$$$$$$$$",
"$$$$$$$$$$$$$$$$$$$....===================....$$$$$$$$$$$$$$$$$$",
"$$$$$$$$$$%$$$%$$$$....===================....$$$$$$$$$$$$$$$$$$",
"$$$$$$$$$$$$$$$$$..===========================..$$$$$$$$$$$$$$$$",
"$$$$$$$$$$$$$$$%$..===========================..$$$$$$$$$$$$$$$$",
"$$$$$$$$$$$$$$$$$..===========================..$$$$$$$$$$$$$$$$",
"$$$$$$$$$$$$$$$$$..===========================..%$$$$#$$$$$$$$$$",
"$$$$$$$$$$$$$$$..===============================..#$$$$$$$$$$$$$",
"$$$$$$$$$$$$$$$..===============================..$$$$$$$$$$$$$$",
"$$$$$$$$$%$$$$$..===============================..$$$$$$$$$$$$$$",
"$$$$$$$$$$$$$$$..===============================..$$$$$$$$$$$$$$",
"$$$$$$$$$$$$$$$..===============================..$$$$$$$$$$$$$$",
"$$$$$$$$$$$$$$$..===============================..$$$$$$$$$$$$$$",
"$$$$$$$$$$$$$$$..===============================..$$$$$$$$$$$$$$",
"$$$$$$$$$$$$$$$..===============================..$$$$$$$$$$$$$$",
"$$$$$$$$$$$$$$$$$..===========================..$$$$$$$$$$$$$$$$",
"$$$$$$$$$$$$$$%$$..===========================..$$$$$$$$$$$$$$$$",
"$$$$$$$$$$$$$$$....===========================....$$$$$$$$$$$$$$",
"$$$$$$$$$$$$$$$....===========================....$$$$$$$$$$$$$$",
"$$$$$$$$$$$$$$$..========...............========..$$$$$$$$$$$$$$",
"$$$$$$$$$$$$$$$..========...............========..$$$$$$$$$$$$$$",
"$$$$$$$$$$$$$$$..========...............========..$$$$$$$$$$$$$$",
"$$$$$$$$$$$$$$$..======......=======......======..$$$$$$$$$$$$$$",
"$$$$$$$$$$$$$$$..======......=======......======..$$$$$$$$$$$$$$",
"$$$$$$$$$$$$$$$$$....======....==.....======....$$$$$$$$$$$$$$$$",
"$$$$$$$$$$$$$$$$$....======....==.....======....$$$$$$$$$$$$$$$$",
"$$$$$$$$$$$$$$$...................................$$$$$$$$$$$$$$",
"$$$$$$$$$$$$$$$...................................$$$$$$$$$$$$$$",
"$$$$$$$$$$$$$..@@@@....&&&&&&&&&&&&&&&&&&&....@+@@..$$$$$$$$$$$$",
"$$$$$$$$$$$$$..@@@@....&&&&&&&&&&&&&&&&&&&....@@@@..$$$$$$$$$$$$",
"$$$$$$$$$$.....++++++++....&&&&&&&&&&&....@+++++++....$$$$$$$$$$",
"$$$$$$$$$$.....++++++++....&&&&&&&&&&&....@@++++++....$$$$$$$$$$",
"$$$$$$$$$$...++++++..++++++...........@@++@@..@+++@@..$$$$$$$$$$",
"$$$$$$$$$$...++++++..++++++...........+@+++@..@@+++@..$$$$$$$$$$",
"$$$$$$$$..+++++++......+++++++++++++@+++++......++++++..$$$$$$$$",
"$$$$$$$$..+++++++......+++++++++++++@@++++......++++++..$$$$$$$$",
"$$$$$$$$..+++++++++..+++++++++++++++++++++@@..++++++++..$$$$$$$$",
"$$$$$$$$..+++++++++..++++++++++++++++++++++@..++++++++..$$$$$$$$",
"$$$$$$$$..+++++++++..+++++++++++++++++++++++..@+++++@@..$$$$$$$$",
"$$$$$$$$..+++++++++..++++++++++++++@++++++++..@@+++++@..$$$$$$$$",
"$$$$$$$$$$...++++..+++++++++++++++++++++++++@+..++@+..$$$$$$$$$$",
"$$$$$$$$$$...++++..+++++++++++++++++++++++++@@..++@@..$$$$$$$$$$",
"$$$$$$$$$$$$$......+++++++++++++++@+++@+++++++......$$$$$$$$$$$$",
"$$$$$$$$$$$$$......+++++++++++++++@@++@@++++++......$$$$$$$$$$$$",
"$$$$$$$$$$$$$$$......++++...............++++......$$$$$$$$$$$$$$",
"$$$$$$$$$$$$$$$......++++...............++++......$$$$$$$$$$$$$$",
"$$$$$$$$$$$$$$$......@@@@...............@@@@......$$$$$$$$$$$$$$",
"$$$$$$$$$$$%$$$$$...............................$$$$$$$$$$$$$$$$",
"$$$$$$$$$$$$$$$$$...............................$$$$$$$$$$$$$$$$",
"$$$$$$$$$$$$$$$...................................$$$$$$$$$$$$$$",
"$$$$$$$$$$$$$$$...................................$$$$$$$$$$$$$$",
"$$$$$%$$$$$$%$$................$$.................$$$$$$$$$$$$$$",
"$$$$$$$$$$$$$$$................$$.................$$$$$$$$$$$$$$",
"$$$$$$$$$$$$$$$$$............$$$$$$$............$$$$$$$$$$$$$$$$",
"$$$$$$$$$$$$$$$$$............$$$$$$$............$$$$$$$$$$$$$$$$",
"$$$$$$$$$$$$$......========..$$$$$$$..========......$$$$$$$$$$$$",
"$$$$$$$$$$$$$......========..$$$$$$$..========......$$$$$$$$$$$$",
"$$$$$$$$$$$$$......========..$$$$$$$..========......$$$$$$$$$$$$",
"$$$$$$$$$$$$$......========..$$$$$$$..========......$$$$$$$$$$$$",
"$$$$$$$$$$$$$$$$$$$..........$$$$$$$..........$$$$$$$$$$$$$$$$$$",
"$$$$$$$$$$$$$$$$$$$..........$$$$$$$..........$$$$$$$$$$$$$$$$$$",
"$$$$$$$$$$$$$$$$$$$$$$$$$$$$$$$$$$$$$$$$$$$$$$$$$$$$$$$$$$$$$$$$"
};
