/* XPM */
static char *_6405a72e0dc4733cddfcbfa4d929dc6xYI6AIURps9PkLTm[] = {
/* columns rows colors chars-per-pixel */
"64 64 15 1 ",
"  c #010000",
". c #000001",
"X c #4782C8",
"o c #4682C9",
"O c #4782C9",
"+ c #4783C9",
"@ c #C386FE",
"# c #C287FE",
"$ c #C386FF",
"% c #C387FF",
"& c #BCC0C9",
"* c #BDC0C9",
"= c #BDC1C9",
"- c #FFFEFE",
"; c #FEFFFF",
/* pixels */
"$$$$$$$$$$$$$$$$$$$$$$$$$$$$$$$$$$$$$$$$$$$$$$$$$$$$$$$$$$$$$$$$",
"$$$$$$$$$$$$$$$$$$$$$$$                   $$$$$$$$$$$$$$$$#$$$$$",
"$$$$$$$$$$$$$$$$$$$$$$$                   $$$$$$$$$$$$$$$$$$$$$$",
"$$$$$$$$$$$$$$$$$$$    ;;;;;;;;;;;;;;;;;;;    $$$$$$$$$$$$$$$$$$",
"$$$$$$$$$$$$$$$$$$$    ;;;;;;;;;;;;;;;;;;;    $$#$$$$$$#$$$$$$$$",
"$$$$$$$$#$$$$$$$$  ;;;;;;;;;;;;;;;;;;;;;;;;;;;  $$$$$$$$$$$$$$$$",
"$$$$$$$$$$$$$$$$$  ;;;;;;;;;;;;;;;;;;;;;;;;;;;  $$$$$$$$$$$$$$$$",
"$$$$$$$$$$#$$$$$$  ;;;;;;;;;;;;;;;;;;;;;;;;;;;  $$#$$$$$$$$$$$$$",
"$$$$$$$$$$##%%%%$  ;;;;;;;;;;;;;;;;;;;;;;;;;;;  $$$$$$$$$$$$$$$$",
"$$$$$$$$$$#$%%%  ;;;;;;;;;;;;;;;;;;;;;;;;;;;;-;;  $$$$$#$$$$$$$$",
"$$$$$$$$$$$$%%%  ;;;;;;;;;;;;;;;;;;;;;;;;;;;;;;;  $$#$$$$$$$$$$$",
"$$$$$$$$$$$$%%%  ;;;;;;;;;;;;;;;;;;;;;;;;;;;;;;;  $$$$$$$#$$$$$$",
"$$$$$$$$$$$$$$$  ;;;;;;;;;;;;;;;;;;;;;;;;;;;;;;;  ##$$$$$$$$$$$$",
"$$$$$$$$$$$$$$%  ;;;;;;;;;;;;;;;;;;;;;;;;;;;;;;;  $$$$$$$$$$$$$$",
"$$$$$$$$$$$$%%%  ;;;;;;;;;;;;;;;;;;;;;;;;;;;;;;;  $$$$$$$$$$$$$$",
"$$$$$$$$$$$$%%%  ;;;;;;;;;;;;;;;;;;;;;;;;;;;;;;;  $$$$$$$$$$$#$$",
"$$$$$$$$$$$$$$$  ;;;;;;;;;;;;;;;;;;;;;;;;;;;;;;;  $$$$$$$$##%%%%",
"$$$$$$$$$$$$$$$$$  ;;;;;;;;;;;;;;;;;;;;;;;;;;;  $$$$$$$$$$#$%%$%",
"$$$$$$$$$$$$$$$$$  ;;;;;;;;;;;;;;;;;;;;;;;;;;;  $$$$$$$$$$$$$$$$",
"$$$$$$$$$$$$$$$    ;;;;;;;;;;;;;;;;;;;;;;;;;;;    $$$$$$$$$$$$$$",
"$$$$$$$$$#$$$$$    ;;;;;;;;;;;;;;;;;;;;;;;;;;;    #$$$$$$$$$$$$$",
"$$$$$$$$$$$$$$$  ;;;;;;;;               ;;;;;;;;  $$$$$$$$$$$$$$",
"$$$$$$$$$#$$$$$  ;;;;;;;;               ;;;;;;;;  $$$$$$$$$$$$$$",
"$$$$$$$$$$$$$$$  ;;;;;;;;               ;;;;;;;;  $#$$$$$$$$$$$$",
"$$$$$$$$$$$$$$$  ;;;;;;      ;;;;;;;      ;;;;;;  $$$$$$$$$$$$$$",
"$$$$$$$$$$$$$$$  ;;;;;;      ;;;;;;;      ;;;;;;  $$$$$$$$$$$$$$",
"$$$$$$$$$$$$$$$$$    ;;;;;;    ;;     ;;;;;;    %%$$$$$$$$$$$$$$",
"$$$$$$$$$$$$$$$$$    ;;;;;;    ;;     ;;;;;;    %%$$$$$$$$$$$$$$",
"$$$$$$$$$$$$$$$                                   %%$$$$$$$$$$$$",
"$$$$$$$$$$$$$$$                                   %%$$$$$$$$$$$$",
"$$$$$$$$$$$$$  oooo    ==&&&==&&==&&&&===&    ++oo  $$$$$$$$$$$$",
"$$$$$$$$$$$$$  oooo    ==&&&==&&&&&&&&&&==    ++o+  $$$$$$$$$$$$",
"$$$$$$$$%%    .O+++O+OO    &&&&&&&&&&&    O+++++oo    %$$$$$$$$$",
"$$$$$$$$%%     Xo++O+OO    &&&&&&&==&&    OO++++oo    $$$$$$$$#$",
"$$$$$$$$%$  .OOOooO  OOOOOO           +++OOO  O+++oo  %%$$$$$$#$",
"$$$$$$$$$$   OOOooO  +OO+OO           ++O+OO  OO++++  %%$$$$$$$$",
"$$$$$$$$  ooXXXOo      O++ooOOOOOXXXo+++OO    . XOOOOO  $$$$$$$$",
"$$$$$$$$  +oXXXO+      O++ooOOOOOXXXoo++OO      OOOOOO  $$$$$$$$",
"$$$$$$%%  +++X+++++  OXX++o+OO+oOO+++++XOOOO  OOOOOOOO  $$$$$$$$",
"$$$$$%%%  +++++X+++  OOX++++OOXOOOX+oXXXOOO+  OOOOOOOO  $$$$$$$$",
"$$$$$$$$  oo++XXXOO  OOO+XXXXOOOOOOO++++XOOO  OOX+++oo  $$$$$$$$",
"$$$$$$$$  oo++o+OOO  OOO+XXXOOOOOOOOoo++XOOO  OOX+o++o  $$$$$$$$",
"$$$$$$$$$$   o++O  OOOOO++XXOOOOOO+Xoo++OOOOOO  +Xo+  $$$$$$#$$$",
"$$$$$$$$$$   o++O  OOOOOXXX+OOOOOOXOoo++OOOOOO  +Xoo  $$$$$$#$$$",
"$$$$$$$$$$$$%      OOOOO++++++o+OOOO++O+OOOOOO      $$$$$$$$%%%%",
"$$$$$$$$$$$$%      OOOOOoo+++oo+OOOO++OOOOOOOO      $$$$$$$$%%%%",
"$$$$$$$$$$$$%$%     .OOOo               OOoO.     %%$$$$$$$$$$%%",
"$$$$$$$$$$$$$$%      OOOo               OO+X  .   %%$$$$$$$$$$%%",
"$$$$$$$$$$$$$$$      oooo               oooo      %%$$$$$$$$$$$$",
"$$$$$$$$$$$$$$$$%                                 %%$$$$$$$$$$$$",
"$$$$$$$$$$$$$$$$%                                 %$$$$$$$$$$$$$",
"$$$$$$$$$$$$$$$$%                               %$$$$$$$$$$$$$$$",
"$$$$$$$$$$$$$$$$$                               %%$$$$$$$$$$$$$$",
"$$$$$$$$$$$$$$$$$$%            %$               $%$$$$$$$$$$$$$$",
"$$$$$$$$$$$$$$$$%$%            %$               $%%$$$$$$$$$$$$$",
"$$$$$$$$$$$$$$$$%%%  ;;;;;;;;  %$   &&=&===&      %%$$$$$$$$$$$$",
"$$$$$$$$$$$$$$#$%%%  ;;;;;;;;  %$   ====&&&=      $$$$$$$$$$$$$$",
"$$$$$$$$$$$$$$$      ;;;;      %$   ===&&&&=    $$$$$$$$$$$$$$$$",
"$$$$$$$$#$$$$#$      ;;;;      %$   ==&&=&==    $$$$$$$$$$$$$$$$",
"$$$$$$$$$$$$$$$    ;;;;        %$$$$          $$$$$$$$$$$$$$$$$$",
"$$$$$$$$$$$$$$$    ;;;;        %$$$$          $$$$$$$$$$$$$$$$$$",
"$$$$$$#$$$$$$$$$$$%            %#$#$$$$$$$$$$$$$$$$$$$$$$$$$$$$$",
"$$$$$$$$$$$$$$$$$$%            %$#$$$$$$$$$$$$$#$$$$$$$$$$$$$$$$",
"$$$$$$$$$$$$$$$$%%%%%%%%%%%%%%%###$$$$$$$$$$$$$$$$$$$$$$$$$$$$$$"
};
